<?xml version="1.0" encoding="UTF-8"?>
<svg id="Layer_1" data-name="Layer 1" xmlns="http://www.w3.org/2000/svg" viewBox="0 0 33.05 29.99">
  <defs>
    <style>
      .cls-1 {
        fill: #c7c3bb;
        stroke-width: 0px;
      }
    </style>
  </defs>
  <g id="uRSzsL.tif">
    <path class="cls-1" d="M4.65,15.72c-1.28,0-2.43.04-3.58-.03-.38-.02-.89-.26-1.05-.56-.11-.22.16-.79.42-1.03C5.45,9.57,10.47,5.06,15.5.55c.81-.73.98-.73,1.78-.01,5.05,4.49,10.09,8.98,15.14,13.47.36.32.84.68.52,1.16-.21.31-.75.5-1.16.53-1.12.07-2.24.02-3.48.02,0,.37,0,.67,0,.97,0,4.01,0,8.01,0,12.02,0,1.1-.17,1.27-1.28,1.27-1.57,0-3.14,0-4.71,0-.88,0-1.11-.24-1.11-1.12,0-3.3,0-6.6,0-9.9,0-1.35-.32-1.67-1.66-1.67-2.02,0-4.03,0-6.05,0-1.42,0-1.71.29-1.71,1.68,0,3.25,0,6.49,0,9.74,0,1.07-.2,1.27-1.29,1.27-1.54,0-3.09,0-4.63,0-.99,0-1.19-.21-1.19-1.21,0-4.03,0-8.07,0-12.1,0-.28,0-.57,0-.96Z"/>
  </g>
</svg>