<?xml version="1.0" encoding="UTF-8"?>
<svg id="Layer_1" data-name="Layer 1" xmlns="http://www.w3.org/2000/svg" viewBox="0 0 29.98 29.99">
  <defs>
    <style>
      .cls-1 {
        fill: #c7c3bb;
        stroke-width: 0px;
      }
    </style>
  </defs>
  <path class="cls-1" d="M15.96,29.96c7.15-.45,12.98-5.95,13.89-13.11C30.89,8.74,25.21,1.3,17.11.15c-.16-.02-.3-.1-.45-.15h-3.33c-.69.16-1.39.31-2.08.48C5.39,1.98,1,6.88.15,12.87c-.02.16-.1.3-.15.46v3.17c.16.73.29,1.46.47,2.18,1.77,7,8.28,11.74,15.49,11.29ZM15.05,2c7.15.02,12.95,5.86,12.93,13.03-.01,7.15-5.85,12.96-13.01,12.96-7.19,0-13.01-5.86-12.98-13.07.03-7.14,5.89-12.94,13.05-12.92Z"/>
  <path class="cls-1" d="M11.89,13.55c1.28-.28,1.61-.04,1.61,1.28,0,2.52,0,5.04,0,7.56,0,1.53,1.04,2.36,2.46,1.78.91-.37,1.67-1.12,2.46-1.76.18-.15.19-.51.27-.77-.25-.01-.52-.08-.75-.03-1.03.23-1.44-.08-1.45-1.17-.01-1.3,0-2.6,0-3.91,0-1.33.01-2.66,0-3.99-.01-1.18-.65-1.79-1.84-1.74-1.54.07-2.46,1.13-3.35,2.21-.07.09-.06.4,0,.43.17.09.4.14.58.1Z"/>
  <path class="cls-1" d="M14.73,9.12c.94.04,1.76-.75,1.77-1.7.02-.96-.74-1.75-1.7-1.76-.96,0-1.75.78-1.75,1.73,0,.91.76,1.69,1.67,1.73Z"/>
</svg>