<?xml version="1.0" encoding="UTF-8"?>
<svg xmlns="http://www.w3.org/2000/svg" viewBox="0 0 1918.9 939.95">
  <defs>
    <style>
      .cls-1 {
        isolation: isolate;
      }

      .cls-2 {
        stroke-width: 0px;
      }

      .cls-3 {
        mix-blend-mode: multiply;
        opacity: .12;
      }
    </style>
  </defs>
  <g class="cls-1">
    <g id="Main_template" data-name="Main template">
      <g class="cls-3">
        <polygon class="cls-2" points="1156.78 915.64 1142.74 939.95 1155.64 939.95 1163.23 926.81 1194.04 926.81 1201.62 939.95 1214.53 939.95 1200.49 915.64 1156.78 915.64"/>
        <path class="cls-2" d="M1128.92,774.13h-43.71l-21.86,37.86,21.86,37.86h43.71l21.86-37.86-21.86-37.86ZM1122.47,838.67h-30.8l-15.4-26.68,15.4-26.68h30.8l15.4,26.68-15.4,26.68Z"/>
        <polygon class="cls-2" points="956.17 874.7 918.5 939.95 944.07 939.95 968.95 896.85 1029.99 896.85 1054.88 939.95 1080.45 939.95 1042.78 874.7 956.17 874.7"/>
        <path class="cls-2" d="M852.54,918.47h25.85l12.92-22.38-12.92-22.38h-25.85l-12.92,22.38,12.92,22.38ZM856.36,880.31h18.22l9.11,15.77-9.11,15.77h-18.22l-9.11-15.77,9.11-15.77Z"/>
        <path class="cls-2" d="M1656.56,581.55v-43.71l-37.86-21.86-37.86,21.86v43.71l37.86,21.86,37.86-21.86ZM1592.02,544.3l26.68-15.4,26.68,15.4v30.81l-26.68,15.4-26.68-15.4v-30.81Z"/>
        <polygon class="cls-2" points="1637.15 846.78 1573.83 883.33 1573.83 939.95 1592.53 939.95 1592.53 894.12 1637.15 868.36 1681.76 894.12 1681.76 939.95 1700.46 939.95 1700.46 883.33 1637.15 846.78"/>
        <path class="cls-2" d="M1831.44,710.59v-86.61l-75.01-43.31-75.01,43.31v86.61l75.01,43.31,75.01-43.31ZM1703.57,636.77l52.86-30.52,52.86,30.52v61.04l-52.86,30.52-52.86-30.52v-61.04Z"/>
        <path class="cls-2" d="M1680.41,788.37v25.85l22.38,12.92,22.38-12.92v-25.85l-22.38-12.92-22.38,12.92ZM1718.57,810.4l-15.77,9.11-15.77-9.11v-18.21l15.77-9.11,15.77,9.11v18.21Z"/>
        <polygon class="cls-2" points="1873.87 863.14 1810.55 826.59 1747.24 863.14 1747.24 868.54 1747.24 936.25 1753.65 939.95 1791.04 939.95 1765.93 925.46 1765.93 873.93 1810.55 848.17 1855.17 873.93 1855.17 925.46 1830.06 939.95 1867.45 939.95 1873.87 936.25 1873.87 863.14"/>
        <path class="cls-2" d="M1798.06,509.98v-43.71l-37.86-21.86-37.86,21.86v43.71l37.86,21.86,37.86-21.86ZM1733.53,472.72l26.68-15.4,26.68,15.4v30.8l-26.68,15.4-26.68-15.4v-30.8Z"/>
        <path class="cls-2" d="M1882.05,66.74l-35.74,20.63v43.71l37.86,21.86,34.73-20.05v-47.32l-32.61-18.83h-4.24ZM1910.84,124.63l-26.68,15.4-26.68-15.4v-30.8l26.68-15.4,26.68,15.4v30.8Z"/>
        <path class="cls-2" d="M1664.21,207.59v139.09l120.45,69.54,120.45-69.54v-139.09l-120.45-69.54-120.45,69.54ZM1869.55,326.15l-84.89,49.01-84.89-49.01v-98.02l84.89-49.01,84.89,49.01v98.02Z"/>
        <path class="cls-2" d="M999.18,504.83v-11.07l-18.66-32.32h-43.71l-21.86,37.86,21.86,37.86h43.71l18.66-32.32ZM943.26,525.97l-15.4-26.68,15.4-26.68h30.81l15.4,26.68-15.4,26.68h-30.81Z"/>
        <path class="cls-2" d="M1586.12,272.63l-37.86-21.86-37.86,21.86v43.71l37.86,21.86,37.86-21.86v-43.71ZM1574.94,309.89l-26.68,15.4-26.68-15.4v-30.8l26.68-15.4,26.68,15.4v30.8Z"/>
        <path class="cls-2" d="M1335.53,143.6v86.61l75.01,43.31,75.01-43.31v-86.61l-75.01-43.31-75.01,43.31ZM1463.4,217.42l-52.86,30.52-52.86-30.52v-61.04l52.86-30.52,52.86,30.52v61.04Z"/>
        <path class="cls-2" d="M1486.55,39.97l-22.38-12.92-22.38,12.92v25.85l22.38,12.92,22.38-12.92v-25.85ZM1479.94,62l-15.77,9.11-15.77-9.11v-18.22l15.77-9.11,15.77,9.11v18.22Z"/>
        <path class="cls-2" d="M1110.36,63.4V22.92l-37.86-21.86-37.86,21.86v43.71l37.85,21.86,37.86-21.86v-3.23ZM1099.18,60.18l-26.68,15.4-26.68-15.4v-30.8l26.68-15.4,26.68,15.4v30.8Z"/>
        <path class="cls-2" d="M1027.63,441.52l63.31,36.55,63.31-36.55v-73.11l-63.31-36.55-63.31,36.55v73.11ZM1046.33,379.2l44.62-25.76,44.62,25.76v51.52l-44.62,25.76-44.62-25.76v-51.52Z"/>
        <path class="cls-2" d="M1135.22,109.06v86.61l75.01,43.31,75.01-43.31v-86.61l-75.01-43.31-75.01,43.31ZM1263.09,182.88l-52.86,30.52-52.86-30.52v-61.04l52.86-30.52,52.86,30.52v61.04Z"/>
        <path class="cls-2" d="M1134.22,299.29l22.38,12.92,22.38-12.92v-25.85l-22.38-12.92-22.38,12.92v25.85ZM1140.83,277.26l15.77-9.11,15.77,9.11v18.22l-15.77,9.11-15.77-9.11v-18.22Z"/>
        <path class="cls-2" d="M1368.9,344.21v43.71l37.86,21.86,37.86-21.86v-43.71l-37.86-21.86-37.86,21.86ZM1433.44,381.46l-26.68,15.4-26.68-15.4v-30.81l26.68-15.4,26.68,15.4v30.81Z"/>
        <path class="cls-2" d="M1244.94,726.33v40.48l35.74,20.63h4.24l35.74-20.63v-43.71l-37.86-21.86-37.86,21.86v3.23ZM1256.12,729.56l26.68-15.4,26.68,15.4v30.8l-26.68,15.4-26.68-15.4v-30.81Z"/>
        <path class="cls-2" d="M1201.04,348.22v73.11l63.31,36.55,63.31-36.55v-73.11l-63.31-36.55-63.31,36.55ZM1308.98,410.53l-44.62,25.76-44.62-25.76v-51.52l44.62-25.76,44.62,25.76v51.52Z"/>
        <path class="cls-2" d="M1220.08,594.06l-75.01-43.31-75.01,43.31v86.61l75.01,43.31,75.01-43.31v-86.61ZM1197.93,667.89l-52.86,30.52-52.86-30.52v-61.04l52.86-30.52,52.86,30.52v61.04Z"/>
        <path class="cls-2" d="M1176.32,490.44v25.85l22.38,12.92,22.38-12.92v-25.85l-22.38-12.92-22.38,12.92ZM1214.48,512.47l-15.77,9.11-15.77-9.11v-18.21l15.77-9.11,15.77,9.11v18.21Z"/>
        <path class="cls-2" d="M1261.85,517.77v128.82l120.45,69.54,120.45-69.54v-139.09l-120.45-69.54-120.45,69.54v10.27ZM1297.42,528.04l84.89-49.01,84.89,49.01v98.02l-84.89,49.01-84.89-49.01v-98.02Z"/>
        <path class="cls-2" d="M49.67,16.1v40.48l37.86,21.86,37.86-21.86V12.87L103.09,0h-31.12l-22.3,12.87v3.23ZM60.85,19.33l26.68-15.4,26.68,15.4v30.8l-26.68,15.4-26.68-15.4v-30.8Z"/>
        <polygon class="cls-2" points="240.93 0 217.13 0 229.03 6.87 240.93 0"/>
        <path class="cls-2" d="M503.18,512.65l21.86-37.86-21.86-37.86h-43.71l-21.86,37.86,21.86,37.86h43.71ZM450.52,474.8l15.4-26.68h30.81l15.4,26.68-15.4,26.68h-30.81l-15.4-26.68Z"/>
        <path class="cls-2" d="M48.03,493.24l36.55,63.31h73.11l36.55-63.31-36.55-63.31h-73.11l-36.55,63.31ZM146.9,448.62l25.76,44.62-25.76,44.62h-51.52l-25.76-44.62,25.76-44.62h51.52Z"/>
        <path class="cls-2" d="M330.43,537.51l-43.31,75.01,43.31,75.01h86.61l43.31-75.01-43.31-75.01h-86.61ZM404.25,665.38h-61.04l-30.52-52.86,30.52-52.86h61.04l30.52,52.86-30.52,52.86Z"/>
        <path class="cls-2" d="M213.88,558.89l12.92,22.38h25.85l12.92-22.38-12.92-22.38h-25.85l-12.92,22.38ZM248.84,543.12l9.11,15.77-9.11,15.77h-18.22l-9.11-15.77,9.11-15.77h18.22Z"/>
        <path class="cls-2" d="M177.88,729.96l36.55-63.31-36.55-63.31h-73.11l-36.55,63.31,36.55,63.31h73.11ZM115.57,622.03h51.52l25.76,44.62-25.76,44.62h-51.52l-25.76-44.62,25.76-44.62Z"/>
        <path class="cls-2" d="M35.66,623.38l12.92-22.38-12.92-22.38H9.81l-9.81,16.99v10.79l9.81,16.99h25.85ZM13.63,585.22h18.22l9.11,15.77-9.11,15.77H13.63l-9.11-15.77,9.11-15.77Z"/>
        <path class="cls-2" d="M534.27,654.16h40.49l21.86-37.86-21.86-37.86h-43.71l-21.86,37.86,21.86,37.86h3.23ZM537.49,589.62h30.8l15.4,26.68-15.4,26.68h-30.8l-15.4-26.68,15.4-26.68Z"/>
        <path class="cls-2" d="M974.28,742.38v-4.24l-20.63-35.74h-43.71l-21.86,37.86,21.86,37.86h43.71l20.63-35.74ZM916.39,766.94l-15.4-26.68,15.4-26.68h30.8l15.4,26.68-15.4,26.68h-30.8Z"/>
        <path class="cls-2" d="M833.43,520.3h-139.09l-69.54,120.45,69.54,120.45h139.09l69.54-120.45-69.54-120.45ZM812.89,725.64h-98.02l-49.01-84.89,49.01-84.89h98.02l49.01,84.89-49.01,84.89Z"/>
        <path class="cls-2" d="M724.67,366.5l-21.86,37.86,21.86,37.86h43.71l21.86-37.86-21.86-37.86h-43.71ZM777.34,404.36l-15.4,26.68h-30.8l-15.4-26.68,15.4-26.68h30.8l15.4,26.68Z"/>
        <path class="cls-2" d="M897.43,191.62h-86.61l-43.31,75.01,43.31,75.01h86.61l43.31-75.01-43.31-75.01ZM884.64,319.49h-61.04l-30.52-52.86,30.52-52.86h61.04l30.52,52.86-30.52,52.86Z"/>
        <path class="cls-2" d="M1013.97,320.26l-12.92-22.38h-25.85l-12.92,22.38,12.92,22.38h25.85l12.92-22.38ZM979.02,336.04l-9.11-15.77,9.11-15.77h18.22l9.11,15.77-9.11,15.77h-18.22Z"/>
        <polygon class="cls-2" points="604.9 10.36 672.61 10.36 678.59 0 593.52 0 599.5 10.36 604.9 10.36"/>
        <path class="cls-2" d="M845.35,141.34h86.61l43.31-75.01L936.98,0h-96.64l-38.29,66.33,43.31,75.01ZM858.14,13.47h61.04l30.52,52.86-30.52,52.86h-61.04l-30.52-52.86,30.52-52.86Z"/>
        <polygon class="cls-2" points="741.73 35.08 743.64 35.08 767.57 35.08 780.5 12.7 773.17 0 765.53 0 772.87 12.7 763.76 28.47 745.54 28.47 736.44 12.7 743.77 0 736.13 0 728.8 12.7 741.73 35.08"/>
        <path class="cls-2" d="M718.67,262.85l-21.86-37.86h-43.71l-21.86,37.86,21.86,37.86h43.71l21.86-37.86ZM659.56,289.53l-15.4-26.68,15.4-26.68h30.81l15.4,26.68-15.4,26.68h-30.81Z"/>
        <path class="cls-2" d="M314.69,101.04h-40.48l-20.63,35.74v4.24l20.63,35.74h43.71l21.86-37.86-21.86-37.86h-3.23ZM311.46,165.57h-30.8l-15.4-26.68,15.4-26.68h30.81l15.4,26.68-15.4,26.68Z"/>
        <path class="cls-2" d="M583.14,120.45l36.55,63.31h73.11l36.55-63.31-36.55-63.31h-73.11l-36.55,63.31ZM682.01,75.83l25.76,44.62-25.76,44.62h-51.52l-25.76-44.62,25.76-44.62h51.52Z"/>
        <polygon class="cls-2" points="360.34 76.18 446.96 76.18 490.26 1.17 489.59 0 464.01 0 464.69 1.17 434.17 54.03 373.13 54.03 342.61 1.17 343.28 0 317.71 0 317.04 1.17 360.34 76.18"/>
        <path class="cls-2" d="M550.58,77.18l12.92-22.38-12.92-22.38h-25.85l-12.92,22.38,12.92,22.38h25.85ZM528.55,39.02h18.21l9.11,15.77-9.11,15.77h-18.21l-9.11-15.77,9.11-15.77Z"/>
        <path class="cls-2" d="M324.89,238.4l69.54,120.45h139.09l69.54-120.45-69.54-120.45h-139.09l-69.54,120.45ZM512.98,153.51l49.01,84.89-49.01,84.89h-98.02l-49.01-84.89,49.01-84.89h98.02Z"/>
      </g>
    </g>
  </g>
</svg>