<?xml version="1.0" encoding="UTF-8"?>
<svg id="Layer_1" data-name="Layer 1" xmlns="http://www.w3.org/2000/svg" viewBox="0 0 579.05 483.02">
  <defs>
    <style>
      .cls-1 {
        fill: #8b505e;
      }

      .cls-1, .cls-2, .cls-3, .cls-4, .cls-5, .cls-6, .cls-7, .cls-8, .cls-9, .cls-10, .cls-11, .cls-12 {
        stroke-width: 0px;
      }

      .cls-2 {
        fill: #ca5160;
      }

      .cls-3 {
        fill: #724959;
      }

      .cls-4 {
        fill: #723748;
      }

      .cls-5 {
        fill: #202830;
      }

      .cls-6 {
        fill: #544a5d;
      }

      .cls-7 {
        fill: #e96671;
      }

      .cls-8 {
        fill: #d65364;
      }

      .cls-9 {
        fill: #2c516b;
      }

      .cls-10 {
        fill: #223845;
      }

      .cls-11 {
        fill: #39323e;
      }

      .cls-12 {
        fill: #631633;
      }
    </style>
  </defs>
  <path class="cls-12" d="M200.88,299.65h0s-.02.02-.03.03c.02-.02.03-.03.03-.03h0Z"/>
  <path class="cls-8" d="M200.88,299.65c.26-.36.52-.69.78-1.05-.18,0-.32.03-.44.08-.36.15-.45.47-.34.97h0Z"/>
  <path class="cls-8" d="M201.22,298.68c-.36.15-.45.47-.34.97h0c-.11-.5-.02-.82.34-.97Z"/>
  <path class="cls-7" d="M292.31,293.97c-1.37,1.24-2.76,2.49-4.14,3.75,1.39-1.24,2.76-2.51,4.15-3.75h-.02Z"/>
  <g>
    <path class="cls-12" d="M232.19,155.95c-.74-4.25,2.73-5.67,6.08-6.77,2.63-.87,5.27-1.75,7.9-2.62.13-.26.18-.53.13-.82.31-.37.6-.73.91-1.1.44-.69.86-1.39,1.29-2.07-.86-6.51,2.04-12.09,4.56-17.65.16-.37.34-.74.5-1.12,4.28-9.73,8.84-19.35,13.74-28.77.32-.61.69-1.18,1.08-1.7s.84-.97,1.31-1.37c2.81-2.46,6.74-3.26,10.62-3.81,1.62-2.93,3.14-5.96,5.64-8.13.82-.73,1.78-1.34,2.86-1.84,2.51-1.15,5.07-1.24,4.22,2.62-.6,2.7.58,2.94,2.55,3.41,9.73,2.3,19.51,1.65,29.29.48,4.95-.58,9.88-1.41,15.42-2.21-2.51-6.04-6.32-10.93-9.99-15.9-1-1.36-3.44-2.7-1.81-4.41,2-2.12,3.75.16,5.43,1.47,7.39,5.77,12.78,12.46,11.26,22.69-.19,1.33.48,2.8.76,4.19,6.69,2.57,13.72,3.35,20.72,4.28,1.16.16,2.33.31,3.49.48s2.33.36,3.47.57c3.86.69,7.76,1.18,11.62,1.76,3.12.47,4.06,2.33,3.75,5.35-1.83,17.68-.45,35.43-.92,53.14-.06,2.17.89,3.73,2.39,5.16,2.46,2.33,4.86,4.72,7.24,7.16,2.65,2.72,5.79,3.17,9.39,2.54,4.04-.71,8.1-1.33,12.17-1.81s8.16-.84,12.27-1.03c.21-.11.4-.23.61-.34,1.21-.65,2.41-1.34,3.57-2.07,1.02-.63,2.04-1.28,3.02-1.96,1.15-.78,2.29-1.55,3.44-2.36,1.36-.95,2.7-1.89,4.07-2.83,1.92-1.33,3.88-2.62,5.9-3.81,1-.6,2.04-1.16,3.09-1.71.21-.11.42-.21.65-.29.44-.18.89-.34,1.34-.5.23-.08.45-.16.68-.24.61-.24,1.21-.52,1.76-.89.24-.16.47-.34.68-.57-.52-.89-.91-1.76-.89-2.57,0-.82.42-1.58,1.47-2.26,1.68-1.08-.18-1.55-.34-2.31-.21-.42-.42-.86-.63-1.28-1.6.29-3.04.32-4.32.1-2.91-.48-5.07-2.2-6.72-4.77-.37-.57-.71-1.18-1.02-1.84-.16-.32-.31-.66-.45-1-4.38-10.39-12.44-17.39-21.95-22.64-12.62-6.98-26.25-12.14-38.01-20.72-.34-.24-.76-.39-1.2-.5s-.91-.19-1.33-.32l-.03.03c-.03.16-.06.32-.1.48-.03.16-.06.31-.11.45-.06.21-.15.39-.24.53-.13.18-.31.29-.53.27-.29,0-.66-.21-1.18-.68-1.94-.15-3.9-.08-5.83-.13s-3.88-.21-5.77-.82c-2.13-.68-5.03.82-6.45-1.41-2.23-3.51-3.93-7.35-5.79-11.1-.02-.03.81-.48,1.24-.74,0-1.97-.31-3.72-1.75-5.37-4.48-5.07-4.07-6.71,2.23-10.6.57-.84,1.23-1.57,1.94-2.21,2.15-1.92,4.83-3.05,7.39-4.4.69-2.02,2.07-3.12,3.8-3.78.58-.23,1.2-.39,1.83-.52-.92-1.16-2.17-1.86-3.44-2.49-.48-.24-.99-.48-1.47-.73-7.31.47-14.69-.73-21.92,1.1-2.81,4.25-6.09,7.27-9.86,9.16-1.92.95-3.98,1.6-6.14,1.97-.37.06-.73.13-1.1.16-1.13.13-2.28.21-3.46.19-1.96-.02-3.99-.26-6.11-.68-3.65-.73-6.01,1.12-8.15,3.9-2.91,3.8-5.59,7.94-10.62,9.45-3.14.94-6.4,4.02-8.53-1.66-.63-1.7-3.64-.84-5.51-1.34-6.92-1.83-13.82-3.8-21.12-2.96-2.04,4.35-4.3,8.6-6.04,13.04-4.98,12.61-10.67,24.82-18.31,36.09-2.38,3.49-4.83,7.29-5.29,11.44-1.1,10.05-5.53,17.83-13.87,23.45-.58.39-1.03.99-1.57,1.47-2.7,2.47-2.21,4.74.05,7.35,4.59,5.3,10.07,6.72,16.61,4.46-5.59.34-6.87-3.88-7.56-7.87h-.02Z"/>
    <path class="cls-12" d="M328.11,161.73c.42-.81.82-1.63,1.21-2.47-.37.84-.78,1.66-1.21,2.47Z"/>
    <path class="cls-12" d="M314.56,175.57c.02-.13.06-.23.13-.27-.08.05-.11.15-.13.27Z"/>
    <path class="cls-12" d="M329.55,158.73c.74-1.73,1.42-3.51,2.02-5.32-.61,1.81-1.28,3.59-2.02,5.32Z"/>
    <path class="cls-12" d="M287.98,199.76c.42-.71.86-1.41,1.31-2.08-.45.68-.91,1.37-1.31,2.08Z"/>
    <path class="cls-12" d="M333.35,147.54c-.53,1.91-1.1,3.8-1.71,5.66.61-1.86,1.18-3.75,1.71-5.66h0Z"/>
    <path class="cls-12" d="M311.43,177.7s.06-.05.11-.08c-.05.05-.11.08-.11.08Z"/>
    <path class="cls-5" d="M338.39,149.08c.79,6.45,5.27,10.84,8.53,15.84,5.75,8.82,15.05,14.24,21.96,21.96,4.57,5.11,9.37,10.02,14.32,15.29.92-2.57-.13-4.27-.99-5.62-3.1-4.98-6.45-9.81-9.83-14.63-5.16-7.34-11.77-13.74-14.66-22.55-3.39-1.92-4.41-5.72-5.27-8.79-1.29-4.62-3.75-9.08-2.88-14.38,1.94,4.59,3.78,9.23,5.75,13.8.79,1.83,1.6,3.65,2.42,5.45.42.91.84,1.79,1.29,2.7h0c.82,1.6,1.97,2.93,3.31,4.02.45.36.92.69,1.41,1,13.29,8.37,19.94,21.92,27.36,34.86.27-1,.81-1.87,1.39-2.73.26-.39.53-.76.78-1.15.42-.63.81-1.29,1.07-2,.16-.47.31-.94.34-1.47-9.07-10.86-16.71-22.4-21.92-35.15-3.12-7.64-5.37-15.74-6.5-24.37,10.93,17.7,20.33,36.41,34.26,52.09,6.89-2.91,13.77-5.85,20.67-8.71,3.8-1.58,6.95-4.17,10.3-6.46h0c-4.11.19-8.19.55-12.27,1.03s-8.13,1.1-12.17,1.81c-3.6.63-6.74.18-9.39-2.54-2.38-2.42-4.77-4.82-7.24-7.16-1.5-1.42-2.44-2.99-2.39-5.16.47-17.71-.91-35.46.92-53.14.31-3.01-.61-4.88-3.75-5.35-3.88-.58-7.77-1.07-11.62-1.76-1.16-.21-2.31-.39-3.47-.57s-2.33-.34-3.49-.48c-7-.94-14.03-1.71-20.72-4.28-5.4.69-10.78,1.73-16.21,2.05-.99.06-1.99.1-2.99.1-.92,0-1.86-.02-2.78-.08-1.6-.1-3.28-.13-3.67,2.05,7.84.86,15.58-.91,23.65-1.39-2.21,4.98-5.11,9-6.38,13.87-.87,3.31-1.45,6.66-1.87,10.04-.21,1.68-.39,3.36-.52,5.06-.15,1.73-.26,3.47-.37,5.22-.1,1.57-.18,3.12-.26,4.69,0,.18-.02.34-.03.52-.11,2.25-.24,4.49-.39,6.74-.03.47-.06.94-.1,1.41-.08,1.07-.16,2.13-.27,3.2-.08.91-.18,1.81-.29,2.73-.03.29-.06.6-.1.89,1.89-.15,4.59-2.12,5.04,1.54v-.02Z"/>
    <path class="cls-5" d="M334.01,140.74c.03-.47.06-.94.1-1.41-.03.47-.06.94-.1,1.41Z"/>
    <path class="cls-5" d="M335.14,122.2c.15-1.68.31-3.38.52-5.06-.21,1.68-.39,3.36-.52,5.06Z"/>
    <path class="cls-5" d="M333.44,146.67c.11-.91.21-1.81.29-2.73-.08.91-.18,1.81-.29,2.73Z"/>
    <path class="cls-5" d="M334.49,132.61c0-.18.02-.34.03-.52,0,.18-.02.34-.03.52Z"/>
    <path class="cls-5" d="M334.77,127.41c.1-1.75.23-3.47.37-5.22-.15,1.73-.26,3.47-.37,5.22Z"/>
    <path class="cls-5" d="M431.53,168.1h0c-4.11.19-8.19.55-12.27,1.03,4.07-.48,8.16-.84,12.27-1.03Z"/>
    <path class="cls-5" d="M359.04,158.18h0c.82,1.6,1.97,2.93,3.31,4.02-1.34-1.08-2.49-2.42-3.31-4.02Z"/>
    <path class="cls-12" d="M447.32,18.25c-.15.24-.26.47-.37.73-.23.5-.39,1.03-.45,1.62,6.59,4.07,10.13,10.83,14.61,16.73.31.4.57.84.79,1.31.69,1.39,1.12,2.97,1.73,4.41,1.45,3.23,2.68,6.5,3.2,9.92.31,2.05.37,4.15.08,6.34-.39,2.91-.16,6.13,1.66,8.19,7.34,8.27,7.35,18.09,6.67,28.14.76.21,1.5.44,2.26.65,2.39,1.18,4.07,1.1,5.53-.03.29-.23.57-.5.84-.81.55-.61,1.07-1.39,1.6-2.31.91-1.57,1.71-3.2,2.46-4.83.48-1.1.95-2.2,1.41-3.31,2.44-6.14,4.33-12.49,7.56-18.26-.52-.63-.74-1.31-.76-2.02,0-.42.06-.87.18-1.33-.16-1.07-.31-2.13-.47-3.2-2.89-2.65-4.65-6.03-6.42-9.41-.6-1.13-1.18-2.25-1.81-3.33-4.23-7.29-8.94-14.17-15-20.12-3.96-3.88-9.55-7.29-5.87-14.37h0c-1.81-.08-3.62-.18-5.41-.18-1.08,0-2.15.03-3.23.11-2.86.21-5.67.78-8.4,2.04-.73,1.16-1.68,2.18-2.38,3.35l-.02-.02ZM474.18,57.05c3.47.29,9.12,4.44,12.49,8.55.61.74,1.13,1.49,1.57,2.2.34.57.63,1.1.84,1.63.13.32.23.65.29.95.31,1.41.4,2.94-.84,4.01-1.55,1.33-3.57,1.36-5.04.36-5.61-3.75-10-8.6-12.25-15.11-.13-.39-.23-.73-.26-1.02-.26-2,1.73-1.52,3.2-1.57h0Z"/>
    <path class="cls-12" d="M458.1,12.87c-2.86.21-5.67.78-8.4,2.04h0c2.73-1.26,5.54-1.83,8.4-2.04Z"/>
    <path class="cls-12" d="M466.75,12.93c-1.81-.08-3.62-.18-5.41-.18,1.79,0,3.6.08,5.41.18h0Z"/>
    <path class="cls-8" d="M268.18,66.51c7.29-.84,14.21,1.13,21.12,2.96,1.89.5,4.88-.36,5.51,1.34,2.13,5.69,5.4,2.6,8.53,1.66,5.03-1.5,7.69-5.66,10.62-9.45,2.13-2.78,4.51-4.62,8.15-3.9,2.12.42,4.15.65,6.11.68,1.18,0,2.34-.05,3.46-.19.37-.05.74-.11,1.1-.16,2.17-.37,4.22-1,6.14-1.97,3.77-1.87,7.05-4.91,9.86-9.16h0c.03-.61.06-1.21.1-1.83-3.49.27-6.97.68-10.39,1.28-4.57.81-9.07,1.96-13.43,3.57-1.1.4-2.18.84-3.25,1.31-3.73,1.62-7.47,2.13-11.48,2.15-11.6.03-23.16.79-34.59,3.09-.94.19-1.81.44-2.59.73-.52.19-.99.42-1.42.68-.39.23-.74.48-1.07.76-.03.03-.08.06-.13.1-1.6,1.42-2.41,3.46-2.34,6.37h-.02Z"/>
    <path class="cls-8" d="M271.72,59.28c.44-.26.92-.48,1.42-.68-.52.19-.99.42-1.42.68Z"/>
    <path class="cls-8" d="M325.04,51.33c4.36-1.62,8.86-2.76,13.43-3.57-4.57.81-9.07,1.96-13.43,3.57Z"/>
    <path class="cls-8" d="M270.52,60.14s.08-.06.13-.1c-.03.03-.08.06-.13.1Z"/>
    <path class="cls-8" d="M332.78,59.44c-.37.06-.73.13-1.1.16.37-.05.74-.11,1.1-.16Z"/>
    <path class="cls-8" d="M348.78,48.31h0c-2.8,4.25-6.09,7.27-9.86,9.16,3.77-1.87,7.06-4.91,9.86-9.16h0Z"/>
    <path class="cls-10" d="M280.3,88.15c-3.88.55-7.81,1.34-10.62,3.81-.47.4-.91.87-1.31,1.37s-.76,1.07-1.08,1.7c-4.9,9.42-9.45,19.04-13.74,28.77-.16.37-.32.74-.5,1.12-2.52,5.56-5.41,11.14-4.54,17.65,1.26-.63,2.51-1.24,3.75-1.87h0c3.39-4.96,6.34-10.25,10.05-14.97,1.24-1.57,2.55-3.09,4.01-4.51,9.73-9.5,19.48-18.99,29.22-28.49-4.11-4.74-9.71-4.49-15.22-4.57h-.02Z"/>
    <path class="cls-10" d="M252.24,140.69c3.39-4.96,6.34-10.25,10.05-14.97-3.72,4.72-6.66,10-10.05,14.97h0Z"/>
    <path class="cls-5" d="M445.3,67.8v-5.67c4.59,1.26,4.51,6.06,7.39,8.18l2.15-2.52c-.31-2.83-.61-5.66-.92-8.49.03-4.48.08-8.94.11-13.41l-.13-.45c-.32-.24-.55-.48-.57-.71v-.16s.03-.05.06-.08c.02-.03.03-.05.05-.08,0,0,.02,0,.03-.02.11-.1.26-.19.5-.29.27-.16.57-.27.87-.32.47-.34.81-.36,1.02,0,.06.11.13.26.16.45l.08.03c.52-.02,1,.03,1.37.27.23.15.42.36.57.68,1.21,1.47,2.42,2.93,3.64,4.4h0c.1.13.19.27.29.4.15.21.29.42.44.61,0,0,0,.03.02.08v.08c1.79-1.75,1.24-3.46,0-5.2-1.07-1.49-.45-2.25,1.18-2.49-.61-1.44-1.03-3.02-1.73-4.41-.23-.47-.48-.91-.79-1.31-4.48-5.92-8.02-12.67-14.61-16.73-.31.36-.6.71-.91,1.07h0c-.78,1.21-1.55,2.42-2.33,3.64-.27,3.43-1.73,5.98-5.27,6.9-.52,4.41.03,8.68,1.08,12.9.36,1.41.76,2.8,1.2,4.2.91,2.86,1.37,5.75.52,8.45-.39,1.23-1.05,2.42-2.08,3.56,4.46-.13,3.09,5.67,6.59,6.5l.02-.05Z"/>
    <path class="cls-5" d="M445.59,21.66c-.78,1.21-1.55,2.42-2.33,3.64.78-1.21,1.55-2.42,2.33-3.64h0Z"/>
    <path class="cls-5" d="M440.77,57.75c-.39,1.23-1.05,2.42-2.08,3.56h0c1.03-1.13,1.7-2.33,2.08-3.56Z"/>
    <path class="cls-5" d="M437.98,32.19h0c-.52,4.41.03,8.68,1.08,12.9-1.05-4.22-1.6-8.49-1.08-12.9Z"/>
    <path class="cls-5" d="M461.9,38.63c.69,1.39,1.12,2.97,1.73,4.41h0c-.61-1.44-1.03-3.02-1.73-4.41Z"/>
    <path class="cls-11" d="M323.95,92.59c.94.05,1.86.08,2.78.08,1,0,1.99-.03,2.99-.1,5.45-.31,10.81-1.34,16.23-2.05-.27-1.41-.95-2.86-.76-4.19,1.52-10.23-3.88-16.91-11.26-22.69-1.68-1.33-3.43-3.59-5.43-1.47-1.63,1.71.82,3.05,1.81,4.41,3.67,4.98,7.47,9.86,9.99,15.9-5.54.81-10.47,1.63-15.42,2.21-9.78,1.16-19.56,1.81-29.29-.48-1.97-.47-3.17-.71-2.55-3.41.86-3.86-1.71-3.75-4.22-2.62-1.08.5-2.02,1.12-2.86,1.84-2.49,2.17-4.02,5.19-5.64,8.13,5.51.08,11.12-.16,15.22,4.57,1.02.06,2.04.11,3.07.18,1.05-1.6,1.76-1.26,2.25.39,1.41.19,2.81.4,4.22.6.65-.36,1.28-.66,1.92-.91.21-.08.42-.16.63-.23.63-.21,1.26-.34,1.87-.4,1.86-.16,3.67.44,5.37,2.3h5.43c.39-2.18,2.08-2.15,3.67-2.05l-.02-.02Z"/>
    <path class="cls-11" d="M329.72,92.58c-.99.06-1.99.1-2.99.1,1,0,1.99-.03,2.99-.1Z"/>
    <path class="cls-2" d="M491.77,115.14c0,.18.03.36.06.53.26,1.66.99,3.35-.24,4.91,1.33,2.47,3.46,4.54,4.88,7.01.29.5.53,1,.76,1.54.13.32.24.65.34.99.15.5.26,1.03.31,1.58.03.31.05.63.05.95-.89-.11-1.45-.5-1.92-1-.76-.84-1.2-1.96-2.15-2.51-.03.05-.06.1-.11.15-.19.24-.39.34-.57.26-.13-.05-.26-.19-.39-.44v-.02c-3.04.23-6.13.26-9.13.6-1.29.15-2.57.36-3.83.66-2.51.61-4.93,1.63-7.21,3.38-1.44,1.12-3.31,1.34-4.8-.34-2.62,2.89-5.25,5.79-7.87,8.66.21.42.42.86.63,1.28,4.83-1.94,10.02-1.05,15.05-1.71.71-.1,1.42-.23,2.13-.39.21-.05.42-.08.63-.06,1.39.03,2.28,1.36,2.63,2.89,2.18.05,4.36.1,6.55.13,2.28-.37,4.4.19,6.43,1.16,2.1-1.39,2.94-3.64,3.78-5.79.11-.31.24-.61.37-.91,1.05-2.57,2.44-1.6,3.98-.95-1.5-6.51-4.01-12.62-6.97-18.54-.99-1.97-2.02-3.93-3.09-5.87-.27.58-.34,1.2-.29,1.79l-.02.03Z"/>
    <path class="cls-8" d="M369.24,45.14c.48.69.97,1.39,1.45,2.08.48.24.97.48,1.47.73,1.28.63,2.52,1.33,3.44,2.49,6.08.39,11.78,1.65,16.47,5.2.94.71,1.83,1.5,2.68,2.39.34.36.68.74,1,1.13.63.05,1.15.23,1.5.57.08.08.16.18.23.27.19.31.31.71.31,1.23v.1c0,.13.02.36.02.36.37-.05.73-.11,1.1-.18,6.53.63,8.05,6.93,11.78,10.65,3.69,3.65,6.38,8.36,12.57,7.68-.26-1.75-.52-3.49-.78-5.24h0c-3.47-5.87-6.95-11.73-10.42-17.58-3.64-.71-7.42-1.16-10.59-3.07-.73-.44-1.42-.95-2.07-1.57-4.7-4.43-10.18-6.8-16.53-7.4-.42-.02-.84-.05-1.26-.06-4.12.08-8.24.15-12.36.23h-.02Z"/>
    <path class="cls-8" d="M370.7,47.23c.48.24.97.48,1.47.73-.48-.24-.99-.48-1.47-.73h0Z"/>
    <path class="cls-10" d="M434.21,85.82c.74,1.99,1.63,3.94,2.72,5.83,2.05,3.62,4.69,7.08,7.69,10.42,3.35,3.72,5.04,1.79,6.08-1.97-5.27-6.14-5.4-13.61-5.37-21.11.02-3.75-.02-7.48-.03-11.23-3.51-.82-2.13-6.63-6.59-6.5h0c-.68.42-1.36.86-2.05,1.28h0c-1.05.71-2.1,1.41-3.15,2.12-2.2,7.76-1.66,14.72.71,21.12v.03Z"/>
    <path class="cls-10" d="M436.65,62.58c.68-.42,1.36-.86,2.05-1.28h0c-.68.42-1.36.86-2.05,1.28h0Z"/>
    <path class="cls-8" d="M476.67,18.47c7.29,5.59,11.81,12.77,14.14,21.48,1.79,6.71,3.38,13.46,5.06,20.2.15,1.07.31,2.13.47,3.2.6-.32,1.21-.63,1.81-.95h0c.65-1.13.91-2.34,1.05-3.59s.21-2.49.47-3.7c4.53-21.22-8.03-39.24-29.59-42.43.78,3.51,4.35,4.06,6.61,5.8l-.02-.02Z"/>
    <path class="cls-8" d="M498.13,62.39h0c.65-1.13.91-2.34,1.05-3.59-.16,1.23-.4,2.46-1.05,3.59h0Z"/>
    <path class="cls-2" d="M472.61,27.3c6.06,5.93,10.76,12.83,15,20.12.63,1.1,1.23,2.21,1.81,3.33,1.76,3.38,3.52,6.76,6.42,9.41h0c-1.68-6.74-3.26-13.5-5.06-20.2-2.31-8.7-6.85-15.89-14.14-21.48-2.28-1.75-5.83-2.3-6.61-5.8-1.1.08-2.2.18-3.3.26-3.69,7.08,1.89,10.47,5.87,14.37h.02Z"/>
    <path class="cls-2" d="M489.44,50.75c1.76,3.38,3.52,6.76,6.42,9.41h0c-2.89-2.63-4.65-6.03-6.42-9.41Z"/>
    <path class="cls-4" d="M556.45,143.57c-.78,1.33-1.55,2.65-2.33,3.98,0,.53.13,1.1-.03,1.57-1.47,4.32-1.12,6.64,4.11,3.28.02.21.03.4.02.6,0,.37-.06.73-.15,1.03-.06.23-.15.45-.24.65-.06.13-.11.24-.18.37-.73,1.28-1.96,2.1-2.54,3.3-.06.13-.11.24-.16.39,1.16,2.76,3.52,1.87,5.61,1.79,1.13-1.42,1.89-3.17,3.46-4.77.53-.53,1.15-1.07,1.91-1.57-.18,3.2-1.1,5.07-3.25,6.43-2.29,4.61,1.36,4.77,3.8,4.14.32-.08.63-.15.94-.19,2.17-.37,4.17-.11,6.27.08-.61-2.15-.37-4.09.24-5.92.81-2.42,2.26-4.67,3.22-7.06-1.05-.63-1.92-1.33-2.55-2.15-.37-.47-.65-.99-.86-1.55-.15-.4-.27-.82-.32-1.28-.05-.36-.05-.73-.03-1.12s.08-.79.18-1.23l-.03-.03c-.16-.11-.34-.21-.5-.32-.32-.21-.65-.42-.97-.63-.13.05-.26.05-.36.02-.11-.03-.21-.1-.29-.21-1.36-.39-3.17.95-4.14-1.03-.23-.24-.31-.52-.27-.84-4.01-1.47-6.69,3.18-10.57,2.28h.03ZM569.23,147.51c.08-.13.16-.24.24-.37-.06.15-.13.29-.18.44-.08.13-.18.26-.26.39.06-.15.13-.31.21-.45h-.02Z"/>
    <path class="cls-4" d="M556.45,143.57h0c-.78,1.33-1.55,2.65-2.33,3.98h0c.78-1.33,1.55-2.65,2.33-3.98Z"/>
    <path class="cls-4" d="M572.06,143.36h0c.32.21.65.42.97.63-.32-.21-.65-.42-.95-.63h-.02Z"/>
    <path class="cls-4" d="M571.7,143.39c-.11-.03-.21-.1-.29-.21.08.11.18.18.29.21Z"/>
    <path class="cls-8" d="M477.49,96.26c-.76-.21-1.5-.44-2.26-.65-.32.05-.65,0-.99-.11-1.42-.4-2.86-1.65-4.25.18,1.73,3.26,2.88,6.71,3.52,10.3.21,1.2.39,2.41.5,3.62.03.03.08.06.11.1,3.15,3.01,6.87,5.09,10.65,7.11,2.29,1.21,4.59,2.41,6.79,3.78h0c1.23-1.57.48-3.25.24-4.91-.03-.18-.05-.36-.06-.53-.05-.61,0-1.21.29-1.79l-.15-.26c-.23-.21-.45-.42-.65-.66-.03-.03.19-.26.29-.39-.1-.29-.24-.55-.36-.82-1-2.34-2.51-4.27-4.23-5.98-.65-.63-1.31-1.26-2-1.84-.94-.79-1.89-1.55-2.86-2.33-.87-.68-1.89-1.24-2.76-1.94-.21-.18-.42-.36-.61-.57-.58-.6-1.03-1.31-1.21-2.28v-.02Z"/>
    <path class="cls-8" d="M491.2,111.2c-1-2.34-2.51-4.27-4.23-5.98,1.75,1.71,3.23,3.64,4.23,5.98Z"/>
    <path class="cls-8" d="M479.34,99.11c-.21-.18-.42-.36-.61-.57.19.19.4.39.61.57Z"/>
    <path class="cls-8" d="M491.83,115.67c.26,1.66.99,3.35-.24,4.91h0c1.23-1.57.48-3.25.24-4.91Z"/>
    <path class="cls-11" d="M253.07,157.53c.29-.69.31-1.33.16-1.91-.47-1.78-2.44-3.26-2.73-5.19-.1-.18-.19-.36-.29-.55-.03-.05-.06-.11-.08-.16-1.23-.26-2.51-.47-3.3-1.39-.26-.31-.47-.69-.61-1.2,0-.19,0-.4-.05-.6-2.63.87-5.27,1.75-7.9,2.62-3.35,1.1-6.82,2.52-6.08,6.77.69,3.99,1.97,8.21,7.56,7.87.78-.37,1.83-.53,2.26-1.13,3.38-4.72,6.43-5.17,9.36.39,1.13,2.15,2.59,1.96,4.14.42-1.99-1.5-3.8-2.78-2.42-5.96l-.02.02Z"/>
    <path class="cls-11" d="M238.26,149.18c2.63-.87,5.27-1.75,7.9-2.62h0c-2.63.87-5.27,1.76-7.9,2.62Z"/>
    <path class="cls-8" d="M520.7,172.42c.52.87,1.1,1.62,1.75,2.25.27.27.58.52.89.74.26.19.52.36.79.52.42.24.86.45,1.33.63.86.32,1.79.52,2.81.61.34.03.69.05,1.05.05s.73,0,1.12-.02c1.52-.08,3.2-.36,5.07-.82,2.89-.73,5.85-1.26,8.78-1.87.82-.57,1.71-.89,2.62-1.07.5-.1,1-.15,1.52-.16.45,0,.92,0,1.39.03.34-.13.63-.27.89-.44s.47-.34.65-.52c.68-.73.68-1.62.32-2.59-.18-.48-.45-.99-.76-1.49-.31-.47-.6-.92-.91-1.39v-.11c-1.08-.45-1.94-1.12-2.31-2.3-.57.32-1.13.84-1.7,1.08-.19.08-.37.13-.57.13-4.22.05-8.31.82-12.38,1.76-4.06.92-8.1,1.99-12.22,2.6-.03.79-.06,1.58-.1,2.38l-.03-.02Z"/>
    <path class="cls-8" d="M533,167.46c-4.06.92-8.1,1.99-12.22,2.6h0c4.12-.61,8.15-1.66,12.22-2.6Z"/>
    <path class="cls-12" d="M422.5,74.6c2.12-3.18,4.72-5.83,7.79-7.95,1.02-.71,2.1-1.36,3.22-1.96,1.05-.71,2.1-1.41,3.15-2.12-.42-.1-.84-.18-1.26-.26-1.26-.21-2.55-.34-3.83-.68-1.6-.44-3.2-.92-4.82-1.39-4.8-1.44-9.62-2.88-14.68-3.23,3.47,5.87,6.95,11.73,10.42,17.58Z"/>
    <path class="cls-12" d="M436.65,62.58c-.42-.1-.84-.18-1.26-.26.42.06.84.15,1.26.26h0Z"/>
    <path class="cls-12" d="M412.07,57.02c3.47,5.87,6.95,11.73,10.42,17.58h0c-3.47-5.87-6.95-11.72-10.42-17.58Z"/>
    <path class="cls-7" d="M503.53,147.5c.23,1.58.81,3.14,1.02,4.74.13.95.13,1.92-.15,2.93l.06.1c.48.1.74.34.74.71,0,.13-.03.27-.08.44.23.61.47,1.23.69,1.84.24.39.5.76.74,1.15,0,0,.02.03.03.05,1.03,1.47,2.07,2.96,3.1,4.43,2.33,0,4.23.76,5.72,2.25.5.5.95,1.08,1.36,1.75.97,1.57,1.75,1.79,1.91-.44-1.84-5.88-4.43-11.36-7.64-16.49-1.29-2.05-2.67-4.04-4.15-5.98-.74-.97-1.5-1.92-2.28-2.88-.26.42-.45.86-.6,1.29-.45,1.33-.52,2.72-.47,4.14l-.02-.02Z"/>
    <path class="cls-5" d="M302.78,183.81c2.21.47,2.13,2.31,2.72,4.01,1.76,5.2.84,11.43,6.29,16.29-1.02-9.33-2.33-17.89-.34-26.43-.4.19-.79.4-1.2.61-2.75,1.45-5.33,3.17-7.45,5.5l-.02.02Z"/>
    <path class="cls-12" d="M549.97,166.78c-.08-1.08,0-2.13.13-3.18.15-1.05.36-2.08.52-3.15.58-3.47,2.13-3.09,4.35-1.73.05-.13.1-.26.16-.39.58-1.18,1.81-2.02,2.54-3.3.06-.11.13-.24.18-.37.1-.21.18-.42.24-.65.08-.32.13-.66.15-1.03,0-.19,0-.39-.02-.6-5.24,3.36-5.59,1.03-4.11-3.28.16-.47.03-1.05.03-1.57h0c-3.22,1.03-7.01,1.71-7.35,5.88-.03.45-.08.92-.11,1.37-.08.92-.15,1.86-.18,2.8-.06,2.33.15,4.65,1.16,6.89h0c.37,1.16,1.24,1.84,2.31,2.3v.02Z"/>
    <path class="cls-12" d="M546.47,157.6c-.06,2.33.15,4.65,1.16,6.89h0c-1.02-2.23-1.23-4.56-1.16-6.89Z"/>
    <path class="cls-12" d="M554.09,149.11c.16-.47.03-1.05.03-1.57h0c0,.53.13,1.1-.03,1.57Z"/>
    <path class="cls-12" d="M558.08,154.04c.08-.32.13-.66.15-1.03,0,.37-.06.73-.15,1.03Z"/>
    <path class="cls-12" d="M555.12,158.34c-.06.13-.11.24-.16.39h0c.05-.13.1-.26.16-.39Z"/>
    <path class="cls-12" d="M557.64,155.06c.06-.11.13-.24.18-.37-.06.13-.11.24-.18.37Z"/>
    <path class="cls-8" d="M498.12,138.7c-.13.31-.24.6-.37.91-.84,2.15-1.68,4.4-3.78,5.79.34.32.68.66,1.02.99,1.68,1.62,3.35,3.23,5.03,4.85,1.16-1.24,2.34-2.49,3.51-3.75-.05-1.42.02-2.81.47-4.14.15-.44.36-.87.6-1.29-.84-1.44-1.66-2.88-2.51-4.32-1.55-.65-2.93-1.6-3.98.95l.02.02Z"/>
    <path class="cls-4" d="M445.59,21.66c.31-.36.6-.71.91-1.07.06-.58.23-1.12.45-1.62.11-.24.24-.48.37-.73.69-1.18,1.65-2.2,2.38-3.35h0c-5.35-5.03.13-9.66.82-14.9-.92,1.12-1.78,2.15-2.54,3.09-.52.63-.99,1.23-1.44,1.79-.66.84-1.24,1.62-1.76,2.34-.45.63-.82,1.21-1.16,1.76-.11.18-.21.34-.31.52-.27.5-.52.97-.69,1.42-.06.16-.13.32-.18.48,0,.05-.03.1-.05.15-1,3.09.21,5.53,3.2,10.12v-.02Z"/>
    <path class="cls-4" d="M442.39,11.54s.03-.1.05-.15c0,.05-.03.1-.05.15Z"/>
    <path class="cls-4" d="M442.62,10.91c.19-.45.42-.92.69-1.42-.27.5-.52.97-.69,1.42Z"/>
    <path class="cls-4" d="M443.62,8.97c.34-.55.71-1.13,1.16-1.76-.45.63-.82,1.21-1.16,1.76Z"/>
    <path class="cls-4" d="M446.56,4.88c.44-.57.92-1.16,1.44-1.79-.52.63-.99,1.23-1.44,1.79Z"/>
    <path class="cls-4" d="M447.32,18.25c.69-1.18,1.65-2.2,2.38-3.35h0c-.73,1.16-1.68,2.18-2.38,3.35Z"/>
    <path class="cls-4" d="M250.5,150.44c.29,1.92,2.26,3.41,2.73,5.19.16.6.15,1.23-.16,1.91-1.37,3.18.45,4.46,2.42,5.96,3.3-1.73,2.26-5.58,3.85-8.24.78-1.29-2.84-2.07-4.02-3.62-.86-1.13-1.89-2.1-2.84-3.15-.31,1-.68,1.97-1.99,1.96h.02Z"/>
    <path class="cls-4" d="M253.23,155.62c-.47-1.78-2.44-3.26-2.73-5.19h0c.29,1.92,2.26,3.39,2.73,5.19Z"/>
    <path class="cls-2" d="M437.98,32.19c3.56-.94,4.99-3.47,5.27-6.9-6.25.55-6.4-4.19-6.93-8.58-1.13,1.49-1.71,2.89-1.91,4.23-.05.34-.08.66-.08,1s0,.66.05.99c.32,3.23,2.44,6.19,3.6,9.28h0v-.02Z"/>
    <path class="cls-2" d="M434.37,22.92c-.03-.32-.05-.65-.05-.99,0,.32,0,.66.05.99Z"/>
    <path class="cls-2" d="M437.98,32.19c-1.16-3.09-3.28-6.03-3.6-9.28.32,3.23,2.44,6.19,3.6,9.28h0Z"/>
    <path class="cls-2" d="M514.76,171.53c.5.31,1.05.55,1.65.73s1.24.29,1.96.32,1.49,0,2.33-.15h0c.03-.79.06-1.58.1-2.38h0c-.69-.89-1.39-1.76-2.1-2.65-.16,2.23-.94,2-1.91.44-.4-.66-.86-1.24-1.36-1.75-1.49-1.49-3.39-2.25-5.72-2.25,1.2,3.17,2.57,6.16,5.06,7.68h0Z"/>
    <path class="cls-2" d="M520.7,172.42h0c.03-.79.06-1.58.1-2.38h0c-.03.79-.06,1.58-.1,2.38Z"/>
    <path class="cls-4" d="M348.86,46.48c-.03.61-.06,1.21-.08,1.83h0c7.22-1.81,14.61-.61,21.92-1.1h0c-.48-.69-.97-1.39-1.45-2.08l-.03-.02-.06-.03-.15-.08c-3.38.02-6.74.05-10.12.06-3.35.47-6.67.94-10.04,1.41l.02.02Z"/>
    <path class="cls-4" d="M369.16,45.09l.06.03s-.03-.02-.06-.03Z"/>
    <path class="cls-4" d="M370.7,47.23c-7.31.48-14.69-.73-21.92,1.1h0c7.22-1.81,14.61-.61,21.92-1.1h0Z"/>
    <path class="cls-4" d="M348.78,48.31c.03-.61.05-1.21.08-1.83-.03.61-.06,1.21-.1,1.83h.02Z"/>
    <path class="cls-2" d="M248.49,142.57h0c-.44.69-.87,1.39-1.29,2.07-.31.37-.6.73-.91,1.1.05.29,0,.57-.13.82h0c.03.19.05.4.05.6,1.5.55,3.91-.24,3.91,2.59.03.05.06.11.08.16.1.18.19.36.29.55h0c1.31.02,1.68-.94,1.99-1.96-.08-2.6-.16-5.2-.24-7.79-1.24.63-2.51,1.24-3.75,1.87v-.02Z"/>
    <path class="cls-2" d="M246.17,146.56h0c.13-.26.18-.53.13-.82.31-.37.6-.73.91-1.1-.31.37-.6.73-.91,1.1.05.29,0,.57-.13.82Z"/>
    <path class="cls-2" d="M246.3,145.73c.31-.37.6-.73.91-1.1.44-.69.86-1.39,1.29-2.07-.44.69-.87,1.39-1.29,2.07-.31.37-.6.73-.91,1.1Z"/>
    <path class="cls-2" d="M252.24,140.69c-1.24.63-2.51,1.24-3.75,1.87h0c1.24-.63,2.51-1.24,3.75-1.87Z"/>
    <path class="cls-2" d="M250.5,150.44h0c-.1-.18-.19-.36-.29-.55.1.18.19.37.29.55h0Z"/>
    <path class="cls-5" d="M309.49,92.35c-.61.05-1.24.19-1.87.4-.21.06-.42.15-.63.23-.63.24-1.28.57-1.92.91.39.23.79.4,1.2.53s.81.23,1.21.31c2.42.4,4.95-.26,7.4-.08-1.71-1.84-3.51-2.46-5.37-2.3h-.02Z"/>
    <path class="cls-5" d="M305.06,93.89c.39.23.79.4,1.2.53-.4-.13-.79-.31-1.2-.53h0Z"/>
    <path class="cls-5" d="M307.45,94.73c-.4-.06-.81-.16-1.21-.31.4.13.81.23,1.21.31Z"/>
    <path class="cls-2" d="M496.13,64.66c0,.71.24,1.39.76,2.02h0c.4-1.42.82-2.86,1.23-4.28-.6.32-1.21.63-1.81.95-.13.45-.19.89-.18,1.33v-.02Z"/>
    <path class="cls-2" d="M498.13,62.39h0c-.4,1.44-.82,2.86-1.23,4.28.4-1.42.82-2.86,1.23-4.28Z"/>
    <path class="cls-2" d="M496.13,64.66c0,.71.24,1.39.76,2.02h0c-.52-.63-.74-1.29-.76-2.02Z"/>
    <path class="cls-10" d="M298.6,92.9c.29.53.65.68,1.03.66.39,0,.81-.18,1.21-.27h0c-.48-1.65-1.2-1.99-2.25-.39Z"/>
    <path class="cls-10" d="M299.63,93.56c.39,0,.81-.18,1.21-.27h0c-.4.11-.82.27-1.21.27Z"/>
    <path class="cls-5" d="M316.65,174.26c-.55.34-1.1.68-1.65,1.02.78.03,1.42-.18,1.65-1.02Z"/>
    <path class="cls-5" d="M313.48,176.3c-.58.4-1.18.79-1.76,1.2.87.02,1.54-.27,1.76-1.2Z"/>
    <path class="cls-2" d="M491.26,112.41c.19.24.42.45.65.66-.11-.36-.24-.71-.36-1.07-.1.13-.32.36-.29.39v.02Z"/>
    <path class="cls-5" d="M575.66,164.68c-.66,0-1.33-.02-1.99-.03-2.1-.19-4.11-.45-6.27-.08-.31.05-.63.11-.94.19-2.44.61-6.09.47-3.8-4.14-.71-.03-1.41-.06-2.12-.1h0c-2.08.08-4.43.97-5.61-1.79h0c-2.21-1.36-3.77-1.75-4.35,1.73-.18,1.05-.39,2.1-.52,3.15-.15,1.05-.21,2.1-.13,3.18h0v.11c.31.47.6.92.91,1.39.31.52.58,1.02.76,1.5.36.97.36,1.84-.32,2.59-.18.18-.39.36-.65.52-.24.16-.55.31-.89.44h.08s-.03.03-.05.05c6.17,1.97,4.74,6.89,4.36,11.41,2.51-1.29,5.01-2.59,7.52-3.9,4.32-3.17,9.88-4.7,12.8-9.71.57-1.24,1.13-2.47,1.7-3.72-.18-.94-.36-1.86-.53-2.8h.03Z"/>
    <path class="cls-5" d="M560.55,160.52h0c-2.08.08-4.43.97-5.61-1.79h0c1.18,2.76,3.52,1.87,5.61,1.79Z"/>
    <path class="cls-5" d="M551.63,169.78c.36.97.36,1.84-.32,2.59.68-.73.68-1.62.32-2.59Z"/>
    <path class="cls-5" d="M550.66,172.89c.26-.16.47-.34.65-.52-.18.18-.39.36-.65.52Z"/>
    <path class="cls-5" d="M550.1,163.61c-.15,1.05-.21,2.1-.13,3.18h0c-.08-1.08,0-2.13.13-3.18Z"/>
    <path class="cls-4" d="M575.66,164.68c.18.94.36,1.86.53,2.78h0c.44-.23.87-.45,1.29-.69.08-.21.18-.4.27-.61.19-.4.44-.79.63-1.2.31-.6.57-1.21.63-1.89.03-.45,0-.92-.21-1.42h0c-1.05,1-2.12,2.02-3.17,3.02l.02.02Z"/>
    <path class="cls-4" d="M579.04,163.08c.03-.45,0-.92-.21-1.42h0c.19.5.24.97.21,1.42Z"/>
    <path class="cls-4" d="M577.51,166.78c.08-.21.18-.4.27-.61-.1.19-.19.4-.27.61h0Z"/>
    <path class="cls-4" d="M576.2,167.47h0c-.18-.92-.36-1.86-.53-2.78.18.94.36,1.86.53,2.8h0v-.02Z"/>
    <path class="cls-4" d="M576.2,167.47h0c.44-.23.87-.45,1.29-.69h0c-.44.23-.87.45-1.29.69Z"/>
    <path class="cls-4" d="M467.83,133.43c3.1-4.22,7.06-7.4,11.73-9.71,6.98-3.46,10.02-2.21,13.24,5.4h0c.36.03.71.03,1.05.05h0c.95.53,1.37,1.66,2.15,2.51.45.5,1.03.91,1.92,1,0-.32-.02-.65-.05-.95-.06-.55-.16-1.08-.31-1.58-.1-.34-.21-.68-.34-.99-.21-.53-.47-1.05-.76-1.54-1.42-2.47-3.56-4.54-4.88-7.01-2.2-1.37-4.51-2.55-6.79-3.78-3.78-2-7.5-4.09-10.65-7.11-.03-.03-.08-.06-.11-.1-7.06-.23-13.75,1.16-20.23,3.38-1.18.4-2.34.82-3.52,1.28-1.75.68-3.47,1.41-5.2,2.17-2.68,1.18-4.53,1.33-6.71-.6-5.72-5.03-10.54-10.34-11.46-18.59-.23-1.96-.42-3.94-.73-5.93-.52-3.3-1.31-6.56-2.94-9.58-1.65.63-3.1,1-4.44,1.07h0c-.63.03-1.23,0-1.81-.1-.44-.08-.86-.19-1.28-.34-.4-.15-.79-.34-1.2-.55-.39-.23-.78-.47-1.15-.76-1.68-1.31-3.31-3.38-5.11-6.3-1.89-3.09-3.25-6.74-7.21-8,.69,3.62,1.65,7.21,1.99,10.84.23,2.36,1.26,5.62-2.89,6.17-4.53.92-8.39-1.33-12.41-2.7-.21-.06-.42-.15-.63-.23-1.45-.57-2.84-1.29-4.51-1.08v8.63c.05,1.03.08,2.07.13,3.1.52.47.89.66,1.18.68.23,0,.4-.1.53-.27.1-.15.18-.32.24-.53.05-.15.08-.29.11-.45s.06-.32.1-.48c-.13-.08-.24-.16-.37-.24.15.06.27.13.42.19h0c.42.13.89.21,1.33.32s.86.24,1.2.5c11.77,8.58,25.39,13.72,38.01,20.72,9.5,5.25,17.57,12.25,21.95,22.64.15.34.29.68.45,1,.31.65.65,1.26,1.02,1.84,1.65,2.57,3.81,4.28,6.72,4.77,1.29.23,2.73.19,4.32-.1h0c2.63-2.89,5.25-5.79,7.87-8.66l.03.02Z"/>
    <path class="cls-4" d="M384.82,90.93c-.03.16-.06.31-.11.45.05-.15.08-.29.11-.45Z"/>
    <path class="cls-4" d="M383.93,92.19c.23,0,.4-.1.53-.27-.13.18-.31.29-.53.27Z"/>
    <path class="cls-4" d="M455.63,142.19c1.29.23,2.73.19,4.32-.1h0c-1.6.29-3.04.31-4.32.1Z"/>
    <path class="cls-4" d="M384.95,90.39h0c.42.13.89.21,1.33.32-.44-.11-.91-.19-1.33-.32h0Z"/>
    <path class="cls-4" d="M493.85,129.17h0c.95.53,1.39,1.66,2.15,2.51-.76-.84-1.2-1.96-2.15-2.51Z"/>
    <polygon class="cls-4" points="492.8 129.12 492.8 129.12 492.78 129.14 492.8 129.12 492.8 129.12"/>
    <path class="cls-4" d="M491.59,120.59h0c1.33,2.47,3.46,4.54,4.88,7.01-1.42-2.47-3.56-4.54-4.88-7.01Z"/>
    <path class="cls-4" d="M496.47,127.6c.29.5.53,1,.76,1.54-.21-.53-.47-1.05-.76-1.54Z"/>
    <path class="cls-4" d="M497.55,130.14c.15.5.26,1.03.31,1.58-.06-.55-.16-1.08-.31-1.58Z"/>
    <path class="cls-4" d="M474.15,109.71c3.15,3.01,6.87,5.09,10.65,7.11-3.78-2-7.5-4.09-10.65-7.11Z"/>
    <path class="cls-2" d="M377.23,75.49c2.12,1.03,3.9,2.49,5.41,4.27,1.65-.21,3.05.52,4.51,1.08.21.08.42.16.63.23,4.02,1.37,7.89,3.64,12.41,2.7-3.7-18.57-12.41-26.94-30.22-29.04-2.55,1.34-5.25,2.47-7.39,4.4-.71.65-1.37,1.36-1.94,2.21,1.07.86,2.17,1.66,3.28,2.46,4.83,3.43,9.96,6.53,13.32,11.69l-.02.02Z"/>
    <path class="cls-2" d="M369.97,54.74c-2.55,1.34-5.25,2.47-7.39,4.4,2.15-1.92,4.83-3.05,7.39-4.4h0Z"/>
    <path class="cls-6" d="M369.97,54.74h0c17.81,2.1,26.52,10.47,30.22,29.04,4.15-.53,3.1-3.81,2.89-6.17-.34-3.65-1.29-7.24-1.99-10.84-.1-.36-.18-.69-.27-1.05-.26-.32-.52-.65-.76-.97l-.21-.18c-.23-.02-.42-.06-.6-.11-1.05-.34-1.34-1.21-1.41-2.23,0-.18-.02-.34-.02-.52h0v-.36l-.02-.1c-1.41.03-2.12-.63-2.02-2.07-.32-.4-.66-.78-1-1.13-.86-.91-1.75-1.7-2.68-2.39-4.7-3.57-10.39-4.82-16.49-5.2-.65.13-1.26.31-1.83.52-1.73.66-3.12,1.76-3.8,3.78l-.03-.02Z"/>
    <path class="cls-6" d="M369.97,54.74c.68-2.02,2.07-3.12,3.8-3.78-1.73.66-3.12,1.76-3.8,3.78h0Z"/>
    <path class="cls-6" d="M392.08,55.65c.94.71,1.83,1.5,2.68,2.39-.86-.91-1.75-1.7-2.68-2.39Z"/>
    <path class="cls-4" d="M373.41,77.27c1.29-.44,2.57-1.02,3.81-1.78-3.36-5.17-8.47-8.26-13.32-11.69-1.12-.79-2.21-1.6-3.28-2.46-6.3,3.9-6.71,5.53-2.23,10.6,1.45,1.65,1.75,3.39,1.75,5.37.37.1.76.21,1.13.31,4.17.89,8.24.95,12.11-.36h.03Z"/>
    <path class="cls-4" d="M363.91,63.79c4.83,3.43,9.96,6.53,13.32,11.69h0c-3.36-5.17-8.47-8.26-13.32-11.69Z"/>
    <path class="cls-2" d="M382.62,88.41h0c-1.94-.58-3.85-1.23-5.71-1.96-5.59-2.18-10.81-5.07-15.63-8.81h0c-.37-.1-.76-.21-1.13-.31-.44.26-1.26.71-1.24.74,1.86,3.73,3.54,7.6,5.79,11.1,1.42,2.23,4.32.73,6.45,1.41,1.89.61,3.83.78,5.77.82s3.9-.03,5.83.13c-.05-1.03-.08-2.07-.13-3.1v-.03Z"/>
    <path class="cls-2" d="M361.31,77.63h0c-.37-.1-.76-.21-1.13-.31.37.1.76.21,1.13.31h0Z"/>
    <path class="cls-4" d="M460.33,150.55c.76-.23,1.57-.39,2.33-.63.57-.19,1.12-.44,1.6-.79.16-.13.32-.26.47-.42h0c.19-.4.42-.68.66-.81.32-.18.68-.1,1.08.21.1.08.19.18.31.27.1.03.19.06.29.1l.78.26c1.89-2.54,4.51-2.96,7.19-3.25,2.08-.23,4.19-.37,6-1.39-.34-1.54-1.24-2.86-2.63-2.89-.19,0-.4.02-.63.06-.71.18-1.42.29-2.13.39-5.01.66-10.2-.23-15.03,1.71h0c.16.76,2.02,1.24.34,2.31-1.05.68-1.45,1.45-1.47,2.26,0,.82.37,1.7.89,2.57h0l-.03.03Z"/>
    <path class="cls-4" d="M460.33,150.55c-.52-.89-.91-1.76-.89-2.57,0,.82.37,1.7.89,2.57h0Z"/>
    <path class="cls-4" d="M475.62,141.68c-5.01.66-10.2-.23-15.05,1.71h0c4.83-1.94,10.02-1.05,15.03-1.71h.02Z"/>
    <path class="cls-4" d="M466.78,148.38h0c.1.03.19.06.29.1-.1-.03-.19-.06-.29-.1h0Z"/>
    <path class="cls-4" d="M464.73,148.71c-.15.16-.31.29-.47.42.16-.13.32-.26.47-.42h0Z"/>
    <path class="cls-4" d="M464.26,149.11c-.48.37-1.03.61-1.6.79.57-.19,1.12-.44,1.6-.79Z"/>
    <path class="cls-9" d="M341.85,232.69c-1,2.46-1,5.04-1.05,7.61-.03,1.54-.06,3.09-.36,4.59-.89,4.77-2.78,9.18-5.04,13.43,9.94,1.71,19.81,3.54,29.54,6.37,11.77,3.41,23.73,6.25,35.69,8.95,11.75,2.65,23.68,4.14,35.69,5.3,5.88.57,12.02.79,17.63,3.25.37.06.74.15,1.12.21h4.19c.45-.06.89-.11,1.28,0,.15.03.27.1.4.19.21.15.4.34.55.66,1.76.08,3.52.16,5.3.26,2.13.18,4.2.52,6.17,1.08,3.3.95,6.32,2.54,8.97,5.07,1.7-1.16,3.54-1.08,5.38-.97,1.1.06,2.21.16,3.28,0,.08-1.18-.19-2.44.89-3.36-.16-2.02.13-4.09.11-6.14,0-.68-.05-1.36-.16-2.02-.15-.89-.42-1.78-.87-2.65h0c-.81-.57-1.6-1.12-2.41-1.68-3.36-1.71-7.11-2.62-10.26-4.75-.45-.31-.89-.63-1.31-.99-15.05,1.91-27.25-4.43-37.98-13.85-8.71-7.66-15.35-17.49-24.7-24.61-3.39-2.59-6.34-5.75-9.5-8.65-1.83-1.13-3.67-2.28-5.5-3.41h0c-3.62-1.81-7.24-3.64-10.86-5.45-10.42,10.76-23.31,19.01-32.21,31.32-2.34-.82-3.93-2.47-5.45-4.25-.5-.6-1-1.2-1.52-1.79-.65-.76-1.26-1.71-1.96-2.52-1.16-1.34-2.62-2.28-5.04-1.16l-.02-.05Z"/>
    <path class="cls-2" d="M307.73,231.49h0c3.18,2.17,6.98.36,10.31,1.57.18-.03.34-.1.52-.11,8.92-.81,8.89-.82,9.24-9.71.06-1.66-.63-3.85,1.76-4.48,2.34-.61,4.3.44,5.38,2.47,1.41,2.65,2.49,5.48,3.7,8.23,1.63.65,2.57.27,3.25-.55.23-.27.42-.58.61-.94.24-.45.47-.95.69-1.44,3.35-7.1,1.34-14.25.29-21.38-.31-2.05-1.52-4.11.63-5.85-5.48-6.04-11.46-11.56-17.49-17.05-.86-.78-1.71-1.57-2.59-2.34-1.78-1.62-2.86-1.92-3.88.55-3.78,9.18-6.59,18.47-4.14,28.61.87,3.62,4.14,7.52,2.6,10.6-1.1,2.2-3.94,2.17-6.69,2.52-.74.1-1.49.23-2.18.42-.47.13-.91.31-1.31.53-.24,2.78-.5,5.56-.74,8.34l.02.02Z"/>
    <path class="cls-2" d="M307.73,231.49h0c3.18,2.17,6.98.36,10.33,1.58h0c-3.33-1.23-7.13.58-10.31-1.58h-.02Z"/>
    <path class="cls-4" d="M344.13,199.29c-2.15,1.75-.92,3.8-.63,5.85,1.05,7.13,3.05,14.29-.29,21.38-.23.48-.45.99-.69,1.44-.18.34-.39.66-.61.94-.68.81-1.63,1.2-3.25.55.05,1.28.76,1.92,1.6,2.41.52.29,1.08.53,1.58.82,2.44-1.12,3.88-.18,5.04,1.16.69.81,1.29,1.76,1.96,2.52.52.6,1.02,1.21,1.52,1.79,1.52,1.78,3.12,3.41,5.45,4.23-.1-7.81,1.36-15.5,1.2-23.35-.03-1.78-.27-3.43-.68-4.93-1.75-6.56-6.63-10.86-12.22-14.85l.03.03Z"/>
    <path class="cls-2" d="M398.9,216.56c2.91-1.2,5.82-1.6,8.74-1.34,1.76.16,3.52.58,5.3,1.21,1.41.5,2.65.91,3.3,2.33.65,0,1.31,0,1.96.02.23-1.18.79-2.13,1.89-2.73-10.23-4.11-21.16-5.14-31.86-7.24-.06.76-.15,1.52-.21,2.28,3.62,1.83,7.24,3.64,10.86,5.45l.02.03Z"/>
    <path class="cls-2" d="M398.9,216.56h0c-3.62-1.81-7.24-3.64-10.86-5.45,3.62,1.83,7.24,3.64,10.86,5.45h0Z"/>
    <path class="cls-11" d="M307.73,231.49c.24-2.78.5-5.56.74-8.34h0c-.69-.55-1.37-1.12-2.07-1.66-1.33-1.05-2.25-3.22-4.33-2.41-1.87.74-.92,2.8-1.24,4.27-.34,1.55-.69,3.09-1.05,4.64-.36,1.54-.71,3.09-1.07,4.62h0c3.01-.37,6.01-.74,9.02-1.12h0Z"/>
    <path class="cls-11" d="M308.47,223.13c-.69-.55-1.37-1.12-2.07-1.66.69.55,1.37,1.12,2.07,1.66h0Z"/>
    <path class="cls-11" d="M299.78,227.98c-.36,1.54-.71,3.09-1.07,4.62h0c.36-1.55.71-3.09,1.07-4.62Z"/>
    <path class="cls-11" d="M355.33,150.03c-1.97-4.57-3.81-9.21-5.75-13.8-.86,5.3,1.58,9.76,2.88,14.38.86,3.07,1.89,6.87,5.27,8.79.44-.4.87-.82,1.31-1.23-.44-.89-.87-1.79-1.29-2.7-.84-1.81-1.65-3.62-2.42-5.45h.02Z"/>
    <path class="cls-11" d="M359.04,158.18h0c-.44.4-.87.82-1.31,1.23.44-.4.87-.82,1.31-1.23Z"/>
    <path class="cls-10" d="M394.71,190.71c1.44-2.02,2.89-4.04,4.33-6.06.45-.47.92-.94,1.37-1.41l.08.03s.08.03.08.02c-13.95-15.68-23.35-34.39-34.26-52.09,1.13,8.63,3.38,16.73,6.5,24.37,5.2,12.75,12.85,24.29,21.92,35.15h0l-.02-.02Z"/>
    <path class="cls-10" d="M394.71,190.71c-9.07-10.86-16.71-22.4-21.92-35.15,5.2,12.75,12.85,24.29,21.92,35.15h0Z"/>
    <path class="cls-10" d="M399.04,184.65c.45-.47.92-.94,1.37-1.41,0,0,.03,0,.08.03l-.08-.03c-.45.47-.92.94-1.37,1.41Z"/>
    <path class="cls-11" d="M461.88,86.84c2.38,1.84,4.7,3.73,7.06,5.59h0c.03.65,0,1.33.15,1.94.05.23.13.44.26.63.15.24.37.48.68.68h0c1.39-1.83,2.83-.6,4.25-.18.32.1.66.15.99.11.68-10.07.65-19.86-6.67-28.14-1.83-2.07-2.05-5.27-1.66-8.19.29-2.18.23-4.28-.08-6.34-.52-3.41-1.75-6.69-3.2-9.92h0c-1.63.24-2.25,1-1.18,2.49,1.24,1.75,1.79,3.46.02,5.2.71,1.83,1.1,3.62,1.23,5.41.27,3.93-.74,7.76-2.44,11.54-.26,1.2-.63,2.55-1.5,3.22-.29.23-.65.36-1.07.39-1.79.11-2.21-1.97-2.89-3.36-.32,0-.65-.06-.95-.15-.71.84-1.44,1.68-2.15,2.52-.29,7.37,3.78,12.33,9.2,16.55h-.02Z"/>
    <path class="cls-11" d="M466.81,52.95c-.52-3.41-1.75-6.69-3.2-9.92h0c1.45,3.23,2.68,6.5,3.2,9.92Z"/>
    <path class="cls-11" d="M470.01,95.68h0c1.39-1.83,2.83-.58,4.25-.18-1.42-.4-2.86-1.65-4.25.18Z"/>
    <path class="cls-5" d="M474.2,57.07c-1.49.03-3.47-.44-3.22,1.57.03.29.11.63.26,1.02,2.25,6.51,6.64,11.36,12.25,15.11,1.49.99,3.49.97,5.04-.36,1.24-1.07,1.15-2.6.84-4.01-.06-.31-.16-.61-.29-.95-.21-.52-.5-1.07-.84-1.63-.44-.71-.97-1.45-1.57-2.2-3.38-4.12-9.02-8.26-12.48-8.55h0Z"/>
    <path class="cls-5" d="M486.67,65.62c.61.74,1.13,1.49,1.57,2.2-.44-.71-.97-1.45-1.57-2.2Z"/>
    <path class="cls-9" d="M450.7,100.12c5.67-3.52,11.52-6.66,18.26-7.69h0c-2.36-1.87-4.7-3.75-7.06-5.59-5.41-4.22-9.49-9.16-9.2-16.55-2.88-2.12-2.81-6.92-7.39-8.18v5.67c0,3.75.05,7.48.03,11.23-.03,7.5.08,14.95,5.37,21.11h-.02Z"/>
    <path class="cls-8" d="M453.98,44.06c-.03.45-.06.89-.08,1.34l.13.45c1.81.76,2.6,2.25,3.28,3.8.21.48.42.97.63,1.44.13.29.27.57.42.86.71,1.37,1.44,2.73,2.15,4.09.32.34.57.66.73,1,.32.68.34,1.36.03,2.04-.15.34-.39.69-.69,1.03-.08.74-.16,1.5-.24,2.25,1.2.82.68,1.94.36,3.02-.06.24-.13.48-.16.71-.06.58.06,1.13.71,1.58h0c1.7-3.78,2.72-7.61,2.44-11.54-.13-1.78-.52-3.59-1.23-5.41v-.08l-.03-.08c-.15-.21-.29-.42-.44-.61-.1-.13-.19-.27-.29-.4-1.21-1.47-2.42-2.93-3.64-4.4-.81,0-1.65.06-1.96-.95l-.08-.03c-.39-.15-.78-.29-1.18-.45-.31.05-.6.16-.87.32l.02.03Z"/>
    <polygon class="cls-8" points="456.1 44.2 456.02 44.17 456.1 44.2 456.1 44.2"/>
    <path class="cls-8" d="M461.69,49.55c-1.21-1.47-2.42-2.93-3.64-4.4,1.21,1.47,2.42,2.93,3.64,4.4h0Z"/>
    <path class="cls-8" d="M462.43,50.65l-.02-.08c-.15-.21-.29-.42-.44-.61.15.21.29.42.44.61v.08h.02Z"/>
    <path class="cls-8" d="M461.25,67.67h0c1.7-3.78,2.72-7.61,2.44-11.54.27,3.93-.74,7.76-2.44,11.54Z"/>
    <path class="cls-4" d="M460.57,60.12c-.03-1.36-.05-2.72-.08-4.09-.71-1.36-1.44-2.73-2.15-4.09-.02,3.33-3.39,4.62-4.44,7.34.31,2.83.61,5.66.92,8.5.31.08.63.13.95.15,1.52-1.84,3.02-3.7,4.54-5.54.08-.74.16-1.5.24-2.25l.02-.02Z"/>
    <path class="cls-4" d="M460.33,62.35c.08-.74.16-1.5.24-2.25-.08.74-.16,1.5-.24,2.25h0Z"/>
    <path class="cls-4" d="M460.51,56.03c-.71-1.36-1.44-2.73-2.15-4.09.71,1.36,1.44,2.73,2.15,4.09h0Z"/>
    <path class="cls-12" d="M458.36,51.94c-.15-.27-.29-.57-.42-.86-.21-.47-.42-.95-.63-1.44-.68-1.55-1.47-3.04-3.28-3.8-.03,4.48-.08,8.95-.11,13.41,1.05-2.7,4.43-4.01,4.44-7.34v.02Z"/>
    <path class="cls-12" d="M457.94,51.09c-.21-.47-.42-.95-.63-1.44.21.48.42.97.63,1.44Z"/>
    <path class="cls-11" d="M456.1,44.2h0c.31,1.02,1.15.94,1.96.95-.15-.32-.34-.53-.57-.68-.39-.24-.87-.29-1.37-.27h-.02Z"/>
    <path class="cls-11" d="M456.1,44.2c.52-.02,1,.02,1.37.27-.39-.24-.87-.29-1.37-.27h0Z"/>
    <path class="cls-12" d="M453.88,45.4c.03-.45.05-.91.08-1.34-.23.1-.39.18-.5.29,0,0-.02,0-.03.02-.03.03-.03.05-.05.08s-.05.05-.06.08,0,.06,0,.08v.08c.02.23.26.47.57.71h0Z"/>
    <path class="cls-12" d="M453.35,44.53s.03-.05.06-.08c-.02.03-.05.05-.06.08Z"/>
    <path class="cls-12" d="M453.45,44.36s.02,0,.03-.02c0,0-.02,0-.03.02Z"/>
    <path class="cls-12" d="M454.85,43.73c.39.15.78.29,1.18.45-.03-.19-.1-.34-.16-.45-.21-.34-.55-.34-1.02,0Z"/>
    <path class="cls-9" d="M490.99,163.74c-1.45,3.9-2.78,7.68-2.62,11.86.37.37.74.74,1.1,1.12h-.05l-.26.03c.65.06,1.23.15.5.94h0c1.03,1.7,2.07,3.38,3.1,5.07,2.12,3.46,4.25,6.92,6.32,10.41,1.6,2.68,3.75,3.56,6.95,3.93,5.53.65,10.86.55,16.02-.15,11.36-1.55,21.93-6.06,32.11-12.2.39-4.51,1.83-9.44-4.36-11.41-1.55,1.83-3.69.86-5.56,1.13-2.93.61-5.88,1.15-8.78,1.87-1.86.47-3.54.74-5.07.82-.39.02-.74.03-1.12.02s-.71-.02-1.05-.05c-1.02-.1-1.96-.29-2.81-.61-.47-.18-.91-.39-1.33-.63-.27-.16-.53-.32-.79-.52-.31-.23-.61-.47-.89-.74-.65-.63-1.23-1.37-1.75-2.25-.84.13-1.62.18-2.33.15-.71-.03-1.36-.15-1.96-.32s-1.15-.42-1.65-.73c-2.49-1.52-3.86-4.49-5.06-7.68h0c-1.03-1.47-2.07-2.96-3.1-4.43,0,0-.02-.03-.03-.05-.24-.39-.5-.76-.74-1.15-.23-.61-.45-1.23-.69-1.84-.23-.39-.44-.76-.66-1.15h0l-.06-.1c-1.63-1.12-4.35-1-4.4-3.91h0c-1.66-1.62-3.35-3.23-5.01-4.85-.34-.32-.68-.66-1.02-.99-2.04-.97-4.15-1.54-6.43-1.16,2.42,6.29,6.08,12.48,3.44,19.51l.03.05Z"/>
    <path class="cls-9" d="M523.33,175.41c.26.19.52.36.79.52-.27-.16-.53-.32-.79-.52Z"/>
    <path class="cls-9" d="M529.31,177.22c-.36,0-.71-.02-1.05-.05.34.03.69.05,1.05.05Z"/>
    <path class="cls-9" d="M522.44,174.66c-.65-.63-1.23-1.37-1.75-2.25h0c.52.87,1.1,1.62,1.75,2.25Z"/>
    <polygon class="cls-9" points="504.47 155.25 504.47 155.25 504.4 155.16 504.47 155.25 504.47 155.25"/>
    <path class="cls-9" d="M509.71,163.85c-1.03-1.47-2.07-2.96-3.1-4.43,0,0-.02-.03-.03-.05,0,0,.02.03.03.05,1.03,1.47,2.07,2.96,3.1,4.43Z"/>
    <path class="cls-9" d="M500.01,151.24h0c-1.68-1.62-3.35-3.23-5.03-4.85,1.68,1.62,3.35,3.23,5.01,4.85h.02Z"/>
    <path class="cls-9" d="M509.71,163.85h0c1.2,3.17,2.57,6.16,5.06,7.68-2.49-1.52-3.86-4.49-5.06-7.68Z"/>
    <path class="cls-9" d="M518.37,172.56c-.71-.03-1.36-.15-1.96-.32.6.18,1.24.29,1.96.32Z"/>
    <path class="cls-9" d="M489.18,176.76l.26-.03c-.08,0-.26.03-.26.03Z"/>
    <path class="cls-9" d="M499.1,193.19c-2.08-3.49-4.2-6.95-6.32-10.41,2.12,3.46,4.25,6.92,6.32,10.41Z"/>
    <path class="cls-5" d="M475.02,145.48c-2.67.29-5.3.71-7.19,3.25,6.84,8.95,13.66,17.91,20.49,26.86v-.05s.05.05.06.06c-.15-4.19,1.16-7.98,2.62-11.86,2.63-7.03-1.02-13.22-3.44-19.51-2.18-.05-4.36-.1-6.55-.13-1.81,1-3.91,1.15-6,1.39v-.02Z"/>
    <path class="cls-8" d="M479.56,123.72c-4.67,2.31-8.63,5.5-11.73,9.71,1.49,1.68,3.36,1.45,4.8.34,2.26-1.75,4.69-2.76,7.21-3.38,1.26-.31,2.54-.52,3.83-.66,3.01-.34,6.09-.37,9.13-.6-3.22-7.61-6.25-8.86-13.24-5.4v-.02Z"/>
    <path class="cls-8" d="M483.67,129.73c3.01-.34,6.09-.37,9.13-.6h0c-3.04.23-6.13.26-9.13.6Z"/>
    <path class="cls-8" d="M492.78,129.14c.13.24.26.39.39.44.18.08.37-.03.57-.26.03-.05.06-.08.11-.15-.36,0-.71-.02-1.05-.03h-.02Z"/>
    <path class="cls-8" d="M493.17,129.57c.18.08.37-.03.57-.26-.19.24-.39.34-.57.26Z"/>
    <path class="cls-5" d="M423.25,81.75h0c1.63,3.02,2.42,6.29,2.94,9.58.31,1.97.5,3.96.73,5.93.92,8.23,5.74,13.54,11.46,18.59,2.18,1.92,4.02,1.78,6.71.6,1.73-.76,3.46-1.49,5.2-2.17,1.16-.45,2.34-.87,3.52-1.28,6.48-2.21,13.19-3.6,20.23-3.38h0c-.11-1.23-.27-2.44-.5-3.62-.65-3.59-1.79-7.03-3.52-10.3-.31-.19-.52-.44-.68-.68-.13-.19-.19-.42-.26-.63-.16-.61-.11-1.28-.15-1.94-6.74,1.02-12.57,4.15-18.26,7.69-1.02,3.75-2.72,5.67-6.08,1.97-3.01-3.35-5.62-6.8-7.69-10.42-1.07-1.89-1.97-3.85-2.72-5.83-2.38-6.42-2.91-13.37-.71-21.14-1.13.6-2.2,1.24-3.22,1.96-3.07,2.13-5.67,4.77-7.79,7.95.26,1.75.52,3.49.78,5.24v1.89h0v-.02Z"/>
    <path class="cls-5" d="M436.93,91.66c-1.07-1.89-1.97-3.85-2.72-5.83.74,1.99,1.63,3.94,2.72,5.83Z"/>
    <path class="cls-5" d="M430.29,66.65c-3.07,2.13-5.67,4.77-7.79,7.95h0c2.12-3.18,4.72-5.83,7.79-7.95Z"/>
    <path class="cls-5" d="M453.8,112.97c6.48-2.21,13.19-3.6,20.23-3.38h0c-7.06-.23-13.75,1.16-20.23,3.38Z"/>
    <path class="cls-5" d="M423.25,81.75c1.63,3.02,2.42,6.29,2.94,9.58-.52-3.3-1.31-6.56-2.94-9.58h0Z"/>
    <path class="cls-5" d="M453.8,112.97c-1.18.4-2.34.82-3.52,1.28,1.16-.45,2.34-.87,3.52-1.28Z"/>
    <path class="cls-5" d="M468.95,92.43c.03.65,0,1.33.15,1.94-.16-.61-.11-1.29-.15-1.94h0Z"/>
    <path class="cls-2" d="M400.05,64.75c.26.32.52.65.76.97.1.36.18.69.27,1.05,3.96,1.26,5.32,4.91,7.21,8,1.79,2.91,3.43,4.98,5.11,6.3.37.29.76.53,1.15.76.39.23.79.4,1.2.55.42.15.84.27,1.28.34.58.1,1.18.13,1.81.1h0c1.34-.06,2.8-.44,4.44-1.07v-1.89c-6.21.68-8.91-4.02-12.57-7.68-3.73-3.7-5.25-10.02-11.78-10.65.31,1.02.61,2.04.94,3.05l.21.18-.02-.02Z"/>
    <path class="cls-2" d="M417,82.72c-.44-.08-.86-.19-1.28-.34.42.15.84.27,1.28.34Z"/>
    <path class="cls-2" d="M414.54,81.81c-.39-.23-.78-.47-1.15-.76.37.29.76.53,1.15.76Z"/>
    <path class="cls-4" d="M397.83,62.22c.06,1.02.36,1.91,1.41,2.23.18.05.37.1.6.11h0c-.31-1.02-.61-2.04-.94-3.05-.37.06-.73.11-1.1.18,0,.18,0,.36.02.52l.02.02Z"/>
    <path class="cls-4" d="M398.9,61.53c-.37.06-.73.11-1.1.18h0c.37-.06.73-.11,1.1-.18Z"/>
    <path class="cls-4" d="M399.24,64.45c.18.05.37.1.6.11h0c-.23-.02-.42-.06-.6-.11Z"/>
    <path class="cls-2" d="M397.78,61.25c0-.52-.1-.92-.31-1.23-.06-.1-.15-.19-.23-.27-.36-.34-.86-.52-1.49-.57h0c-.1,1.44.61,2.1,2.02,2.07Z"/>
    <path class="cls-2" d="M397.25,59.75c-.36-.34-.86-.52-1.5-.57h0c.63.05,1.15.23,1.49.57h.02Z"/>
    <path class="cls-12" d="M562.67,160.62c2.15-1.36,3.09-3.23,3.25-6.43-.76.5-1.37,1.02-1.91,1.57-1.58,1.62-2.34,3.35-3.46,4.77.71.03,1.41.06,2.12.1Z"/>
    <path class="cls-12" d="M569.23,147.51l.06.06c.06-.15.13-.29.18-.44-.08.13-.16.24-.24.37h0Z"/>
    <path class="cls-12" d="M569.23,147.51h0c.08-.13.16-.24.24-.37-.08.13-.16.24-.24.37h0Z"/>
    <path class="cls-12" d="M569.02,147.96c.08-.13.18-.26.26-.39,0,0-.05-.05-.06-.06-.06.15-.13.31-.21.45h.02Z"/>
    <path class="cls-12" d="M569.23,147.51h0c-.06.15-.13.31-.21.45.06-.15.13-.31.21-.45Z"/>
    <polygon class="cls-12" points="569.23 147.51 569.28 147.56 569.23 147.51 569.23 147.51"/>
    <path class="cls-4" d="M250.13,149.73c0-2.83-2.41-2.02-3.91-2.59.15.5.36.89.61,1.2.79.92,2.07,1.13,3.3,1.39Z"/>
    <path class="cls-5" d="M549.82,173.37s-.05-.02-.08-.03c.02,0,.03,0,.05-.02-.47-.03-.92-.05-1.39-.03-.52,0-1.02.06-1.52.16-.91.18-1.79.5-2.62,1.07,1.87-.29,4.01.69,5.56-1.13v-.02Z"/>
    <path class="cls-5" d="M546.89,173.44c.5-.1,1-.15,1.52-.16-.52,0-1.02.06-1.52.16Z"/>
    <path class="cls-5" d="M549.87,173.32h-.08s-.03,0-.05.02h.13v-.02Z"/>
    <path class="cls-5" d="M549.82,173.37s.03-.03.05-.05h-.13s.06.03.08.05Z"/>
    <path class="cls-1" d="M504.4,155.16c.27-1,.27-1.97.15-2.93-.21-1.58-.79-3.14-1.02-4.74-1.16,1.24-2.34,2.51-3.51,3.75.03,2.91,2.76,2.8,4.4,3.91h-.02Z"/>
    <path class="cls-1" d="M503.53,147.5c-1.16,1.24-2.34,2.51-3.51,3.75h0c1.16-1.24,2.34-2.49,3.51-3.75Z"/>
    <path class="cls-1" d="M504.47,155.25c.23.39.44.76.66,1.15.05-.16.08-.31.08-.44,0-.39-.26-.61-.74-.71h0Z"/>
    <path class="cls-1" d="M505.21,155.96c0-.39-.26-.61-.74-.71h0c.48.1.74.34.74.71Z"/>
    <path class="cls-8" d="M418.2,218.77l.06-.03c1.23-.05,1.94.5,2.17,1.55.03.15.05.31.06.48.37.19.74.39,1.1.61,2.51,1.5,4.77,3.47,7.69,4.22.73-.36,1.28-.24,1.63.39.05.1.1.19.15.31l.21.1c.34.27.66.53,1,.81.02.02.05.03.06.06l.05.03c.37.34.74.66,1.12,1v-.02h0c.65,0,1.23.05,1.76.19s1.02.36,1.44.65c.86.58,1.5,1.49,1.94,2.7.39.37.78.76,1.16,1.13.36.29.69.57,1.05.86,1.08.78,2.17,1.55,3.25,2.33.39.27.79.57,1.18.84,0,0,.02.02.03.03h0c.36.34.71.68,1.07,1.03h.02c4.04,2.62,8.26,4.95,12.49,7.24,2.12,1.15,4.23,2.31,6.32,3.49,1.39.79,2.78,1.6,4.15,2.42,3.43,2.07,6.77,4.3,9.91,6.85,4.7,3.83,7.94,8.65,8.87,14.8.81.57,1.6,1.12,2.41,1.68.58.32,1.18.63,1.78.92.6.29,1.2.57,1.79.82,1.21.52,2.44,1,3.67,1.42,7.43,2.6,15.31,3.75,22.79,6.17,0-.71-.03-1.42-.05-2.13,0-.52-.02-1.05-.03-1.57h0c-.53-3.35-2.54-5.46-5.25-7.45-2.89-2.12-5.82-4.19-8.76-6.25-1.47-1.03-2.93-2.07-4.4-3.1-7.32-5.19-14.56-10.46-21.33-16.37h0c-6.66-4.19-13.08-8.79-20.27-12.02-7.1-3.17-14.04-6.56-20.8-10.42-1.55-.89-3.1-1.76-4.67-2.6-4.72-2.52-9.63-4.7-14.93-5.87-1.1.58-1.66,1.54-1.89,2.73v-.05Z"/>
    <path class="cls-8" d="M520.55,281.71c0-.52-.02-1.03-.03-1.57h0c0,.52.02,1.05.03,1.57Z"/>
    <path class="cls-8" d="M502.11,263.35c-7.32-5.19-14.56-10.46-21.33-16.37h0c6.77,5.92,14.01,11.18,21.33,16.37Z"/>
    <path class="cls-8" d="M506.51,266.45c2.93,2.07,5.85,4.14,8.76,6.25-2.89-2.12-5.82-4.19-8.76-6.25Z"/>
    <path class="cls-8" d="M420.09,216.05c-1.1.58-1.66,1.54-1.89,2.73h0c.23-1.18.79-2.13,1.89-2.73Z"/>
    <path class="cls-4" d="M497.81,277.68c-1.24-.44-2.46-.91-3.67-1.42-.6-.26-1.21-.53-1.79-.82-.6-.29-1.18-.6-1.78-.92.45.87.73,1.75.87,2.65.11.68.16,1.34.16,2.02.03,2.04-.27,4.11-.11,6.14,3.59,1.6,7.5,3.85,11.14,1.41,3.62-2.42,7.03-1.91,10.55-1.02.61.15,1.23.29,1.84.39,1.84.32,3.67.45,5.54.45h0c0-.89.02-1.79.02-2.7-7.48-2.41-15.37-3.57-22.79-6.17h.02Z"/>
    <path class="cls-4" d="M491.43,277.15c-.15-.89-.42-1.78-.87-2.65h0c.45.87.73,1.75.87,2.65Z"/>
    <path class="cls-4" d="M491.43,277.15c.11.68.16,1.34.16,2.02,0-.68-.05-1.36-.16-2.02Z"/>
    <path class="cls-4" d="M520.58,286.54c-1.87,0-3.7-.13-5.54-.45,1.84.32,3.67.45,5.54.45h0Z"/>
    <path class="cls-12" d="M466.47,148.11c-.4-.31-.76-.39-1.08-.21-.24.13-.47.4-.66.81.68-.11,1.37-.21,2.05-.32-.1-.11-.21-.19-.31-.27h0Z"/>
    <path class="cls-12" d="M464.73,148.71h0c.68-.11,1.37-.21,2.05-.32h0c-.68.11-1.37.21-2.05.32Z"/>
    <path class="cls-12" d="M466.47,148.11c-.4-.31-.76-.39-1.08-.21.32-.18.68-.1,1.08.21Z"/>
    <path class="cls-12" d="M466.78,148.38c-.1-.11-.21-.19-.31-.27.1.08.19.18.31.27h0Z"/>
    <path class="cls-5" d="M489.47,176.72c-.37-.37-.74-.74-1.1-1.12v.05h0s-.03-.05-.05-.06c.03.15.06.27.11.4.16.44.4.76,1.03.73Z"/>
    <path class="cls-5" d="M488.37,175.65s-.03-.05-.05-.06h0l.05.06h0Z"/>
    <path class="cls-5" d="M488.44,176.01c.16.44.4.76,1.03.73h0c-.63.03-.89-.29-1.03-.73Z"/>
    <polygon class="cls-5" points="488.37 175.65 488.31 175.55 488.37 175.65 488.37 175.65"/>
    <path class="cls-5" d="M488.31,175.55v.05s.03.05.05.06l-.06-.11h.02Z"/>
    <path class="cls-5" d="M488.37,175.62s-.05-.05-.06-.06l.06.11v-.05Z"/>
    <path class="cls-5" d="M489.18,176.76c.16.31.34.63.5.94.73-.79.15-.87-.5-.94Z"/>
    <path class="cls-5" d="M489.18,176.76c.16.31.34.63.5.94h0c-.16-.31-.34-.63-.5-.94Z"/>
    <path class="cls-6" d="M377.23,75.49h0c-1.24.76-2.52,1.34-3.81,1.78-3.88,1.31-7.94,1.24-12.11.36,4.8,3.73,10.04,6.63,15.63,8.81,1.86.73,3.77,1.39,5.71,1.96v-8.63h0c-1.52-1.78-3.3-3.23-5.41-4.27h0Z"/>
    <path class="cls-6" d="M382.64,79.76c-1.52-1.78-3.3-3.23-5.41-4.27h0c2.12,1.03,3.9,2.49,5.41,4.27Z"/>
    <path class="cls-6" d="M373.41,77.27c-3.88,1.31-7.94,1.24-12.11.36h0c4.17.89,8.23.95,12.11-.36Z"/>
    <path class="cls-6" d="M382.62,88.41h0c-1.94-.58-3.85-1.23-5.71-1.96,1.86.73,3.77,1.39,5.71,1.96Z"/>
    <path class="cls-12" d="M384.55,90.2c.13.08.24.16.37.24l.03-.03c-.15-.06-.27-.13-.42-.19l.02-.02Z"/>
    <polygon class="cls-12" points="384.92 90.44 384.95 90.39 384.95 90.39 384.92 90.44"/>
    <path class="cls-6" d="M296.82,290.03c7.31-6.21,14.61-12.4,21.9-18.6,1.08-.92,2-2.04,3.54-2.23l.06-.15c.55-.63,1.1-1.26,1.65-1.87.57-.55,1.13-1.12,1.7-1.66,0-.16.06-.29.15-.39.08-.1.21-.15.39-.18.23-.15.4-.32.55-.53,1.2-1.62,2.65-2.86,4.64-3.39,1.34-.89,2.68-1.79,4.02-2.68,2.26-4.25,4.15-8.66,5.04-13.43.27-1.52.32-3.05.36-4.59.05-2.57.05-5.14,1.05-7.61-.5-.29-1.07-.53-1.58-.82-.86-.48-1.57-1.12-1.6-2.41-1.23-2.75-2.29-5.58-3.7-8.23-1.08-2.05-3.05-3.1-5.38-2.47-2.38.63-1.7,2.83-1.76,4.48-.36,8.91-.32,8.91-9.24,9.71-.18,0-.34.08-.52.13h0c.03,3.93-.02,7.85.11,11.78.16,4.51.08,9.02-2.44,12.95-5.8,8.97-11.69,17.89-17.7,26.73-.31.45-.57.91-.76,1.34-.58,1.34-.69,2.67-.44,4.17l-.03-.03Z"/>
    <path class="cls-6" d="M318.56,232.94c-.18,0-.34.08-.52.11h0c.18-.05.34-.11.52-.13v.02Z"/>
    <path class="cls-6" d="M404.39,219.97c3.15,2.91,6.11,6.06,9.5,8.65,9.34,7.13,15.98,16.94,24.7,24.61,10.73,9.44,22.93,15.77,37.98,13.85-7-7.9-16.08-13.4-23.76-20.51-2.62-2.42-6.35-4.15-6.4-8.53h-.02c-.36-.34-.71-.68-1.07-1.03h0l-.03-.03c-.39-.27-.79-.57-1.18-.84-1.08-.78-2.17-1.55-3.25-2.33-.36-.29-.69-.57-1.05-.86-.39-.37-.78-.76-1.15-1.13-2.39-.19-4.15-1.29-5.14-3.52h0c-.37-.31-.74-.65-1.12-.97l-.05-.03s-.05-.03-.06-.06c-.34-.27-.66-.53-1-.81l-.21-.1c-.6-.23-1.18-.45-1.78-.68h0c-2.94-.73-5.19-2.72-7.69-4.22-.36-.21-.73-.42-1.1-.61-1.44.08-2.17-.63-2.23-2.04h0l-.06.03h0c-.65,0-1.31,0-1.96-.02-3.77,2.18-7.95.32-11.85,1.21l-.03-.03Z"/>
    <path class="cls-6" d="M429.28,225.61h0c-2.93-.73-5.19-2.72-7.69-4.22,2.51,1.5,4.77,3.47,7.69,4.22h0Z"/>
    <path class="cls-6" d="M440.84,233.78c-.36-.29-.69-.57-1.05-.86-.39-.37-.78-.76-1.16-1.13.39.37.78.76,1.15,1.13.36.29.69.57,1.05.86h.02Z"/>
    <path class="cls-6" d="M445.27,236.95s.02.02.03.03l-.03-.03Z"/>
    <polygon class="cls-6" points="418.26 218.74 418.26 218.74 418.26 218.74 418.2 218.77 418.2 218.77 418.2 218.77 418.26 218.74"/>
    <path class="cls-6" d="M445.27,236.95c-.39-.27-.79-.57-1.18-.84-1.08-.78-2.17-1.55-3.25-2.33,1.08.78,2.17,1.55,3.25,2.33.39.27.79.57,1.18.84Z"/>
    <path class="cls-6" d="M432.27,227.19c-.34-.27-.66-.53-1-.81l-.21-.1.21.1c.34.27.66.53,1,.81Z"/>
    <path class="cls-4" d="M452.82,246.57c7.68,7.11,16.76,12.61,23.76,20.51.42.36.86.69,1.31.99,3.15,2.13,6.9,3.04,10.26,4.75-.94-6.14-4.17-10.97-8.87-14.8-3.14-2.55-6.46-4.78-9.91-6.85-1.37-.82-2.76-1.63-4.15-2.42-2.1-1.18-4.22-2.33-6.32-3.49-4.23-2.31-8.45-4.62-12.49-7.24.06,4.4,3.8,6.11,6.4,8.53l.02.03Z"/>
    <path class="cls-7" d="M282.16,305.45c.91-.5,1.73-1.21,2.57-1.84,12.36-9.13,23.45-19.72,34.64-30.19,1.23-1.15,3.02-2.07,2.88-4.22-1.54.19-2.46,1.31-3.54,2.23-7.29,6.22-14.59,12.41-21.9,18.6h0c-.37.32-.74.63-1.12.95-.02.02-.05.05-.06.06.02-.02.05-.05.06-.06-.02.02-.05.05-.06.06-.37.32-.74.65-1.12.97h0c-.36.36-.71.71-1.07,1.07l-.03.03c-.03.15-.08.27-.13.4-.11.23-.29.39-.53.45-.13.03-.27.03-.44,0-1.39,1.24-2.76,2.51-4.15,3.75-3.04,2.75-6.09,5.5-9.13,8.26,1.23.26,2.21-.02,3.14-.52v-.02Z"/>
    <path class="cls-7" d="M295.69,290.98c-.4.34-.79.69-1.2,1.03.37-.32.74-.65,1.12-.97.02-.02.05-.05.06-.06h.02Z"/>
    <path class="cls-7" d="M294.49,292.03c-.36.36-.71.71-1.07,1.05l-.02.03.03-.03c.36-.36.71-.71,1.07-1.05h-.02Z"/>
    <path class="cls-7" d="M295.62,291.05c-.37.32-.74.65-1.12.97h0c.37-.34.74-.66,1.12-.99v.02Z"/>
    <path class="cls-7" d="M296.82,290.03c7.31-6.21,14.61-12.4,21.9-18.6-7.29,6.22-14.59,12.41-21.9,18.6h0Z"/>
    <path class="cls-6" d="M293.28,293.52c.06-.11.1-.24.13-.4-.37.29-.73.57-1.1.86h0c.16.03.31.02.44,0,.24-.06.42-.21.53-.45h0Z"/>
    <path class="cls-6" d="M293.41,293.12c-.37.29-.73.57-1.1.86h0c.37-.29.73-.57,1.1-.86Z"/>
    <path class="cls-2" d="M461.25,67.67c-.66-.45-.79-1-.71-1.58.03-.23.08-.47.16-.71.31-1.08.84-2.2-.36-3.02h0c-1.52,1.84-3.02,3.7-4.54,5.54.68,1.41,1.08,3.49,2.89,3.36.42-.03.78-.16,1.07-.39.87-.66,1.24-2.02,1.5-3.22l-.02.02Z"/>
    <path class="cls-2" d="M459.73,70.89c.87-.66,1.24-2.02,1.5-3.22h0c-.26,1.2-.63,2.55-1.5,3.22Z"/>
    <path class="cls-2" d="M460.33,62.37c1.2.82.68,1.94.36,3.02.31-1.08.84-2.2-.36-3.02h0Z"/>
    <path class="cls-2" d="M460.51,56.03c.03,1.36.05,2.72.08,4.09.31-.34.53-.69.69-1.03.31-.68.29-1.37-.03-2.04-.16-.34-.4-.68-.73-1h0l-.02-.02Z"/>
    <path class="cls-2" d="M460.51,56.03c.32.34.57.66.73,1-.16-.34-.4-.68-.73-1h0Z"/>
    <path class="cls-4" d="M438.64,231.8c-.44-1.2-1.08-2.1-1.94-2.7-.42-.29-.91-.52-1.44-.65-.53-.15-1.12-.21-1.76-.19h0c.99,2.23,2.75,3.35,5.14,3.52v.02Z"/>
    <path class="cls-2" d="M418.26,218.74c.06,1.42.79,2.12,2.23,2.04,0-.18-.03-.34-.06-.48-.23-1.07-.92-1.6-2.17-1.55h0Z"/>
    <path class="cls-2" d="M420.43,220.31c-.23-1.07-.92-1.6-2.17-1.55h0c1.23-.05,1.94.5,2.17,1.55Z"/>
    <path class="cls-4" d="M429.28,225.61c.58.23,1.18.45,1.78.68-.05-.11-.08-.21-.15-.31-.36-.63-.91-.73-1.63-.39v.02Z"/>
    <path class="cls-4" d="M430.92,225.99c-.36-.63-.91-.74-1.63-.39h0c.73-.36,1.28-.24,1.63.39Z"/>
    <path class="cls-7" d="M329.97,263.26c.47-.74.94-1.5,1.41-2.25-1.99.53-3.44,1.78-4.64,3.39,1.23.37,2.08-.5,3.09-.91h0s.1-.16.15-.24h0Z"/>
    <path class="cls-7" d="M329.97,263.26s-.1.16-.15.24h0c.05-.08.1-.16.15-.24Z"/>
    <path class="cls-7" d="M323.95,267.16c-.55.63-1.1,1.26-1.65,1.89,1.1-.15,1.94-.52,1.65-1.89Z"/>
    <path class="cls-7" d="M325.65,265.49h0s.11-.02.23-.05.23-.05.23-.05l.08-.47c-.16.02-.29.08-.39.18-.08.1-.15.23-.15.39h0Z"/>
    <path class="cls-7" d="M325.8,265.12c-.08.1-.13.23-.15.39h0c0-.16.06-.29.15-.39Z"/>
    <path class="cls-7" d="M325.65,265.51s.11-.02.23-.05c-.11.03-.23.05-.23.05h0Z"/>
  </g>
  <g>
    <path class="cls-12" d="M201.66,298.59c-.26.36-.52.69-.78,1.05h0s-.02.02-.03.03c-.02.02-.03.03-.03.03-.84,2.75-2.05,5.22-3.85,7.24-1.08,1.21-2.38,2.26-3.94,3.1-6.08,3.7-12.78,2.59-19.18,1.96-7.4-.71-14.74-1.91-22.24-1.89-3.98,0-7.73,1.1-11.62,1.34,2.04,2.51,5.04,2.86,7.85,3.51.65.15,1.29.31,1.91.52,5.14,1.73,10.63,2.41,16,3.39.69.13,1.28.31,1.71.63.11.08.21.18.31.27.27.31.47.71.55,1.26h12.87c4.28,0,8.57,0,12.87.03,1.34,0,3.25-.69,3.8,1,.06.19.08.37.08.53,0,1.2-1.41,1.97-2.34,2.78-1.5,2.17-2.99,4.33-4.49,6.48,5.75-.74,11.77-.55,17.21-2.39,2.49-.84,4.85-2.1,7.03-4.06h0c.11-.13.24-.27.36-.4.34-.42.68-.84,1.1-1.16,7.06-5.32,7.19-5.38,2.33-12.69-1.63-2.47-.42-3.59,1.29-4.78,4.27-2.94,8.32-6.35,12.93-8.61,10.31-5.06,16.4-14.16,23.05-22.74,11.46-14.79,25.79-26.8,38.66-40.23.24-.24.5-.47.79-.66.87-.58,1.94-.99,2.86-1.54.36-1.55.71-3.09,1.07-4.62s.71-3.09,1.05-4.64c.32-1.47-.63-3.54,1.24-4.27,2.08-.82,3.01,1.36,4.33,2.41.69.55,1.37,1.12,2.07,1.66.4-.23.86-.4,1.31-.53.69-.21,1.44-.32,2.18-.42,2.75-.36,5.59-.32,6.69-2.52,1.54-3.1-1.71-6.98-2.6-10.6-2.46-10.13.34-19.41,4.14-28.61,1.02-2.46,2.1-2.17,3.88-.55.86.78,1.71,1.57,2.59,2.34,6.01,5.48,12.01,10.99,17.49,17.05,5.59,3.99,10.47,8.27,12.22,14.84.4,1.52.63,3.15.68,4.93.16,7.84-1.28,15.55-1.2,23.35,8.91-12.32,21.79-20.56,32.21-31.32.06-.76.15-1.52.21-2.28h0c-.15-2.44.6-4.64,1.44-6.82.5-1.31,1.05-2.6,1.47-3.93-7.42-12.95-14.09-26.49-27.36-34.86-.48-.31-.95-.65-1.41-1-1.34-1.08-2.49-2.42-3.31-4.02h0c-.44.4-.87.82-1.31,1.23,2.89,8.81,9.5,15.21,14.66,22.55,3.38,4.8,6.72,9.63,9.83,14.63.86,1.36,1.91,3.07.99,5.62-4.95-5.27-9.75-10.18-14.32-15.29-6.93-7.74-16.21-13.16-21.96-21.96-3.26-5.01-7.74-9.41-8.53-15.84-.45-3.65-3.15-1.68-5.04-1.54h0c-.53,1.91-1.1,3.8-1.71,5.66-.02.06-.05.13-.06.19-.61,1.81-1.28,3.59-2.02,5.32-.08.18-.15.36-.23.53-.37.84-.78,1.66-1.21,2.47-.45.86-.92,1.71-1.44,2.54-2.42,3.9-5.61,7.32-10.02,9.99-.24.86-.87,1.05-1.65,1.02-.13-.03-.23-.03-.29.02-.08.05-.11.15-.13.27-.36.26-.71.5-1.08.76v-.03c-.23.92-.89,1.21-1.76,1.2,0,0-.1.08-.19.15-.05.03-.11.08-.11.08-1.97,8.52-.66,17.08.34,26.43-5.45-4.86-4.53-11.09-6.29-16.29-.58-1.71-.48-3.54-2.72-4.01-5.2,4.17-9.92,8.61-13.48,13.87-.45.68-.91,1.37-1.31,2.08-.86,1.44-1.62,2.94-2.28,4.53-1.16,2.78-2,5.79-2.44,9.07-.65,4.75-.11,10.21-4.28,13.95-5.77,5.17-11.65,10.21-17.47,15.31-20.14,18.46-39.02,38.26-59.83,55.99l-.05-.06Z"/>
    <path class="cls-11" d="M46.89,340.28c-1,.48-2.34.24-3.62.68,5.22.5,9.73,1.91,12.54,6.82,1.13,1.97,3.59,1.81,5.32.74,7.19-4.43,14.58-5.12,22.4-1.84.6.24,1.24.29,1.91.27.26,0,.53,0,.79-.02h.4c.26,0,.53,0,.79.03.13,0,.26.03.39.05.65.11,1.24.39,1.79.97,3.56-1.39,7.19-2.3,10.86-2.94,8.1-1.41,16.39-1.55,24.5-2.78h0c13.69-2.05,27.36-4.09,41.05-6.16,3.99-.6,7.94-1.58,11.96-.24-2.07-4.01-5.92-3.93-9.62-4.19-4.56-1.45-9.13-2.78-13.93-2.75-1.6,0-3.23.18-4.9.53,5.25-5.92,12.28-6.53,18.78-8.42-.1-.55-.27-.95-.55-1.26-.1-.1-.19-.19-.31-.27-.44-.32-1.02-.5-1.71-.63-5.37-1-10.86-1.66-16-3.39-.61-.21-1.24-.37-1.91-.52-2.81-.63-5.82-.99-7.85-3.49-2.44-.89-6.72,1.5-7.97-1.55-.1-.23-.18-.5-.23-.81-.03-.15-.05-.31-.06-.48-.03-.34-.05-.71-.05-1.13,0-.21,0-.44.03-.66-4.67,2.59-9.34,5.19-14,7.77h0c-1.47,1.34-3.07,2.47-4.74,3.51-.84.52-1.68,1.02-2.54,1.5s-1.71.97-2.57,1.45c-15.35,8.76-32.7,11.02-49.42,15.27-2.65,4.75-7.84,2.15-11.54,3.94l-.02-.02Z"/>
    <path class="cls-4" d="M21.97,347.92c-.45.37-.91.74-1.36,1.12.27,2.1-.73,3.78-1.78,5.45-7.24,11.48-7.01,24.29-6.63,37.12.02.57.76,1.13,1.16,1.68,1.1-1.15,1.94-2.42,2.65-3.77.42-.81.79-1.65,1.15-2.51.37-.92.73-1.84,1.08-2.78.13-.36.27-.71.4-1.07.19-.5.39-1,.6-1.5.66-1.62,1.44-3.18,2.47-4.61.91-1.76,1.94-3.36,3.04-4.85.4-.53.81-1.05,1.23-1.55.74-.87,1.5-1.73,2.31-2.51.05-.05.1-.08.15-.13.97-.94,1.99-1.79,3.07-2.59,1.12-.84,2.3-1.6,3.51-2.31,4.25-2.47,9.05-4.15,14.21-5.33,12.69-2.89,25.36-5.79,38.03-8.71.82-.19,1.57-.71,2.34-1.08-.53-.58-1.15-.86-1.79-.97-.13-.02-.26-.05-.39-.05-.26-.03-.53-.03-.79-.03h-.4c-.26,0-.53.02-.79.02-.66,0-1.31-.03-1.91-.27-7.82-3.26-15.19-2.59-22.4,1.84-1.73,1.07-4.19,1.23-5.32-.74-2.81-4.91-7.32-6.32-12.54-6.82,1.28-.44,2.62-.19,3.62-.68,3.7-1.79,8.89.82,11.54-3.94-6.46-.44-12.93-.39-19.35.69-.78.37-1.55.69-2.36,1.02-5.59,2.23-11.67,3.68-14.76,9.86h0ZM41.25,343.02c.89.74.24,1.6-.02,2.41-1.5,4.44-4.36,4.75-10.6.69,3.33-.27,5.71-1.7,8.18-2.94.79-.39,1.66-.82,2.46-.16h-.02Z"/>
    <path class="cls-3" d="M10.98,334.09h0c-1.96,2.51-5.19,2.94-7.56,4.72-1.66,1.23-4.53,3.31-2.96,4.88,3.94,3.9,1.47,8.76,3.05,12.87.68.73,1.36,1.45,2.04,2.2,3.26-1.83,6.13-4.27,9.2-6.42,1.84-1.28,3.75-2.46,5.87-3.31h0c.45-.37.91-.74,1.36-1.12,3.09-6.17,9.18-7.63,14.77-9.86.79-.32,1.58-.65,2.36-1.02-.16-2.33-.69-4.41-3.72-3.85-1.52.29-3.04.47-4.56.58-1.02.08-2.04.13-3.05.15-5.59.15-11.2-.34-16.78.16l-.02.02Z"/>
    <path class="cls-4" d="M139.95,301.94c-3.25,1.92-5.75,3.39-8.26,4.88-.02.23-.03.45-.03.66,0,.42,0,.79.05,1.13.02.18.05.32.06.48.06.31.13.57.23.81,1.24,3.04,5.53.66,7.97,1.55,3.9-.24,7.64-1.33,11.62-1.34,7.5-.02,14.82,1.18,22.24,1.89,6.4.61,13.11,1.75,19.18-1.96-2.18-2.68-5.45-2.49-8.34-2.8-8.7-.94-17.41-1.68-26.12-2.3-4.35-.31-5.29-2.93-5.25-6.55-2.15.61-4.33,1.02-6.53,1.34-4.28.63-8.63.92-12.91,1.58,1.78.18,3.56.36,6.09.6h0Z"/>
    <path class="cls-8" d="M153.32,298.42c-.05,3.62.91,6.24,5.25,6.55,8.71.61,17.44,1.36,26.12,2.3,2.91.31,6.16.11,8.34,2.8,1.57-.84,2.86-1.89,3.94-3.1,1.79-2.02,3.01-4.49,3.85-7.24-2.94-.71-6.06-.76-8.95-.89-2.04-.1-4.06-.27-6.08-.48-2.89-.31-5.79-.71-8.66-1.08-1.44-.19-2.88-.36-4.33-.52-1.54-.16-3.05-.31-4.59-.4-2.91-.18-5.82-.21-8.74.03-2.04.69-4.09,1.39-6.14,2.07h0v-.02Z"/>
    <path class="cls-9" d="M216.8,328.77c7.32-3.6,15.06-5.74,22.9-7.66,1.42-.36,2.84-.69,4.28-1.03,2.13-.52,4.28-1.02,6.42-1.57.95-.24,1.91-.5,2.86-.79,1.28-.39,2.55-.81,3.83-1.24,5.3-1.84,10.51-4.09,15.79-6.01,1.03-.5,2.07-1,3.1-1.5,1.02-1,2.04-2,3.05-3.01,3.04-2.75,6.09-5.5,9.13-8.26,1.39-1.24,2.76-2.51,4.14-3.75h0c.37-.29.73-.57,1.1-.86,0,0,.03-.03.02-.03.36-.36.71-.71,1.07-1.05h0c.4-.34.79-.69,1.2-1.03.37-.32.74-.63,1.12-.95-.24-1.5-.15-2.83.45-4.17.19-.45.45-.89.76-1.34,6.01-8.82,11.9-17.75,17.7-26.73,2.54-3.91,2.6-8.42,2.44-12.95-.13-3.93-.08-7.85-.11-11.78-3.33-1.23-7.13.58-10.33-1.58-3.01.37-6.01.74-9.02,1.12-.92.53-1.99.94-2.86,1.54-.29.19-.57.4-.79.66-12.87,13.41-27.2,25.44-38.66,40.23-6.66,8.58-12.75,17.68-23.05,22.74-4.61,2.26-8.66,5.67-12.93,8.61-1.71,1.18-2.94,2.31-1.29,4.78,4.85,7.31,4.74,7.37-2.33,12.69-.42.31-.76.74-1.1,1.16-.11.15-.23.27-.36.4.03.1.08.18.11.27.45,1.03.91,2.07,1.36,3.1h0Z"/>
    <path class="cls-6" d="M168.8,330.55c.58-.84,1.54-.91,2.51-.89h1.29c5.56-.34,11.14-.24,15.98-3.98,1.86-1.44,4.57-1.94,6.97-.29.94-.79,2.34-1.58,2.34-2.78,0-.18-.03-.36-.08-.53-.55-1.68-2.46-.99-3.8-1-4.28-.03-8.57-.03-12.87-.03h-12.87c-6.5,1.89-13.53,2.49-18.78,8.42,1.66-.36,3.28-.52,4.9-.53,4.8-.03,9.39,1.29,13.93,2.75.1-.47.26-.84.45-1.12l.02-.02Z"/>
    <path class="cls-4" d="M190.91,331.94c-.32.31-.65.63-.97.94-.21.15-.42.27-.65.4-.44.27-.89.52-1.31.79-1.08.68-2.07,1.47-2.59,2.78,1.86.34,3.72.69,5.59,1.03,2.89.53,5.77,1.07,8.66,1.62,4.33-3.77,9.31-6.35,14.64-8.24.76-.27,1.54-.52,2.31-.76.06-.58.13-1.16.19-1.75-.45-1.03-.91-2.07-1.36-3.1-.03-.1-.08-.18-.11-.27-2.18,1.96-4.56,3.22-7.03,4.06-5.46,1.84-11.46,1.65-17.21,2.39l-.18.08v.03Z"/>
    <path class="cls-9" d="M185.4,336.88h0c.52-1.31,1.5-2.1,2.59-2.78.44-.27.87-.53,1.31-.79.21-.13.44-.27.65-.4.32-.32.65-.63.97-.95l.18-.08c1.5-2.17,2.99-4.33,4.49-6.48-2.41-1.63-5.11-1.13-6.97.29-4.85,3.73-10.42,3.64-15.98,3.98-.31.02-.63,0-.97,0h-.32c-.97,0-1.92.06-2.51.89-.19.27-.34.65-.45,1.12h0c3.7.26,7.55.18,9.62,4.19,2.47.34,4.95.69,7.42,1.03h-.02Z"/>
    <path class="cls-4" d="M489.55,479.42c-4.01-4.44-9.92-4.57-15.01-6.48-4.38-1.65-8.84-3.33-12.48-6.08-5.53-4.19-8.18-8.94-8.13-17.29.05-12.38,4.64-23.29,6.55-34.94.48-2.94,1.31-5.92,3.01-8.52h0c0-1.54.63-2.86,1.23-4.19.21-.44.4-.89.58-1.34.73-1.84,1.49-3.68,2.26-5.5,5.46-12.74,12.19-24.81,19.73-36.45h0c1.49-1.7,2.75-3.54,3.93-5.43,1.97-3.15,3.7-6.46,5.75-9.57.32-1.42.78-2.76,1.73-3.86.13-.16.27-.31.44-.45h0c1.03-2.13,2.07-4.27,3.1-6.4h0c.89-2.12,1.78-4.22,2.67-6.32l-1.08.11c-2.96.29-5.9.57-8.86.86-6.43,3.65-9.28,9.65-11.96,15.77-.48,1.12-.97,2.23-1.47,3.33-.74,1.66-1.52,3.3-2.41,4.88-8.31,14.8-17.49,29.11-24.47,44.62-1.13,2.52-2.36,5.01-3.44,7.55-1.1,2.54-2.07,5.12-2.72,7.84.27.21.52.42.73.65.81.79,1.28,1.65,1.55,2.54.1.32.18.65.23.97.34,2.46-.68,5.09-.97,7.53-.52,4.38-3.96,7.98-4.17,12.64-.03.68-.91,1.78-1.54,1.89-1.36.24-1.47-1.23-1.96-2.12-1-1.84,1-4.99-2.51-5.75-3.18,4.2-2.62,9.5-4.2,14.19-.45,1.34-.44,2.88-1.02,4.14-1.87,4.07-1.12,7.24,2.83,9.57.89.52,2.2,1.07,1.78,2.33-.57,1.66-2.05.94-3.22.71-2.94-.58-5.87-1.23-8.76-1.84-1.15,1.97.13,3.01,1.03,3.93,9.89,10.07,20.51,18.34,36.01,16.73,6.25-.65,12.62-.11,20.19-.11-2.73,2.88-5.33,1.33-6.92,2.84,1.89.13,3.77.24,5.66.37,1.36.08,2.73.18,4.09.26,1.26-.84,2.26-1.84,2.18-3.51l.03-.1Z"/>
    <path class="cls-12" d="M515.04,286.09c-.61-.11-1.23-.24-1.84-.39-3.54-.87-6.95-1.41-10.55,1.02-3.64,2.44-7.55.19-11.14-1.41-1.08.91-.81,2.18-.89,3.36-.11,3.31.16,6.64,0,9.96-.1,1.99-.36,3.98-.95,5.93-.53,1.79-1.03,3.93-2.96,3.93-2.49,0-1.68-2.73-2.17-4.22-1.29-4.04.61-8.57-1.66-12.53-8.1,8.11-16.21,16.21-22.8,25.65-1.31,1.87-2.17,4.07-3.23,6.14,2.75,5.9,1.44,11.56-.86,17.23-2.07,5.09,2.99,7.4,4.51,12.22,3.51-11.23,13.87-14.89,19.91-22.51,6.24-7.87,13.19-14.4,23.6-16.68-.34,4.07-2.65,6.66-5.03,9.13-.48.5-.95.99-1.42,1.47-.23.24-.47.5-.69.74-.68.76-1.31,1.54-1.86,2.38,2.96-.29,5.92-.57,8.86-.86.36-.03.73-.06,1.08-.11.57-.86,1.08-1.73,1.58-2.62,1-1.78,1.89-3.6,2.73-5.45,2.08-4.62,3.83-9.42,6.01-14,.84-1.76,1.68-3.54,2.44-5.35.45-1.08.89-2.18,1.28-3.3,1.02-2.97,1.68-6.04,1.62-9.33-1.87,0-3.7-.13-5.54-.45l-.02.03Z"/>
    <path class="cls-11" d="M454.01,481.79c7.87.08,15.74.31,23.61.48h0c1.58-1.52,4.19.05,6.92-2.84-7.58,0-13.95-.55-20.19.11-15.48,1.62-26.1-6.66-36.01-16.73-.91-.92-2.18-1.94-1.03-3.93,2.89.61,5.82,1.26,8.76,1.84,1.15.23,2.65.97,3.22-.71.42-1.24-.87-1.79-1.78-2.33-3.94-2.31-4.69-5.48-2.83-9.57.58-1.26.57-2.8,1.02-4.14,1.58-4.67,1-9.99,4.2-14.19.99-7,5.07-12.53,8.63-18.31h0c.65-2.72,1.62-5.3,2.72-7.84,1.1-2.54,2.31-5.03,3.44-7.55,7-15.52,16.18-29.82,24.47-44.62.89-1.57,1.66-3.22,2.41-4.88.5-1.12.97-2.23,1.47-3.33,2.68-6.13,5.51-12.12,11.94-15.77.55-.84,1.18-1.62,1.86-2.38.23-.26.45-.5.69-.74.47-.5.95-.99,1.42-1.47,2.39-2.47,4.69-5.06,5.03-9.13-10.41,2.28-17.36,8.81-23.6,16.68-6.04,7.61-16.4,11.28-19.91,22.51-1.52-4.82-6.56-7.13-4.51-12.22,2.31-5.67,3.62-11.33.86-17.23-.34.32-.6.69-.84,1.1-.37.6-.68,1.24-1.1,1.79-.15.18-.29.36-.45.52-.05.05-.11.08-.16.13-.13.1-.24.21-.39.29-.21.13-.44.23-.69.31-.21,1.79-.26,3.62-1.31,5.19-.06,1.08-.13,2.17-.18,3.25,0,.82-.1,1.62-.24,2.42s-.34,1.6-.5,2.41c-.32,1.6-.57,3.22-.19,4.88-.06,1.08-.13,2.15-.19,3.23-.39,7.14-1.49,14.13-3.01,21.03-2.52,11.49-6.16,22.72-9.49,34.02-3.73,18.39-6.74,37.01-16.61,53.53-2.31,3.88-3.18,8.37-3.98,12.75-.94,5.19,1.63,7.87,6.98,7.56,1.42-.08,2.6.24,3.36,1.21,2.1,2.65,4.77,3.62,7.55,3.77h1.63c1.05-.05,2.1-.19,3.14-.39,4.65-.86,9.24-.78,13.87-.73h0Z"/>
    <path class="cls-11" d="M6.77,361.93c2.1,7.47-.61,15.1-.36,22.63.52,2.55.71,5.22,1.62,7.63,1.02,2.73,2.88,4.12,5.35,1.1-.4-.57-1.15-1.12-1.16-1.68-.39-12.83-.61-25.65,6.63-37.12,1.05-1.66,2.05-3.35,1.78-5.45h0c-2.12.84-4.02,2-5.87,3.3-3.07,2.13-5.93,4.59-9.2,6.42h0c.52,1.07.92,2.12,1.23,3.18h-.02Z"/>
    <path class="cls-10" d="M490.6,288.67c-1.08.16-2.18.08-3.28,0-1.84-.11-3.69-.19-5.37.97.31.69.61,1.41.92,2.1,2.28,3.96.37,8.49,1.66,12.53.47,1.49-.32,4.23,2.17,4.22,1.94,0,2.42-2.15,2.96-3.93.58-1.97.84-3.94.95-5.93.16-3.31-.1-6.64,0-9.96h-.02Z"/>
    <path class="cls-2" d="M199.64,339.53c4.77,2.2,9.41.63,13.9-.84,5.69-1.86,5.95-2.96,3.07-8.16-.78.24-1.55.5-2.31.76-5.35,1.87-10.31,4.46-14.64,8.24h-.02Z"/>
    <path class="cls-12" d="M439.89,429.83c3.51.76,1.5,3.91,2.51,5.75.48.89.61,2.36,1.96,2.12.63-.11,1.5-1.21,1.54-1.89.21-4.64,3.65-8.24,4.17-12.64.29-2.42,1.29-5.06.97-7.53-.05-.32-.13-.65-.23-.97-.27-.89-.74-1.73-1.55-2.54-.23-.21-.47-.44-.73-.65-3.56,5.79-7.64,11.33-8.63,18.31v.03Z"/>
  </g>
</svg>