<?xml version="1.0" encoding="UTF-8"?>
<svg id="Layer_1" data-name="Layer 1" xmlns="http://www.w3.org/2000/svg" viewBox="0 0 1920.01 231.96">
  <defs>
    <style>
      .cls-1 {
        stroke: #ca5160;
      }

      .cls-1, .cls-2, .cls-3, .cls-4, .cls-5, .cls-6, .cls-7, .cls-8, .cls-9, .cls-10, .cls-11, .cls-12, .cls-13, .cls-14, .cls-15, .cls-16, .cls-17, .cls-18, .cls-19, .cls-20, .cls-21, .cls-22, .cls-23 {
        stroke-width: 0px;
      }

      .cls-1, .cls-3, .cls-5, .cls-6, .cls-7, .cls-8, .cls-9, .cls-16, .cls-18, .cls-20, .cls-22 {
        fill: none;
      }

      .cls-1, .cls-3, .cls-5, .cls-6, .cls-7, .cls-8, .cls-16, .cls-18, .cls-20, .cls-22 {
        stroke-linecap: round;
        stroke-linejoin: round;
      }

      .cls-2 {
        fill: #8b505e;
      }

      .cls-3 {
        stroke: #723748;
      }

      .cls-4 {
        fill: #ca5160;
      }

      .cls-5 {
        stroke: #724959;
      }

      .cls-6 {
        stroke: #ac6379;
      }

      .cls-7 {
        stroke: #e96671;
      }

      .cls-8 {
        stroke: #2c516b;
      }

      .cls-10 {
        fill: #724959;
      }

      .cls-11 {
        fill: #723748;
      }

      .cls-12 {
        fill: #202830;
      }

      .cls-13 {
        fill: #544a5d;
      }

      .cls-14 {
        fill: #e96671;
      }

      .cls-15 {
        fill: #d65364;
      }

      .cls-16 {
        stroke: #631633;
      }

      .cls-17 {
        fill: #2c516b;
      }

      .cls-18 {
        stroke: #8b505e;
      }

      .cls-19 {
        fill: #39323e;
      }

      .cls-20 {
        stroke: #d65364;
      }

      .cls-21 {
        fill: #ac6379;
      }

      .cls-22 {
        stroke: #39323e;
      }

      .cls-23 {
        fill: #631633;
      }
    </style>
  </defs>
  <path class="cls-9" d="M354.82,177.64c.11.01.35-.49.59-.96-.23.46-.48.97-.59.96Z"/>
  <path class="cls-9" d="M344.35,179c3.45-.32,6.68-2.23,10.27-1.39-3.59-.84-6.82,1.06-10.27,1.39Z"/>
  <path class="cls-9" d="M378.35,180.85c-7.51-1.73-15.12-3.09-22.69-4.61-7.77-1.72-15.55-3.42-23.31-5.14-11.35-2.5-22.7-5-34.04-7.51,11.34,2.51,22.68,5.01,34.02,7.51,7.77,1.7,15.55,3.42,23.31,5.14h0c7.57,1.52,15.17,2.89,22.69,4.61.64.15,1.28.28,1.92.41.9.18,1.8.34,2.7.51-.89-.17-1.78-.33-2.67-.51-.65-.13-1.28-.26-1.92-.41Z"/>
  <path class="cls-9" d="M432.32,192.19c-1.34-.28-2.68-.56-4.01-.84-1.1-.22-2.2-.45-3.29-.67-2.73-.56-5.46-1.07-8.2-1.53-4.72-.79-9.43-1.61-14.16-2.43-.4-.22-.78-.45-1.18-.67h.01c-.81-.05-1.6-.12-2.41-.17-.37-.22-.74-.44-1.11-.65h.03c-1.48-.16-2.98-.33-4.46-.49-2.52-1.2-5.17-1.89-7.86-2.44,2.68.55,5.32,1.24,7.83,2.44,0,0,0,0,0,.01,1.48.17,2.97.33,4.45.49.37.22.74.44,1.11.65.81.05,1.6.12,2.41.17.4.22.78.45,1.18.67,4.72.81,9.43,1.64,14.16,2.43,2.74.46,5.48.99,8.2,1.53,1.1.22,2.2.45,3.29.67h0c1.34.26,2.68.54,4.01.82Z"/>
  <path class="cls-9" d="M238.89,150.12c-7.83-1.86-15.66-3.75-23.51-5.6h0s-.02-.01-.03-.01c0,0,.02,0,.03,0-.01-.59-.03-1.17-.03-1.76,0,0-.02,0-.03,0,0,0,.02,0,.03,0h0s.02,0,.04,0c-.02,0-.03,0-.05,0-2.37-1.52-4.71-.77-7.08-.2.86.48,1.71.89,2.58,1.22,1.44.56,2.92.85,4.51.75,7.85,1.85,15.68,3.74,23.51,5.6,7.83,1.86,15.68,3.7,23.54,5.47,11.42,2.56,22.85,5.1,34.27,7.63-11.42-2.53-22.84-5.06-34.25-7.63-7.86-1.76-15.7-3.61-23.54-5.47Z"/>
  <path class="cls-9" d="M230.51,175.34c-22.3-5.65-44.52-11.59-66.87-16.98,22.36,5.4,44.57,11.35,66.87,16.98Z"/>
  <path class="cls-9" d="M338.35,124.81c-2.92-.57-5.84-1.19-8.73-1.93,2.88.75,5.8,1.36,8.73,1.93Z"/>
  <path class="cls-9" d="M412.55,141.82c-16.03-3.57-32.08-7.04-48.13-10.59,16.03,3.54,32.1,7.02,48.13,10.59Z"/>
  <path class="cls-9" d="M199.23,91.69c-.75-.15-1.53-.25-2.33-.3h0c-5.75-1.57-11.48-3.25-17.26-4.72-18.99-4.81-37.98-9.56-56.98-14.33,0,0-.01,0-.02,0-.19,2.09-1.6,2.49-3.4,2.57-2.25.11-4.27-.42-6.38-1.27-2.92-1.16-4.55.12-3.88,2.88.18.74.39,1.46.61,2.17-.22-.7-.42-1.41-.6-2.13-.67-2.76.95-4.06,3.88-2.88,2.09.83,4.13,1.36,6.38,1.27,1.8-.08,3.22-.48,3.4-2.59,19,4.77,38,9.52,56.98,14.33,5.78,1.45,11.51,3.13,17.26,4.72.79.05,1.56.16,2.33.3,2.29.44,4.45,1.3,6.5,2.5h0c-2.05-1.22-4.21-2.07-6.5-2.51Z"/>
  <path class="cls-9" d="M280.6,179.02s-.06,0-.09,0c.03,0,.06,0,.09,0Z"/>
  <path class="cls-9" d="M366.46,188.3s0,0,0,0c10.55-2.29,20.66,1.75,31,1.09,0,0,0,0,0-.01-10.34.66-20.46-3.38-31.01-1.08Z"/>
  <path class="cls-9" d="M459.47,193.82c.34.3.63.72.84,1.2-.21-.48-.48-.9-.84-1.2Z"/>
  <path class="cls-9" d="M122.71,105.91c-1.16-3.32-1.93-6.72-2.59-10.18-.09-.47-.18-.9-.29-1.31.11.39.2.81.28,1.27.65,3.48,1.43,6.89,2.6,10.22Z"/>
  <path class="cls-9" d="M446.09,100.16c10.65.4,21.3.8,31.93,1.46-10.63-.65-21.28-1.06-31.93-1.46Z"/>
  <path class="cls-9" d="M432.32,192.19c9.36,1.96,18.74,3.87,28.35,4.42-10.98-.62-21.65-3.04-32.34-5.24,10.7,2.22,21.37,4.64,32.34,5.26,2.61.7,5.21,1.3,7.85,1.8,7.88,1.52,15.9,2.29,23.87,3.32,8.59,1.63,17.17,3.24,25.81,4.47,5.19.74,10.4,1.33,15.64,1.72,10.84,2.6,21.74,4.69,32.96,4.73,0,0-.01,0-.02-.01-11.22-.04-22.12-2.11-32.95-4.73-6.51-4.72-4.43-11.06-3.12-17.18.22-1.03.38-2.03.44-3.03-.06,1-.22,2.01-.44,3.03-1.32,6.12-3.4,12.46,3.12,17.18-5.24-.37-10.45-.98-15.64-1.72-8.64-1.24-17.23-2.85-25.81-4.47h0c-3.98-.52-7.97-.97-11.95-1.48-3.99-.51-7.96-1.08-11.9-1.84,3.94.76,7.92,1.33,11.9,1.84,3.98.51,7.97.96,11.95,1.47,0,0,0,0,0-.01-7.96-1.03-15.97-1.8-23.85-3.32-2.63-.5-5.25-1.08-7.85-1.8-.01-.27-.05-.54-.11-.81.06.26.1.54.11.81-9.61-.54-18.98-2.45-28.35-4.41Z"/>
  <path class="cls-9" d="M389.35,97.97s-.01,0-.02,0c-13.6-.56-27.21-1.18-40.81-1.76,13.6.58,27.2,1.2,40.81,1.76,0,0,.01,0,.02,0Z"/>
  <path class="cls-9" d="M480.18,157.59c-17.13-4.05-34.24-8.23-51.41-12.13,17.17,3.91,34.28,8.07,51.41,12.13Z"/>
  <path class="cls-9" d="M264.66,92.76c-12.62-.32-25.23-.82-37.82-1.26-.15,0-.29,0-.44-.01.15,0,.29,0,.44.01,12.61.45,25.22.95,37.82,1.26Z"/>
  <path class="cls-9" d="M202.38,90.09s-.04,0-.06,0c-.87-.13-1.91-.47-2.89-.44.98-.03,2.02.3,2.89.44.02,0,.04,0,.06,0Z"/>
  <path class="cls-9" d="M307.25,94.46c13.76.56,27.51,1.16,41.26,1.76-13.76-.59-27.51-1.22-41.26-1.76Z"/>
  <path class="cls-9" d="M460.56,195.8c-.06-.26-.14-.52-.25-.76,0,0,0,0,0,0,.1.24.19.49.24.75Z"/>
  <path class="cls-9" d="M458.68,193.41c-6.05-1.49-6.13-6.5-6.62-10.97.49,4.47.56,9.49,6.62,10.97Z"/>
  <path class="cls-9" d="M1431.9,178.97c-3.21-.79-5.45-3.13-8.75-3.78-15.07-2.97-30.1-6.07-45.17-9.03-32.29-6.34-64.47-13.27-96.64-20.15-1.55-.33-3.35-.28-4.95-.75-.36-.11-.7-.24-1.03-.41-.16-.08-.32-.17-.48-.28-.31-.21-.6-.45-.87-.74.27.3.57.55.88.76.15.11.32.2.48.28.33.17.67.3,1.03.41,1.6.48,3.4.42,4.95.75,32.18,6.89,64.35,13.81,96.64,20.15,15.07,2.96,30.11,6.05,45.17,9.03,3.29.66,5.53,2.99,8.75,3.78,9.91,2.42,19.77,5.05,29.97,6.08.97.1,2.26.23,2.79.9-.52-.69-1.83-.81-2.81-.91-10.19-1.03-20.04-3.65-29.97-6.08Z"/>
  <path class="cls-9" d="M130.89,126.48c-.13-.42-.23-.86-.29-1.3-.25-1.82-.75-3.57-1.39-5.27.64,1.68,1.13,3.42,1.37,5.23.06.45.17.9.3,1.34Z"/>
  <path class="cls-9" d="M220.82,141.81c-.12.08-.24.16-.36.24-.09.07-.19.13-.28.21-.17.15-.33.32-.44.52,0,0,0,0,.01,0,0,0,.02,0,.02.01.1-.18.24-.35.41-.49.08-.08.19-.15.28-.21.12-.08.24-.16.36-.24.71-.45,1.42-.89,1.16-1.94,0-.01,0-.02-.01-.03.25,1.05-.45,1.49-1.17,1.94Z"/>
  <path class="cls-9" d="M452.01,181.97c-.49-4.19-.96-8.59,1.35-12.53-2.31,3.94-1.85,8.34-1.35,12.53Z"/>
  <path class="cls-9" d="M329.61,122.88c-31.29-8.06-62.92-14.84-94.41-22.19,31.49,7.35,63.11,14.13,94.41,22.19Z"/>
  <path class="cls-9" d="M1118.18,146.59c-7.1-1.25-14.17-2.6-21.38-2.96,0,0,0,0,0,0,7.21.36,14.28,1.7,21.37,2.96,4.26.75,8.53,1.48,12.83,1.92,2.08.21,4.13.53,6.17.91,1.36.25,2.71.53,4.07.82,1.87.4,3.74.82,5.61,1.21-1.86-.4-3.72-.81-5.58-1.21-1.35-.29-2.71-.57-4.07-.82-2.05-.38-4.1-.7-6.17-.91-4.31-.45-8.57-1.16-12.83-1.92-7.09-1.25-14.18-2.6-21.4-2.96h0c7.22.36,14.3,1.71,21.38,2.96Z"/>
  <path class="cls-9" d="M1337.64,213.41c.65-.28,1.26-.4,1.86-.38-.6-.02-1.21.09-1.86.38Z"/>
  <path class="cls-9" d="M1094.31,141.93h0c-12.39-2.33-24.75-4.77-37.15-6.96-.92-.16-1.95-.38-2.94-.35.99-.03,2.01.19,2.92.35,12.41,2.19,24.78,4.65,37.16,6.96Z"/>
  <path class="cls-9" d="M1349.56,212.6c-1.31-.32-2.61-.67-3.92-.78-4.75-.38-9.45-1.37-14.17-2.1h-1.73c-.39-.37-.81-.6-1.24-.73.43.14.84.36,1.22.73-.36.3-.71.59-1.07.85-.07.05-.15.11-.22.16-.21.15-.42.28-.64.38-.37.2-.73.32-1.07.34-.12.03-.24.01-.34,0-.12-.03-.22-.05-.33-.09-.32-.12-.61-.37-.89-.78-.26-.4-.52-.96-.73-1.72h0c.22.01.45.03.67.03-.22,0-.44-.01-.66-.04-1.76-.29-3.53-.58-5.29-.87-.63-.69-1.36-.87-2.13-.9.76.03,1.49.21,2.11.9,1.76.29,3.53.58,5.29.87-1.76-.29-3.53-.58-5.29-.87h-.01c-.38.49-.74.87-1.07,1.16-.17.15-.34.26-.5.36-.17.11-.34.19-.5.22-.09.03-.2.05-.29.05,0,0,0,0,0,0,0,0,0,0,0,0,0,0,0,0,0,0-.09,0-.19-.01-.28-.03-.54-.11-1.01-.63-1.4-1.56.38.95.85,1.48,1.41,1.59.09.03.19.03.28.03.09-.01.19-.03.29-.05.16-.04.33-.12.5-.22.16-.09.33-.21.5-.36.34-.29.7-.67,1.07-1.16,1.76.29,3.53.58,5.29.87.21.75.45,1.31.73,1.72.26.4.57.65.89.78.11.05.22.08.33.09h.34c.34-.03.7-.15,1.07-.34.21-.11.42-.24.64-.38.07-.05.15-.11.22-.16.36-.25.71-.54,1.07-.85h.57c.4.01.78.01,1.16.01.02.09.04.18.06.27-.02-.09-.04-.17-.06-.27,4.72.73,9.42,1.72,14.17,2.1,1.31.11,2.61.46,3.92.78,2.17.52,4.36.91,6.61-.21,0,0,0,0-.01,0,0,0-.01,0-.02,0-2.23,1.09-4.41.7-6.57.19ZM1317.57,209.49c.16-.09.33-.21.5-.36-.17.15-.34.26-.5.36Z"/>
  <path class="cls-9" d="M777.94,95.03c.5.15.98.31,1.46.47.02,0,.04,0,.07,0-.49-.16-.98-.32-1.49-.48-.01,0-.02,0-.04,0Z"/>
  <path class="cls-9" d="M929.05,117.34c25.61.55,57.64,1.1,62.76,1.65,7.16,2.05,14.34,4.03,21.47,6.17,12.56,3.77,25.07,7.65,37.6,11.48.5.5.94,1.18,1.55,1.48,18.83,9.19,37.6,18.49,56.56,27.38,6.59,3.08,12.85,7.26,20.08,8.66,16.93,3.26,33.95,6.13,50.94,9.15,22.61,3.99,45.21,8,67.82,11.96,12.82,2.25,25.65,4.36,38.47,6.62,9.5,1.68,18.96,3.48,28.44,5.22,0,0,0-.02,0-.03.19.02.38.03.58.03-.19,0-.38,0-.56-.03-9.49-1.74-18.95-3.56-28.44-5.22-12.82-2.26-25.65-4.37-38.47-6.62-22.61-3.95-45.22-7.96-67.82-11.96-16.99-3.01-34-5.88-50.94-9.15-7.24-1.39-13.49-5.56-20.08-8.66-18.97-8.89-37.73-18.2-56.56-27.38-.61-.3-1.03-.98-1.55-1.48,0,0,0,0,0,0-12.53-3.83-25.04-7.7-37.59-11.48-7.13-2.14-14.31-4.12-21.47-6.17,0,0,0,0,0,.01h0c-5.12-.56-37.17-1.11-62.78-1.66,0,0,0,.02,0,.03Z"/>
  <path class="cls-9" d="M1335.13,214.05s-.02,0-.03,0c.01,0,.02,0,.03,0h0Z"/>
  <path class="cls-9" d="M1092.01,169.67c-9.26-.94-18.59-2-27.58-4.24-5.35-1.33-11.29-.69-16.1-4.13-.02,0-.03,0-.05,0,4.81,3.46,10.77,2.82,16.13,4.15,9,2.25,18.32,3.3,27.58,4.24,4.86.49,9.94,2.26,15.58-.49,0,0-.01,0-.02-.01-5.63,2.72-10.7.96-15.55.47Z"/>
  <path class="cls-9" d="M869.18,110.02c-12.74-2.55-25.64-3.96-38.45-6-14.39-2.3-28.78-4.61-43.26-6.3-2.12-.25-4.2-.92-6.42-1.68,0,0-.01,0-.02,0,2.23.76,4.3,1.44,6.42,1.68,14.49,1.69,28.87,4.02,43.26,6.3,12.81,2.04,25.71,3.45,38.45,6,9.27,1.86,18.75,4.04,28.15,3.41.26-.02.53-.03.79-.05,0,0,0,0,0-.01-.26.02-.52.03-.78.05-9.39.62-18.88-1.55-28.15-3.41Z"/>
  <path class="cls-9" d="M1043.83,159.59s-.01,0-.02,0c.13,1.06.69,1.65,1.79,1.68,0,0,0-.01,0-.02-1.08-.03-1.64-.63-1.77-1.66Z"/>
  <path class="cls-9" d="M1355.96,218.87c3.84.29,7.85.94,11.64,1.92,9.09,2.34,18.39,3.44,27.65,4.72,0,0,0,0,0,0,0,0,0,0,0,0-9.26-1.28-18.55-2.38-27.65-4.72-3.8-.98-7.79-1.63-11.64-1.92-5.09-.38-9.22-2.51-13.4-4.81-.06-.03-.12-.06-.18-.09.06.03.12.06.18.09,4.18,2.3,8.31,4.43,13.4,4.81Z"/>
  <path class="cls-9" d="M989.15,134.9c23.17,4.98,46.52,9.3,68.64,18.25,4.28,1.73,8.56,3.86,13.38,3.85,0,0,0-.02,0-.03,0,0,0,0,0,0-4.83.01-9.1-2.11-13.39-3.85-22.13-8.95-45.47-13.27-68.64-18.25-5.84-1.26-35.58-2.47-61.32-3.68,0,0,0,.02,0,.03,25.75,1.21,55.49,2.43,61.33,3.68Z"/>
  <path class="cls-9" d="M1398.24,225.95s-.02,0-.02,0c0,0,0,0-.01,0,0,0,0,0,.01,0,0,0,.02,0,.02,0Z"/>
  <path class="cls-9" d="M651.23,80.99s.01,0,.02.01c0,0-.01,0-.02-.01h0Z"/>
  <path class="cls-9" d="M1156.37,153.09c.59.07,1.17.14,1.76.19-.59-.05-1.18-.12-1.76-.19Z"/>
  <path class="cls-9" d="M1041.72,187.64c-19.51.05-99.61.11-127.68,0,0,.02,0,.04-.01.05,28.06.12,108.18.05,127.69,0,1.19,0,3.16.71,3.31-1.07,0-.01,0-.03,0-.04-.15,1.75-2.13,1.06-3.3,1.06Z"/>
  <path class="cls-9" d="M766.86,141.1c13.63.2,27.01,2.47,40.38,4.78-13.37-2.32-26.76-4.59-40.38-4.78Z"/>
  <path class="cls-9" d="M1154.31,152.83c.32.05.65.1.97.15-.33-.04-.65-.1-.97-.15Z"/>
  <path class="cls-9" d="M513.93,161.66c-.24.03-.48.07-.7.11-.09.02-.18.04-.27.07.09-.02.19-.05.28-.07.24-.05.46-.08.7-.11.6-.07,1.18-.08,1.68-.17,9.77-1.71,19.34-4.21,28.88-6.83h0c-9.54,2.62-19.11,5.12-28.89,6.83-.52.09-1.1.11-1.68.17Z"/>
  <path class="cls-9" d="M511.83,162.37c-.41.32-.73.8-.92,1.5,0,0,0,0,.01,0,.19-.7.5-1.18.9-1.5Z"/>
  <path class="cls-9" d="M1161,153.43c-.69-.02-1.37-.06-2.05-.11.68.05,1.37.09,2.05.11Z"/>
  <path class="cls-9" d="M1335.14,214.05c.71,0,1.52-.21,2.46-.63-.95.42-1.77.63-2.46.63Z"/>
  <path class="cls-9" d="M655.66,81.19c1.04.86,2.11,1.03,3.2.67-1.08.35-2.15.18-3.2-.67Z"/>
  <polygon class="cls-9" points="651.24 81.01 651.24 81 651.24 81 651.24 81.01"/>
  <path class="cls-9" d="M659.92,81.33c-1.43-.05-2.86-.11-4.29-.16-1.47-.07-2.93-.12-4.39-.18h0c1.48.08,2.95.13,4.42.2,1.43.05,2.86.11,4.29.16,2.39.11,4.8.2,7.2.3,0,0,81.33,10.28,102.17,12.93.01,0,.02,0,.03-.01-20.82-2.64-102.19-12.93-102.19-12.93.23.01,80.82,10.18,102.35,12.88,0,0,.02,0,.03,0-21.43-2.69-102.19-12.88-102.42-12.88-2.39-.09-4.8-.2-7.2-.29Z"/>
  <path class="cls-9" d="M530.2,141.52c3.95-1.74,7.9-3.5,11.84-5.26h0c-3.95,1.74-7.89,3.5-11.84,5.24-13.14,5.79-26.3,11.51-39.46,17.26,0,0,0,.01,0,.02,13.15-5.75,26.33-11.47,39.47-17.26Z"/>
  <path class="cls-9" d="M998.49,219.38c-2.25.63-4.46,1.35-6.75,1.89-8.12,1.94-61.08,2.64-87.31,4.45.04.01.07.03.11.05,26.26-1.8,79.09-2.51,87.2-4.44,2.29-.54,4.5-1.24,6.75-1.89.76-.22,1.61-.56,1.62-1.38-.04.78-.88,1.11-1.62,1.33Z"/>
  <path class="cls-9" d="M530.93,184.68c-.13-.64-.24-1.2-.32-1.7.08.5.2,1.06.32,1.7.01.06.01.11.02.17-.01-.06-.01-.11-.02-.17Z"/>
  <path class="cls-9" d="M537.34,178.16h0c-.07.03-.13.06-.2.08.07-.03.13-.06.2-.08Z"/>
  <path class="cls-9" d="M512.85,161.86s-.01,0-.02,0c0,0,.01,0,.02,0Z"/>
  <path class="cls-9" d="M531.13,187.63c.02-.47.03-.95,0-1.43.03.48.03.95,0,1.43Z"/>
  <path class="cls-9" d="M1399.55,226.26s.01,0,.02,0h0s-.01,0-.02,0Z"/>
  <path class="cls-9" d="M530.47,180.73c.04-.22.12-.4.22-.56-.1.16-.18.35-.22.56Z"/>
  <path class="cls-9" d="M593.07,197c-1.5-1.8-3.09-2.25-4.73-2.19,1.64-.06,3.23.39,4.72,2.19.26.31.67.45,1.1.45-.42,0-.83-.14-1.08-.45Z"/>
  <path class="cls-9" d="M598.18,193.67c-.44-.13-.8-.23-1.09-.26.29.03.65.13,1.08.26.38.12.78.18,1.18.19-.39-.01-.79-.08-1.17-.19Z"/>
  <path class="cls-9" d="M536.56,178.49c-.13.06-.27.11-.4.16.13-.05.27-.1.4-.16Z"/>
  <polygon class="cls-9" points="583.35 195.64 583.27 195.56 583.34 195.64 583.35 195.64"/>
  <path class="cls-9" d="M62,216.79h0c-10.03-1.02-20.08-1.85-30.12-2.85-.1,0-.19-.02-.29-.03.1,0,.19.02.29.03,10.03,1,20.08,1.84,30.12,2.85Z"/>
  <path class="cls-9" d="M530.47,180.73c-.05.27-.06.58-.03.95-.02-.37-.02-.69.03-.95Z"/>
  <path class="cls-9" d="M62,216.79c13.67,1.39,27.32,2.95,40.99,4.28-13.67-1.35-27.32-2.91-40.99-4.28Z"/>
  <path class="cls-9" d="M587.99,94.01c4.74-1.44,9.51-1.55,14.34-1.41,6.31.17,12.52-.52,18.73-1.55,6.75-1.12,13.57-1.69,20.39-2.21l.16-.04c-6.87.53-13.73,1.1-20.53,2.23-6.22,1.04-12.42,1.72-18.73,1.55-4.83-.15-9.6-.04-14.34,1.41-4.55,1.39-8.39-2.64-12.98-1.51.03-.47.11-.84.23-1.14-.13.3-.22.67-.25,1.16,4.59-1.14,8.44,2.89,12.98,1.51Z"/>
  <path class="cls-9" d="M480.75,157.72v.04c1.7.39,3.42.7,4.87,1.72.02,0,.04,0,.06,0,0,0,0,0,0,0-1.47-1.06-3.21-1.35-4.92-1.76Z"/>
  <path class="cls-9" d="M487.99,159.57s0,0,0,0c.5-.01.99,0,1.46-.09.46-.08.91-.28,1.28-.7-.37.42-.81.61-1.28.7-.47.09-.97.07-1.46.09Z"/>
  <path class="cls-9" d="M490.5,101.9c1.77.01,3.56.05,5.34.12,3.57.15,7.11.45,10.64,1.12h0c-3.53-.69-7.09-.98-10.64-1.12-1.77-.07-3.56-.11-5.34-.12Z"/>
  <path class="cls-9" d="M1400.88,227.09c-.09-.12-.2-.24-.33-.34,0,0,0,0,0,0,0,0,0,0,0,0,.13.1.24.21.33.33Z"/>
  <path class="cls-14" d="M1849.84,185.07c20.8-2.59,41.42-2.05,61.97,2.06,2.71.54,5.46.94,8.2,1.41v-87.23c-12.77,2.66-25.14,6.82-37.65,10.36-37.36,10.59-74.67,21.3-112,31.98v.04c-.57.16-1.12.33-1.68.5-3.92,1.23-7.75,2.71-11.89,3.09-8.63,2.93-17.08,6.29-26.02,7.89-4.06.73-8.23,1.1-12.55.89-2-.09-4-.17-5.98-.22-2.01-.05-4.01-.11-6.02-.13-11.97-.17-23.97.09-35.96.05-30.85.04-61.69.11-92.54.11-16.15,0-32.31-.09-48.47-.13-21,.04-41.99.15-62.99.07-.59,0-1.18-.04-1.76-.1-9.73.09-22.34.15-34.71.05-.66.19-1.33.34-2.05.41-1.19.12-2.47.05-3.82-.19-.57-.1-1.13-.2-1.7-.3-6.92-.09-13.55-.24-19.31-.48-2.4.09-4.81,0-7.21-.17-1.6-.12-3.19-.26-4.78-.42-11.46-1.14-22.89-2.6-34.33-3.96-13.9-1.65-27.94-1.76-41.82-4.08-9.78-1.64-19.75-2.15-29.67-2.88-1.97-.15-3.92-.53-5.87-.79-1.47-.2-2.94-.34-4.43-.28-.5.03-.99.07-1.5.15,0,0,0,0,0,.01h0c.22.42.47.77.75,1.07.27.29.56.54.87.74.16.11.32.2.48.28.33.17.67.3,1.03.41,1.6.48,3.4.42,4.95.75,32.18,6.89,64.35,13.81,96.64,20.15,15.07,2.96,30.1,6.05,45.17,9.03,3.29.65,5.53,2.99,8.75,3.78,9.92,2.43,19.78,5.05,29.97,6.08.98.1,2.28.22,2.81.91.18.23.27.51.24.89-.17,1.69-2.26,2-3.57,1.59-4.56-1.44-9.34-.25-13.96-1.47-3.93-1.03-7.96.56-12.14.09-6.93-.77-13.98-1.18-21.04-1.27-15.23-.21-30.48-.59-45.66-1.8-11.48-.91-23.09-.33-34.46-3.2-8.35-2.09-15.96-5.88-23.71-9.19-13.2-5.63-26.42-11.22-39.72-16.64-8.28-3.37-16.6-6.65-24.78-10.27-3.11-1.37-6.06-1.68-8.82-.09-9.01,5.21-17.75,10.88-27.16,15.4-.47.22-.74.86-1.09,1.33,8.95,2.69,18.28,3.41,27.43,5.08,14.82,2.72,29.71,4.93,44.56,7.45,19.75,3.37,39.48,6.81,59.22,10.26,21.04,3.66,42.12,7.11,63.09,11.11,23.52,4.49,47.27,7.61,70.85,11.79,11.96,2.11,23.93,4.11,35.89,6.24,22.98,4.08,45.99,8.04,68.91,12.44,7.5,1.44,15.06,2.74,22.5,4.47h318.75v-11.62c-10.58-1.41-20.96-4.02-31.41-6.13-24.65-4.98-49.28-10.02-73.93-15.01-8.77-1.78-17.36-4.44-26.39-5.14.04-.02.09-.02.13-.04-.04,0-.09-.01-.13-.01,6.19-2.14,12.59-2.01,18.85-2.72,14.22-1.64,28.51-2.66,42.71-4.43Z"/>
  <path class="cls-11" d="M396.77,201.26c-8.86-3.42-17.73-6.86-26.57-10.32-1.3-.52-2.71-.96-3.76-2.62,0,0,.01,0,.02,0,0,0,0,0,0,0,10.55-2.3,20.67,1.74,31.01,1.08-.08-.53-.26-.94-.53-1.27-1.03-1.3-3.2-1.22-3.43-2.91-.01-.15-.01-.29-.01-.46,0,0,0,0,.01,0,0,0,0,0,0-.01-2.51-1.2-5.16-1.89-7.83-2.44-.91-.19-1.82-.36-2.74-.53-.9-.17-1.8-.33-2.7-.51-.64-.13-1.28-.26-1.92-.41-7.51-1.72-15.12-3.09-22.69-4.61h0c-.07.13-.15.28-.23.44,0,0,0,0,0,0-.23.47-.48.97-.59.96,0,0,0,0,0,0-.07-.02-.13-.02-.19-.03-3.59-.84-6.82,1.07-10.27,1.39,0,0-.02,0-.03,0-19.51,1.8-38.99-.85-58.48-.09-1.75.07-3.5.1-5.25.11-.03,0-.06,0-.09,0-12.47.08-24.89-1.05-37.35-1.15-4.15-.03-8.35-1.44-12.45-2.48-.06-.02-.13-.03-.2-.05-22.3-5.64-44.5-11.58-66.87-16.98-.08-.02-.15-.04-.22-.06-26.63-6.42-52.99-13.84-79.51-20.63h0c-26.24-6.73-52.54-13.22-78.8-19.82-1.71-.42-3.37-1-5.05-1.52v94.28c.1.01.19.02.29.03,10.4,1.09,20.82,2.22,31.24,3.26.1,0,.19.02.29.03,10.04,1,20.1,1.84,30.12,2.85h0c13.67,1.37,27.32,2.93,40.99,4.28,13.53,1.32,27.11,2.33,40.63,3.74,15.4,1.6,30.79,3.49,46.17,5.26.26.05.54.09.81.15h282.58c-6.63-2.36-13.27-4.72-19.85-7.22-18.88-7.18-37.71-14.47-56.56-21.74ZM386.98,182.58c1.12.25,2.22.54,3.31.89,1.09.35,2.17.76,3.22,1.26-1.05-.5-2.13-.91-3.22-1.26-1.09-.35-2.2-.64-3.31-.89-2.23-.51-4.5-.87-6.74-1.32,2.24.45,4.51.82,6.74,1.32Z"/>
  <path class="cls-4" d="M66.86,57.91c18.6,4.8,37.12,9.83,55.78,14.41,0,0,0,.01,0,.02,0,0,.01,0,.02,0,19,4.77,38,9.5,56.98,14.33,5.78,1.47,11.51,3.15,17.26,4.72.62-1.32,1.54-1.72,2.52-1.74.98-.03,2.02.3,2.89.44.02,0,.04,0,.06,0,7.98,1.17,16.03,1.13,24.03,1.41.15,0,.29,0,.44.01,12.59.44,25.2.94,37.82,1.26,14.2.34,28.39,1.12,42.59,1.69,13.76.54,27.51,1.16,41.26,1.76,13.6.58,27.21,1.2,40.81,1.76,0,0,.01,0,.02,0,15.35.62,30.72,1.16,46.09,1.78,3.55.14,7.1.28,10.65.41,10.65.4,21.3.8,31.93,1.46,2.96.18,5.94.22,8.92.25,1.19,0,2.38.01,3.57.03,1.79.01,3.57.05,5.34.12,3.56.15,7.11.44,10.64,1.12,0,0,0,0,0-.01-3.53-.67-7.09-.98-10.65-1.12,3.56.15,7.12.44,10.65,1.12,0,0,0,0,0-.01,10.82.38,21.66.82,32.45,1.61,4.33.32,8.64.69,12.95,1.14,2.14.22,4.3.48,6.46.74,1.14.13,2.32.05,3.49-.03,2.61-.17,5.2-.34,7.36,1.93,0,0,0,0,0,0,0,0,0,0,0,0,4.56-.42,9.16-.03,13.73-.13-4.58.12-9.17-.28-13.73.13,0,0,0,0,0,0,0,0,0,0,0,0,0,0,0,0,.01.01,4.56-.42,9.16-.03,13.73-.13.83-.03,1.67-.05,2.5-.12,1.24-.09,2.49-.24,3.73-.48,2.47-.46,2.91,1.24,3.04,3.15,5.25-.9,10.53-.94,15.84-.57,13.71-3.48,27.9-5.34,40.46-12.49l2.1-1.19c.7-.4,1.39-.81,2.08-1.23,1.36-.85,2.67-1.77,3.88-2.87,0,0,0-.02,0-.03-1.2,1.1-2.51,2.02-3.87,2.87,1.36-.85,2.67-1.77,3.87-2.87,0-1.79-.41-2.94-1.2-3.62-.23-.2-.48-.36-.77-.49-.99-.45-2.33-.52-3.93-.37-3.07.27-6.14.5-9.2.73-6.82.53-13.64,1.09-20.39,2.21-6.22,1.03-12.42,1.72-18.73,1.55-4.83-.13-9.6-.03-14.34,1.41-4.54,1.39-8.39-2.64-12.98-1.51.03-.49.12-.87.25-1.16.36-.88,1.06-1.05,1.65-1.18,8.55-1.88,17.19-3.25,25.92-3.75,11.07-.63,22.15-1.14,33.14-2.67,1.72-.24,2.89-.95,3.46-2.33.14-.36.25-.75.31-1.2-4.71-.87-9.47-1.18-14.24-1.35-2.86-.11-5.72-.16-8.56-.24-19.91-.63-39.68-3.04-59.52-4.23-10.39-.62-20.76-1.27-31.13-1.94-14.33-.94-28.84-.32-43.01-2.23-13.27-1.8-26.61-1.06-39.73-2.64-19.95-2.42-39.94-3.2-59.94-4-17.97-.73-35.75-4.07-53.77-3.66-13.77.32-27.47-1.3-41.2-1.85-17.2-.7-34.37-2.15-51.54-3.45-14.1-1.06-28.14-2.55-42.32-2.85-13.83-.3-27.66-1.55-41.49-2.51-8.15-.57-16.41-.66-24.42-1.82-15.25-2.22-30.63-1.06-45.84-2.64-16.7-1.73-33.34-3.95-50.15-4.2-10.97-.17-21.88-.87-32.81-1.72v1.69c16.14,3.94,32.06,8.77,48.18,12.69,6.22,1.51,12.42,3.08,18.63,4.68ZM652.7,95.45c-.69.42-1.38.83-2.08,1.23.7-.4,1.39-.81,2.08-1.23ZM582.95,108.39c.83-.03,1.67-.05,2.5-.12-.83.07-1.67.09-2.5.12ZM490.5,101.88c-1.19-.01-2.38-.03-3.57-.03,1.19,0,2.38.01,3.57.03Z"/>
  <path class="cls-13" d="M651.23,80.99c-.13-.14-.26-.25-.4-.33,0,0,0,0,0,0,.14.08.27.19.4.33h0Z"/>
  <path class="cls-13" d="M787.26,92.98c.38-.23.66-.69.8-1.51,2.08.27,4.17.52,6.26.76,1.07-.36,2.13-.72,3.2-1.08-3.35-1.44-7-1.41-10.5-1.56-.5-.03-.99-.05-1.49-.08-.46-.03-1.02-.08-1.69-.14,1.41.7,2.81,1.4,4.22,2.11-.14.81-.42,1.27-.78,1.5Z"/>
  <path class="cls-13" d="M651.24,80.99c1.46.07,2.92.12,4.39.18,1.43.05,2.86.11,4.29.16,2.39.09,4.8.2,7.2.29.23,0,80.99,10.19,102.42,12.88.36-.12.73-.23,1.09-.35,4.26-1.48,8.45-3.28,12.7-4.83-.01,0-.02,0-.04,0-4.23,1.55-8.39,3.33-12.63,4.81,4.24-1.47,8.41-3.26,12.63-4.81-21.54-2.03-133.54-16.34-147.24-17.23-14.46-.94-28.8-3.67-43.26-4.94-15.27-1.33-30.5-3.12-45.7-4.82-14.7-1.64-29.46-2.92-44.16-4.73-9.22-1.14-18.44-2.54-27.77-3.12-11.46-.73-22.82-2.78-34.25-4.07-9.51-1.08-19.06-1.81-28.58-2.88-8.63-.96-17.21-2.23-25.82-3.22-8.96-1.04-17.94-1.85-26.88-2.88-8.9-1.03-17.78-2.5-26.71-3.21-6.23-.49-12.37-1.59-18.59-2.06-9.22-.7-18.35-2.06-27.5-3.34-9.08-1.27-18.24-1.9-27.36-2.92-9.08-1.02-18.12-2.21-27.19-3.25-8.65-.99-17.32-1.84-25.96-2.85-8.63-1.02-17.21-2.26-25.84-3.26-9.1-1.06-18.24-1.85-27.35-2.93-9.3-1.11-18.69-1.43-27.9-3.32-2.05-.04-4.07-.18-6.09-.52-1.2-.2-2.39-.45-3.59-.79-1.18.04-2.34.08-3.51.12-1.12.44-1.84-.36-2.63-.89-10.09-.45-20.08-1.88-30.1-3.19-9.34-1.22-18.75-1.85-28.11-2.91-7.88-.89-15.73-2.09-23.6-3.03C18.42,1.97,9.21,1.02,0,0v38.78c10.91.85,21.84,1.56,32.81,1.72,16.82.26,33.46,2.47,50.15,4.2l.04.03c15.21,1.59,30.59.42,45.84,2.64,8.03,1.18,16.27,1.26,24.42,1.82,13.83.96,27.66,2.22,41.49,2.51,14.2.3,28.23,1.8,42.32,2.85,17.17,1.28,34.34,2.75,51.54,3.45,13.73.56,27.43,2.17,41.2,1.85,18.03-.41,35.8,2.95,53.77,3.66,20,.81,39.99,1.59,59.94,4,13.12,1.59,26.46.85,39.73,2.64,14.18,1.92,28.68,1.3,43.01,2.23,10.37.67,20.76,1.32,31.13,1.94,19.84,1.19,39.61,3.59,59.52,4.23,2.84.09,5.7.15,8.56.24,4.76.17,9.53.48,14.24,1.35l.79.04c2.96.15,5.93.28,8.89.42.4-.18.76-.2,1.1-.09.26.08.51.22.74.46h0Z"/>
  <path class="cls-13" d="M777.12,94.76s-.01,0-.02.01c.29.08.56.17.84.26.01,0,.02,0,.04,0-.29-.09-.57-.18-.86-.27Z"/>
  <path class="cls-10" d="M163.42,158.3c.07.02.15.04.22.06,22.35,5.39,44.57,11.33,66.87,16.98.06.02.13.03.2.05,4.1,1.04,8.3,2.46,12.45,2.48,12.46.09,24.88,1.23,37.35,1.15.03,0,.06,0,.09,0,1.75-.01,3.5-.05,5.25-.11,19.49-.75,38.96,1.89,58.48.09,0,0,.02,0,.03,0,3.45-.33,6.68-2.23,10.27-1.39.07.02.13.02.19.03,0,0,0,0,0,0,.11.01.35-.5.59-.96,0,0,0,0,0,0,.08-.16.16-.3.22-.44-7.77-1.72-15.55-3.42-23.31-5.14,7.77,1.72,15.55,3.42,23.31,5.14-.07.13-.15.28-.22.44.08-.16.16-.3.23-.44h0c-7.77-1.72-15.55-3.44-23.31-5.14-11.34-2.5-22.68-5-34.02-7.51-.54-.12-1.09-.24-1.63-.36-11.43-2.53-22.85-5.07-34.27-7.63-7.86-1.77-15.7-3.61-23.54-5.47-7.83-1.86-15.66-3.75-23.51-5.6-1.59.09-3.07-.2-4.51-.75-.87-.33-1.72-.74-2.58-1.22,2.37-.57,4.71-1.32,7.08.2.02,0,.03,0,.05,0,1.45,0,2.9.03,4.36.03.11-.2.26-.37.44-.52.09-.08.19-.15.28-.21.12-.08.24-.16.36-.24.71-.45,1.41-.88,1.17-1.94-.41-1.61-1.99-1.33-3.24-1.54-1.14-.2-2.26-.56-3.39-.83-10.07-.38-20.08-1.53-30.11-2.41-5.97-.52-11.97-.79-17.95-.98-9.95-.32-19.82-1.39-29.74-1.94-3.18-.17-5.74-2.68-6.66-5.69-.14-.44-.24-.88-.3-1.34-.25-1.81-.74-3.55-1.37-5.23-1.07-2.82-2.53-5.49-3.92-8.08-1.04-1.94-1.89-3.92-2.59-5.93-1.17-3.33-1.95-6.74-2.6-10.22-.09-.45-.17-.87-.28-1.27-.33-1.18-.84-2.13-1.98-3.08-4.03-3.38-6.69-7.71-8.25-12.64-.23-.71-.43-1.44-.61-2.17-.68-2.76.95-4.04,3.88-2.88,2.1.85,4.13,1.37,6.38,1.27,1.79-.08,3.2-.48,3.4-2.57-18.65-4.57-37.16-9.61-55.76-14.4,18.6,4.8,37.11,9.83,55.76,14.4,0,0,0-.01,0-.02-18.65-4.57-37.18-9.61-55.78-14.41-6.21-1.6-12.41-3.17-18.63-4.68C32.12,49.31,16.2,44.48.05,40.54c0,0-.02,0-.03,0v75.78c1.68.52,3.35,1.1,5.05,1.52,26.26,6.61,52.56,13.1,78.8,19.82h.03s0,.01,0,.01c26.53,6.79,52.88,14.21,79.51,20.63Z"/>
  <path class="cls-5" d="M355.63,176.24c-.07.13-.15.28-.22.44"/>
  <path class="cls-5" d="M122.64,72.34s.01,0,.02,0"/>
  <path class="cls-5" d="M122.64,72.34c-18.65-4.57-37.16-9.61-55.76-14.4"/>
  <path class="cls-15" d="M1814.67,197.41c24.65,5,49.28,10.03,73.93,15.01,10.45,2.11,20.82,4.72,31.41,6.13v-29.96c-2.74-.46-5.48-.87-8.2-1.41-20.55-4.11-41.17-4.65-61.97-2.06-14.2,1.77-28.48,2.79-42.71,4.43-6.21.72-12.57.59-18.72,2.68-.04.01-.09.02-.13.04,9.04.7,17.62,3.36,26.39,5.14Z"/>
  <path class="cls-19" d="M102.98,221.07c-13.67-1.33-27.32-2.89-40.99-4.28-10.04-1.02-20.1-1.85-30.12-2.85-.1,0-.19-.02-.29-.03-10.42-1.04-20.83-2.17-31.24-3.26-.1-.01-.19-.02-.29-.03v19.6h189.7s.03-.09.03-.15c-15.39-1.77-30.77-3.66-46.17-5.26-13.52-1.41-27.09-2.42-40.63-3.74Z"/>
  <path class="cls-15" d="M1007.42,154.97c.33-.99,1.49-.74,2.33-.62,4.63.67,9.23,1.45,13.86,2.11,2.53.36,5.03.86,7.54,1.36,4.18.83,8.36,1.64,12.65,1.73,0,.01,0,.02,0,.03,0,0,.01,0,.02,0,0-.01,0-.02,0-.03,0,0,0,0,0,0h0c.83,0,1.39.32,1.64.95-.25-.62-.81-.95-1.64-.96,0,0,0,0,0,.01.83.01,1.39.33,1.64.96.09.2.15.45.16.73,0,0-.01,0-.02,0,0,0,0,.01,0,.02,0,0,0,0,0,0,.89.01,1.77.03,2.66.03,0,0,.01,0,.02.01.02,0,.03,0,.05,0-.02-.01-.04-.02-.06-.04,1.08-.05,2.16-.09,3.24-.12h.13c1.1-.03,2.2-.03,3.29,0,2.22.07,4.45.24,6.64.62h0c4.82.83,8.58-.99,9.59-4.77-4.83.01-9.1-2.11-13.38-3.85-22.12-8.95-45.47-13.27-68.64-18.25-5.84-1.26-35.58-2.47-61.33-3.68,0,0,0-.02,0-.03,0,0,0,0,0-.01.56-3.43.99-6.9,1.18-10.42-2.75.07-5.42-.26-8.08-.77-2.65-.52-5.28-1.2-7.91-1.86.01,0,.03,0,.04-.01h0c5.4-2.1,10.75.61,16.11,0-.06-.26-.09-.51-.11-.76,0,0,0-.02,0-.03,25.61.55,57.65,1.1,62.78,1.65.28-1.44.56-2.88.85-4.32-4.99-.39-37.63-.78-63.21-1.17.09-.43.19-.86.27-1.3.12-.66.2-1.32.2-1.98-5.37,1.1-10.81,1.73-16.26,2.18-3.07.25-6.15.45-9.22.64-.05,0-.09,0-.14,0-2.07.13-4.13.25-6.2.39,0,0,0,0,0,.01-.26.02-.53.03-.79.05-9.41.63-18.88-1.55-28.15-3.41-12.74-2.55-25.64-3.96-38.45-6-14.39-2.29-28.78-4.61-43.26-6.3-2.12-.25-4.19-.93-6.42-1.68,0,0,.01,0,.02,0-.52-.18-1.05-.35-1.58-.53-.02,0-.04,0-.07,0-.48-.16-.97-.32-1.46-.47-.28-.09-.56-.18-.84-.26,0,0,.01,0,.02-.01,0,0,0,0,0,0,2.82-2.25,5.17-2.58,7.65-1.92.98.26,1.87.52,2.5.14.37-.23.64-.69.78-1.5-1.41-.71-2.81-1.42-4.22-2.11-.09-.04-.18-.09-.27-.13-.08.03-.15.06-.23.09-4.25,1.55-8.43,3.35-12.7,4.83-.36.12-.73.23-1.09.35,0,0-.02,0-.03,0-.05.02-.11.03-.16.05-.01,0-.02,0-.03.01-20.85-2.65-102.17-12.93-102.17-12.93-2.39-.11-4.8-.2-7.2-.3-.36.23-.73.4-1.09.51-1.09.35-2.15.19-3.2-.67-1.47-.07-2.94-.12-4.42-.19,0,0,0,0,0,0-.86,1.14-1.41.77-1.8-.37-2.96-.15-5.93-.28-8.89-.42-.26,0-.53-.03-.79-.04-.06.46-.18.86-.33,1.22-.57,1.38-1.74,2.09-3.46,2.33-10.99,1.53-22.07,2.04-33.14,2.67-8.73.5-17.37,1.88-25.92,3.75-.59.13-1.28.3-1.65,1.18-.12.29-.2.66-.23,1.14,4.59-1.14,8.43,2.89,12.98,1.51,4.74-1.45,9.51-1.56,14.34-1.41,6.31.17,12.52-.5,18.73-1.55,6.8-1.13,13.66-1.7,20.53-2.23l-.16.04c3.07-.24,6.14-.47,9.2-.73,1.6-.15,2.94-.08,3.93.37.29.13.54.29.77.49.79.68,1.21,1.83,1.2,3.62,0,0,0,0,0,0,0,0,0,0,0,0,0,0,0,.02,0,.03-1.2,1.1-2.51,2.02-3.88,2.87-.69.42-1.38.83-2.08,1.23l-2.1,1.19c-12.56,7.15-26.75,9.01-40.46,12.49-5.3-.37-10.58-.33-15.84.57-.13-1.9-.57-3.61-3.04-3.15-1.24.24-2.49.38-3.73.48-.83.07-1.67.09-2.5.12-4.58.11-9.17-.29-13.73.13,0,0,0,0-.01-.01,0,0,0,0,0,0,0,0,0,0,0,0,0,0,0,0,0,0,0,0,0,0,0,0-2.16-2.27-4.75-2.1-7.36-1.93-1.18.08-2.35.16-3.49.03-2.16-.26-4.31-.52-6.46-.74-4.31-.45-8.63-.82-12.95-1.14-10.8-.79-21.63-1.23-32.45-1.61,0,0,0,0,0,.01h0s0,0,0,.01h0c-.74,2.66-1.48,5.34-2.23,8h0c-4.5,15.89-9.01,31.76-13.52,47.63,0,0,0,0,0,0,13.16-5.75,26.32-11.47,39.46-17.26,3.95-1.74,7.9-3.5,11.84-5.25h0c7.02-3.11,14.03-6.24,21.05-9.36.56.61,1.11,1.2,1.67,1.8.44.86.75,1.73,1.01,2.6,1.72,6.11-.52,12.34-.3,18.5-2.06-.08-4.05.28-6.05.78-.29.07-.57.15-.86.22-4.69,1.26-9.37,2.57-14.05,3.86h0c4.69-1.28,9.37-2.6,14.07-3.86.29-.08.57-.16.86-.22,2-.5,3.97-.86,6.05-.78.42,2.09.58,4.27,1.32,6.24v-.03c.85,2.23,2.37,3.38,4.39.9.9-.94,1.59-1.98,2.17-3.08.34-.66.65-1.35.94-2.05.32-.75.6-1.51.89-2.27.11-.29.22-.58.33-.87.16-.41.32-.82.49-1.23.56-1.32,1.18-2.6,2.02-3.77,7.04-1.7,14.06-3.42,21.1-5.13,1.75.25,3.48.7,5.21.73,21.11.34,42.24.83,63.36.83,6.09-.01,12.17.24,18.24.48,6.09.24,12.16.48,18.24.45h30.84c10.28.01,20.56.03,30.84.09.33,0,.66.01.99.02,13.63.19,27.01,2.46,40.38,4.78,3.15.54,6.3,1.09,9.45,1.61,20.61,3.42,41.22,6.83,61.84,10.27,9.51,1.59,19.01,3.25,28.52,4.84,1.72.29,3.48.36,5.23.52,0,0,0,0,0,0,2.08.34,4.15.66,5.81,2,.24.2.46.41.69.65v-.03s.02.01.03.02c-.52,2.58-1.03,5.16-1.55,7.74,3.78.29,7.78.58,11.94.86-.23-.7-.6-1.36-1.24-1.99.64.62,1.01,1.3,1.24,1.99,35.85,2.47,83.39,4.94,98.42,7.75,4.64.87,9.3,2.72,14.25,2.13,1.57-.2,3.29.77,3.16,2.34,0,0,0,0,0,.01,0,.01,0,.03,0,.04-.15,1.78-2.12,1.07-3.31,1.07-19.52.04-99.64.11-127.69,0-1.43,5.34-3.19,10.59-5.56,15.64.27.25.54.51.81.75,3.93,3.62,79.41,6.15,83.59,9.99,1.39,1.28,3.8,1.43,5.69,2.21.61.25,1.38.82,1.51,1.37.03.14.04.27.04.39,0,.82-.86,1.16-1.62,1.38-2.25.65-4.46,1.35-6.75,1.89-8.11,1.94-60.94,2.64-87.2,4.44.86.31,1.89.45,3.12.38,1.16-.07,2.13.21,2.75.99h-.01c.92,1.15,1.97,1.91,3.08,2.39,4.98.09,7.91.21,7.02.38-.85.16-1.71.26-2.57.32h-28.87s-.05.04-.07.05h250.46s.06-.03.09-.05h-.09c1.12-.74,2.32-1.08,3.56-1.04,12.46.42,24.77-2.42,37.23-1.82,2.54.12,4.95.16,6.36-2.7.78-1.59,2.42-1.74,4.22-1.44,4.59.79,9.21,1.45,13.84,1.96h0c1.69.18,3.59.06,4.18-2.18-11.67-2.76-23.41-5.19-34.98-8.36-19.62-5.39-39.6-9.36-59.14-14.93-8.22-2.34-16.22-5.92-24.26-9.07-12.89-5.05-25.57-10.59-38.51-15.54-12.53-4.81-25.2-9.41-37.15-15.65-1.81-.94-3.72-1.69-5.6-2.5-.79-.35-1.94-.48-1.89-1.47,0-.14.03-.3.09-.49ZM1043.8,159.55c-4.29-.09-8.48-.9-12.65-1.73,4.18.83,8.36,1.64,12.65,1.73ZM551.9,105.88c-4.31-.45-8.63-.82-12.95-1.14,4.33.32,8.64.69,12.95,1.14ZM714.1,108.52c-.22.14-.44.28-.65.44-.41.31-.79.67-1.09,1.11-.15.22-.28.46-.38.73.11-.27.24-.51.38-.73.3-.44.67-.79,1.09-1.11.21-.16.42-.3.65-.44.36-.22.71-.44,1.07-.65-.36.21-.71.42-1.07.65ZM697.3,96.58c.09.07.17.15.25.22-.08-.08-.16-.16-.25-.22ZM698.04,106.54c.08-.38.21-.69.37-.91-.16.22-.28.53-.37.91ZM697.98,97.84h10.53-10.53ZM737.69,104.17h0ZM737.69,104.17c-.37-.85-.74-1.69-1.11-2.54.37.85.74,1.69,1.11,2.54ZM736.48,101.41c.09-.11.2-.22.29-.33-.09.11-.2.22-.29.33ZM723.64,112.96c3.55-3.09,7.61-5.21,11.99-6.74-4.37,1.55-8.44,3.65-11.99,6.74ZM723.65,112.97c-2.37-.45-4.72-.89-7.09-1.32,2.37.44,4.72.87,7.09,1.32ZM756.42,97.92c1.18-.29,2.34-.57,3.51-.85-1.16.28-2.33.56-3.51.85ZM631.78,119.04c-.21-.03-.44-.03-.65-.03.21,0,.44,0,.65.03ZM630.8,119.03c-.21,0-.44.01-.65.01.21,0,.44-.01.65-.01ZM577.08,120.74h.01s-.01,0-.01,0ZM664.31,117.89c-.16.4-.73.78-2.02,1.16-19.38,5.67-38.75,11.42-58.08,17.25-.98.29-2.26-.01-3.32.2-.24.05-.45.12-.66.24-.2.11-.38.26-.56.46-.25.3-.45.73-.57,1.31-7.03,1.7-14.05,3.42-21.09,5.12,0,0,0,0,0,0h-.01c.74-1.44,1.59-2.75,2.49-3.96-.9,1.22-1.75,2.52-2.49,3.96,0,0,.01,0,.02,0,.74-1.44,1.59-2.75,2.49-3.96.33-.44.66-.86,1.01-1.27.11-.13.22-.25.32-.37-.11.13-.23.25-.34.38.61-.73,1.23-1.41,1.89-2.05-.02.02-.03.03-.05.05.02-.02.04-.04.06-.06.04-.04.08-.07.12-.11.04-.04.08-.07.12-.11.67-.64,1.37-1.22,2.1-1.77.1-.08.19-.16.29-.23.91-.69,1.88-1.31,2.87-1.89,3.48-2.02,7.41-3.4,11.63-4.36,10.39-2.35,20.76-4.73,31.13-7.12.67-.16,1.27-.57,1.9-.88-.45-.47-.94-.7-1.46-.79.53.09,1.03.32,1.46.79,0,0,.01,0,.02,0,2.91-1.14,5.87-1.88,8.89-2.41,6.61-1.15,13.41-1.26,20.04-2.27h0s0,0,0,0c0,0,0,0,.01,0,.04.08.09.17.16.25.01.01.04.04.05.07.12.15.24.29.38.44.16.16.33.33.49.49.11.11.21.21.3.32.08.11.16.21.23.3.17.28.28.56.17.83ZM927.37,171.84c.53-2.22,1.32-4.33,2.22-6.41-.9,2.07-1.69,4.19-2.22,6.41Z"/>
  <path class="cls-13" d="M566.77,212.65s0,0,0,0c0,0,.01,0,.02.01-11.22-.04-22.12-2.13-32.96-4.73-5.24-.38-10.45-.98-15.64-1.72-8.64-1.23-17.23-2.84-25.81-4.47-7.96-1.03-15.98-1.8-23.87-3.32-2.63-.5-5.24-1.1-7.85-1.8-10.98-.62-21.65-3.04-32.34-5.26,0,0-.01,0-.02,0h0c-1.1-.22-2.2-.45-3.29-.67-2.73-.54-5.46-1.07-8.2-1.53-4.72-.79-9.43-1.63-14.16-2.43-.4-.22-.78-.45-1.18-.67-.81-.05-1.6-.12-2.41-.17-.37-.21-.74-.42-1.11-.65-1.48-.16-2.97-.32-4.45-.49,0,0,0,0-.01,0,0,.17,0,.32.01.46.23,1.69,2.39,1.61,3.43,2.91.26.33.45.73.53,1.27,0,0,0,0,0,.01-10.34.66-20.45-3.38-31-1.09,0,0-.01,0-.02,0,1.05,1.65,2.46,2.1,3.76,2.62,8.84,3.46,17.7,6.9,26.57,10.32,18.85,7.27,37.68,14.56,56.56,21.74,6.58,2.49,13.22,4.85,19.85,7.22.01,0,.02,0,.04.01h200.3c-.25-.07-.49-.15-.73-.22h0c-29.79-10.74-59.19-22.47-88.76-33.81-.07-.03-.13-.05-.19-.11-.17-.12-.33-.3-.5-.44l-.08-.08c-1.36-.37-2.76-.65-4.04-1.2-.77-.33-1.49-.78-2.13-1.4h-.37c-.87-.01-1.71-.11-2.3-.91-.57-.26-1.14-.54-1.71-.81h-1.1c0,1.35-.86,1.84-2.02,1.72-3.96-.4-5.08,2.19-5.53,5.31-.32,2.17-.7,4.26-1.47,6.36-.7,1.93-.38,3.4.48,4.65.86,1.25,2.25,2.28,3.7,3.36Z"/>
  <path class="cls-4" d="M916.6,230.21h1.35c.86-.05,1.72-.16,2.57-.32.89-.16-2.05-.29-7.02-.38-1.12-.48-2.16-1.24-3.08-2.39h.01c-.62-.78-1.59-1.06-2.75-.99-1.23.07-2.27-.07-3.12-.38-.04-.01-.07-.03-.11-.05,26.23-1.81,79.19-2.51,87.31-4.45,2.29-.54,4.5-1.26,6.75-1.89.75-.22,1.58-.55,1.62-1.33,0-.12,0-.25-.04-.39-.13-.56-.9-1.12-1.51-1.37-1.89-.78-4.3-.93-5.69-2.21-4.18-3.85-79.66-6.37-83.59-9.99-.27-.25-.54-.5-.81-.75,2.36-5.06,4.12-10.3,5.56-15.64,0-.02,0-.04.01-.05,28.07.12,108.17.06,127.68,0,1.17,0,3.15.69,3.3-1.06,0,0,0,0,0-.01.13-1.57-1.59-2.54-3.16-2.34-4.95.59-9.61-1.26-14.25-2.13-15.03-2.81-62.58-5.27-98.42-7.75,0,.03.02.05.03.08,0-.03-.02-.05-.03-.08-4.16-.29-8.17-.57-11.94-.86.52-2.58,1.03-5.16,1.55-7.74,0,0-.01-.01-.02-.02v.03c-.23-.24-.46-.45-.7-.65-1.66-1.34-3.73-1.66-5.81-2,.34,1.46-.08,2.35-.83,3.06-.09.09-.21.18-.32.28-.26.21-.54.41-.85.61-.32.21-.66.42-.99.66-9.57,6.67-20.78,8.58-31.77,10.76-15.49,3.08-30.72,7.22-46.13,10.56-14.99,3.25-29.87,6.95-44.81,10.44-.95.22-1.93.33-2.91.45-.33.04-.66.08-.98.13-5.5,1.23-10.99,2.56-16.47,3.89-9.14,2.21-18.3,4.37-27.56,6.01-.38.08-.71.46-1.06.72.13.02.24.04.37.05.41.05.82.11,1.23.16h0c-.41-.05-.82-.11-1.23-.16.41.05.82.11,1.23.16h-.01c.4.16.79.33,1.19.5,36.21,6.26,72.43,12.53,108.64,18.81h-.08s.05,0,.08.01h67.57ZM881.04,229.7c-6.44-.13-12.89-.33-19.33-.4,6.44.07,12.89.25,19.33.4,1.55.09,3.08.2,4.63.29h0c-1.55-.09-3.08-.18-4.63-.29Z"/>
  <path class="cls-19" d="M740.39,211.39l-1.19-.52h.01c.4.19.79.36,1.19.53-.4-.17-.79-.34-1.19-.52h0l-1.23-.16c-.13-.01-.24-.03-.37-.05,0,0,0,0-.01.01-9.21-.87-18.23-2.8-27.28-4.6-1.28-.25-2.58-.5-3.88-.75-21.1-4.02-42.35-7.45-63.2-12.49-33.87-8.17-68.13-14.41-102.08-22.12-6.54-1.49-13.23-2.31-19.84-3.44-3.47-1.12-6.93-2.26-10.4-3.4,0,0,0-.02,0-.03,0,0,0,0-.01,0-2.47.04-4.87-.59-7.33-.96-.54-.08-1.1-.15-1.64-.2-1.38-.11-2.78-.07-4.22.29.01,0,.02,0,.04.01,13.2,5.04,26.41,10.09,39.61,15.12,5.98,2.34,11.92,4.77,17.94,6.99,5.45,2.01,10.46,5.19,16.33,6.09h1.1c.57.26,1.14.54,1.71.81.6.82,1.43.9,2.3.91h.37s.07-.05.11-.07c-.05.03-.1.06-.15.1h.01c.65.63,1.36,1.07,2.13,1.4,1.28.56,2.69.83,4.04,1.2-2.01-3.59-3.38-4.35-5.7-2.92,2.33-1.45,3.7-.71,5.74,2.9l-.03.03.08.08s0,0-.01,0l-.07-.08h0s.08.09.08.09h0c.17.13.33.31.5.42.05.04.12.08.19.11,29.56,11.34,58.97,23.06,88.76,33.79.24.09.49.16.73.22h175.52c-36.21-6.28-72.43-12.54-108.64-18.81ZM522.17,168.93c.37.37.83.62,1.35.79-.52-.17-.98-.42-1.35-.79ZM588.34,194.81c1.64-.06,3.24.39,4.73,2.19.26.31.66.45,1.08.45-.43,0-.84-.14-1.1-.45-1.49-1.8-3.08-2.25-4.72-2.19ZM598.17,193.67c-.43-.13-.79-.23-1.08-.26.29.03.65.13,1.09.26.38.12.77.18,1.17.19-.4-.01-.8-.08-1.18-.19Z"/>
  <path class="cls-22" d="M583.85,196.09c-.17-.12-.33-.3-.5-.44"/>
  <path class="cls-22" d="M739.21,210.89h0c.4.17.79.34,1.19.52"/>
  <path class="cls-22" d="M739.21,210.89c-.41-.05-.82-.11-1.23-.16"/>
  <path class="cls-21" d="M1400.55,226.75c-.25-.2-.58-.36-.98-.49h0s0,0,0,0c.41.13.73.29.98.49,0,0,0,0,0,0Z"/>
  <path class="cls-21" d="M1400.55,226.75c-.25-.2-.58-.36-.98-.49-.38-.12-.82-.22-1.35-.32,0,0,0,0-.01,0-.79-.14-1.75-.26-2.95-.43,0,0,0,0,0,0-9.26-1.28-18.56-2.38-27.65-4.72-3.8-.98-7.81-1.63-11.64-1.92-5.09-.38-9.22-2.51-13.4-4.81-.06-.03-.12-.06-.18-.09-1-.53-1.93-.9-2.88-.94-.6-.02-1.21.09-1.86.38,0,0-.02,0-.03.01,0,0-.01,0-.02,0-.94.42-1.75.63-2.46.63,0,0,0,0-.01,0-.01,0-.02,0-.03,0-2.02,0-3.04-1.59-3.57-4.04-.02-.09-.04-.17-.06-.27-.38,0-.77,0-1.16-.01h-.57c-.36.3-.71.59-1.07.85-.08.05-.16.11-.22.16.07-.05.15-.11.23-.16-.08.05-.16.11-.23.16-.21.15-.42.28-.64.38-.37.2-.73.32-1.07.34h0-.34c-.11-.01-.22-.04-.33-.09-.32-.13-.62-.38-.89-.78-.28-.41-.52-.96-.73-1.72-1.76-.29-3.53-.58-5.29-.87-.37.49-.73.87-1.07,1.16-.17.15-.34.26-.5.36-.17.11-.34.19-.5.22-.11.03-.2.04-.29.05-.09,0-.19,0-.28-.03-.56-.11-1.03-.64-1.41-1.59-.13-.31-.25-.67-.36-1.07-9.48-1.74-18.94-3.54-28.44-5.22-12.82-2.26-25.65-4.37-38.47-6.62-22.61-3.96-45.21-7.97-67.82-11.96-16.99-3.01-34-5.88-50.94-9.15-7.24-1.4-13.49-5.58-20.08-8.66-18.96-8.89-37.73-18.2-56.56-27.38-.61-.3-1.05-.98-1.55-1.48-12.53-3.83-25.04-7.72-37.6-11.48-7.13-2.14-14.31-4.12-21.47-6.17-5.12-.55-37.15-1.1-62.76-1.65.03.25.05.51.11.76.01,0,.03,0,.04,0-.05.89-.11,1.76-.16,2.64-2.75.08-5.44-.25-8.08-.77-2.65-.52-5.28-1.2-7.91-1.86h0s-.03,0-.04.01c2.63.66,5.27,1.35,7.91,1.86,2.66.5,5.33.83,8.08.77-.19,3.52-.62,6.98-1.18,10.42,3,.14,6.06.28,9.12.42-3.07-.14-6.12-.28-9.12-.42,0,0,0,0,0,.01,25.75,1.21,55.49,2.43,61.32,3.68,23.17,4.98,46.5,9.3,68.64,18.25,4.29,1.73,8.56,3.86,13.39,3.85,0,0,0,0,0,0,0,0,0-.02.01-.03,12.07,3.53,24.57,5.83,36.41,12.24-.01,0-.02,0-.03.02,0,0,.01,0,.02.01-5.65,2.75-10.73.98-15.58.49-9.26-.94-18.59-2-27.58-4.24-5.36-1.33-11.32-.69-16.13-4.15,0,0-.01,0-.02-.01-.89,0-1.77-.01-2.66-.03,0,0,0,0,0,0-1.1-.03-1.66-.61-1.79-1.68,0-.01,0-.02,0-.03-4.29-.09-8.47-.9-12.65-1.73-2.51-.5-5.01-1-7.54-1.36-4.63-.66-9.23-1.44-13.86-2.11-.83-.12-2-.37-2.33.62-.06.18-.09.34-.09.49-.03.96,1.11,1.1,1.89,1.44,1.88.82,3.78,1.56,5.6,2.5,11.95,6.24,24.62,10.84,37.15,15.65,12.94,4.97,25.63,10.49,38.51,15.54,8.04,3.15,16.06,6.73,24.26,9.07,19.54,5.58,39.52,9.54,59.14,14.93,11.55,3.17,23.31,5.6,34.98,8.37,10.82,2.42,21.63,4.84,32.45,7.24h160.07c.07-1.85-.08-2.84-.83-3.45ZM955.7,132.48c.67.03,1.34.07,2,.1-.66-.03-1.33-.07-2-.1ZM961.6,132.77c5.12.26,9.86.52,13.95.79-4.09-.26-8.83-.53-13.95-.79ZM978.5,133.76c5.15.36,8.95.73,10.67,1.1-1.72-.37-5.51-.74-10.67-1.1ZM1329.73,209.73h.57-.57Z"/>
  <path class="cls-6" d="M957.7,132.57c-.66-.03-1.33-.07-2-.1"/>
  <path class="cls-6" d="M975.56,133.56c-4.09-.26-8.83-.53-13.95-.79"/>
  <path class="cls-6" d="M989.16,134.86c-1.72-.37-5.51-.74-10.67-1.1"/>
  <path class="cls-6" d="M936.95,131.6c-3.07-.14-6.12-.28-9.12-.42"/>
  <path class="cls-21" d="M1031.15,157.81c4.17.83,8.36,1.64,12.65,1.73-4.29-.09-8.47-.9-12.65-1.73Z"/>
  <path class="cls-21" d="M1578.73,225.75c-22.91-4.41-45.93-8.35-68.91-12.44-11.96-2.13-23.93-4.12-35.89-6.24-23.58-4.18-47.32-7.3-70.85-11.79-20.97-4-42.06-7.45-63.09-11.11-19.74-3.44-39.47-6.89-59.22-10.26-14.84-2.52-29.75-4.74-44.56-7.45-9.16-1.68-18.5-2.39-27.45-5.09-3.77-.49-7.54-.99-11.3-1.53-2.04-.29-4.06-.61-6.1-.93h.01c-9.23-1.47-18.42-3.21-27.49-5.51-.96.04-1.92.05-2.88.03-.69-.02-1.37-.06-2.05-.11-.27-.02-.54-.02-.81-.04-.59-.05-1.18-.12-1.76-.19-.36-.04-.73-.07-1.09-.12-.33-.04-.65-.1-.97-.15-2.5-.36-4.99-.84-7.46-1.37-1.87-.4-3.74-.82-5.61-1.21-1.36-.29-2.71-.57-4.07-.82-2.04-.38-4.09-.7-6.17-.91-4.3-.44-8.57-1.16-12.83-1.92-7.09-1.25-14.16-2.6-21.37-2.96.1.37.25.71.41.99h0c.11.2.22.36.36.5.58.69,1.35,1.07,2.18,1.31,1.03.29,2.14.4,3.12.63,16.31,4.04,32.7,7.81,49.02,11.87,25.6,6.36,51.15,12.86,76.71,19.32,19.3,4.88,38.62,9.74,57.89,14.75,17.72,4.6,35.39,9.33,53.04,14.13,5.61,1.52,11.1,3.49,16.64,5.25-.02,0-.03.01-.05.02,0,0,.01,0,.02,0,0,0,0,0,.01,0,0,0,0,0,0,0,5.24.08,10.03,1.89,14.84,3.59.44.16.87.32,1.31.46.87.3,1.76.59,2.65.87h.01c.89.26,1.77.52,2.67.74,15.31,3.73,30.46,8.05,45.67,12.13h-.03s0,0,0,0h177.94c-7.45-1.73-15-3.03-22.5-4.47Z"/>
  <path class="cls-14" d="M1204.68,225.16h0c-4.63-.5-9.25-1.16-13.84-1.96-1.8-.3-3.44-.15-4.22,1.44-1.42,2.85-3.82,2.82-6.36,2.7-12.46-.59-24.77,2.25-37.23,1.82-1.24-.04-2.43.3-3.56,1.04h101.84c-10.82-2.41-21.63-4.82-32.45-7.24,0,0,0,0,0,.01-.59,2.25-2.49,2.37-4.18,2.18Z"/>
  <path class="cls-4" d="M1377.65,218.08c-.9-.22-1.79-.48-2.67-.74h-.01c-.89-.28-1.77-.57-2.65-.87-.44-.15-.87-.3-1.31-.46-4.82-1.7-9.6-3.52-14.84-3.59,0,0,0,0,0,0-2.25,1.12-4.44.73-6.61.21-1.31-.32-2.61-.67-3.92-.78-4.75-.38-9.45-1.37-14.17-2.1.02.09.04.18.06.27.53,2.45,1.55,4.05,3.57,4.04.01,0,.02,0,.03,0h0s0,0,.01,0c.7,0,1.51-.21,2.46-.63,0,0,.01,0,.02,0,0,0,.02,0,.03-.01.65-.28,1.26-.4,1.86-.38.96.03,1.89.41,2.88.94.06.03.12.06.18.09,4.18,2.3,8.31,4.43,13.4,4.81,3.85.29,7.85.94,11.64,1.92,9.1,2.34,18.39,3.44,27.65,4.72,0,0,0,0,0,0,1.2.17,2.16.29,2.95.43,0,0,0,0,.01,0,0,0,.02,0,.02,0,0,0-.02,0-.02,0,.53.09.97.2,1.35.32,0,0-.01,0-.02,0,0,0,.01,0,.02,0h0c.41.13.73.29.98.49.13.1.24.21.33.34-.09-.12-.2-.23-.33-.33.76.6.9,1.59.84,3.46,0-.01,0-.02,0-.04,0,.01,0,.02,0,.04h21.92c-15.21-4.08-30.36-8.41-45.67-12.13Z"/>
  <path class="cls-4" d="M1400.55,226.75c-.25-.2-.58-.36-.98-.49.41.13.73.29.98.49,0,0,0,0,0,0,0,0,0,0,0,0Z"/>
  <path class="cls-15" d="M1461.88,185.07c-10.2-1.03-20.06-3.66-29.97-6.08-3.22-.79-5.45-3.12-8.75-3.78-15.06-2.97-30.1-6.07-45.17-9.03-32.29-6.34-64.47-13.27-96.64-20.15-1.55-.33-3.35-.28-4.95-.75-.36-.11-.7-.24-1.03-.41-.16-.08-.33-.17-.48-.28-.31-.21-.61-.45-.88-.76-.27-.3-.52-.65-.75-1.07h0c-9.56-.9-19.14-1.74-28.7-2.74h-.01c-11.46-1.18-22.9-2.52-34.36-3.73-11.62-1.22-23.21-2.79-34.89-3.25,0,0,0,0-.01,0,0,0,0,0,.01,0-3.02,2.72-7.04,3.45-10.5,5.29-.75.41-1.67.61-2.53.7-3.24.36-6.33,2.58-6.51,4.93-.01.15-.01.31,0,.46.25,2.64,2.71,5.91,6.06,7.08,1.08.38,1.91.65,2.08,1.86,9.08,2.31,18.26,4.06,27.49,5.5,2.02.32,4.06.62,6.1.93,3.76.54,7.53,1.04,11.3,1.53,0,0,0,0,0,0,.35-.46.62-1.1,1.09-1.33,9.41-4.52,18.15-10.19,27.16-15.4,2.77-1.59,5.72-1.28,8.82.09,8.18,3.62,16.5,6.9,24.78,10.27,13.3,5.42,26.51,11.01,39.72,16.64,7.75,3.3,15.36,7.1,23.71,9.19,11.38,2.87,22.98,2.29,34.46,3.2,15.17,1.2,30.43,1.59,45.66,1.8,7.05.09,14.1.5,21.04,1.27,4.18.46,8.22-1.12,12.14-.09,4.62,1.22,9.39.03,13.96,1.47,1.31.41,3.4.11,3.57-1.59.04-.37-.06-.66-.24-.89-.53-.67-1.82-.8-2.79-.9ZM1275.37,144.88c.33.17.67.3,1.03.41-.36-.11-.7-.24-1.03-.41Z"/>
  <path class="cls-20" d="M1276.4,145.29c-.36-.11-.7-.24-1.03-.41"/>
  <path class="cls-20" d="M1191.37,158.9c2.02.32,4.06.62,6.1.93"/>
  <path class="cls-4" d="M219.75,142.77c-1.45,0-2.9-.03-4.36-.03-.01,0-.02,0-.04,0h0c1.46,0,2.92.03,4.38.03-1.46,0-2.92-.03-4.38-.03,0,.59.01,1.17.03,1.76,7.84,1.85,15.66,3.74,23.48,5.6-7.82-1.86-15.65-3.75-23.48-5.6h0c7.85,1.86,15.68,3.75,23.51,5.61,7.83,1.86,15.68,3.71,23.54,5.47,11.41,2.56,22.82,5.1,34.25,7.63.54.12,1.09.24,1.63.36,11.35,2.51,22.7,5.01,34.04,7.51,7.77,1.72,15.55,3.42,23.31,5.14,7.57,1.52,15.17,2.88,22.69,4.61.64.15,1.27.28,1.92.41.89.18,1.78.34,2.67.51.91.17,1.83.34,2.74.53,2.69.55,5.34,1.23,7.86,2.44,1.48.16,2.98.33,4.46.49h-.03c.37.21.74.42,1.11.65.81.05,1.6.12,2.41.17h-.01c.4.22.78.45,1.18.67,4.72.82,9.43,1.64,14.16,2.43,2.74.46,5.48.98,8.2,1.53,1.1.22,2.2.45,3.29.67,1.34.28,2.68.56,4.01.84,9.36,1.96,18.74,3.87,28.35,4.41-.01-.27-.05-.54-.11-.81-.06-.26-.14-.52-.24-.77,0,0,0,0,0,.01,0,0,0,0,0,0,0,0,0,0,0,0,0,0,0,0,0,0-.21-.48-.5-.9-.84-1.2,0,0,0,0,0,0-.24-.2-.5-.34-.78-.41-6.06-1.49-6.13-6.5-6.62-10.97-.02-.14-.03-.29-.05-.43,0-.01,0-.02,0-.03-.5-4.19-.97-8.59,1.35-12.53.12-.21.25-.42.39-.63.82-1.22,1.16-2.47,1.26-3.74.01-.42.03-.86.01-1.28-.07-1.69-.43-3.41-.58-5.11,0,0,0,0,0,0-9.71-.82-19.42-1.61-29.13-2.47-5.37-.48-10.77-.3-16.17-.86-8.03-.83-16.13-1.19-24.21-1.59-2.7-.13-5.38-.26-8.08-.42-9.72-.63-19.44-1.35-29.16-1.94-3.24-.2-6.48-.38-9.72-.54-9.19-.45-18.35-1.26-27.53-1.78-19.41-1.11-38.83-1.72-58.24-2.8-10.17-.57-20.32-1.69-30.48-2.62-.66-.05-1.3-.54-1.94-.83,0-.01.02-.02.02-.03,0,0-.02,0-.02-.01,0,0,0,0-.01,0Z"/>
  <path class="cls-4" d="M386.98,182.58c1.12.25,2.22.54,3.31.89-1.09-.35-2.2-.64-3.31-.89Z"/>
  <path class="cls-4" d="M380.24,181.26c2.24.45,4.51.82,6.74,1.32-2.23-.51-4.5-.87-6.74-1.32Z"/>
  <path class="cls-4" d="M390.29,183.47c1.09.35,2.17.76,3.22,1.26-1.05-.5-2.13-.91-3.22-1.26Z"/>
  <path class="cls-1" d="M332.32,171.1c7.77,1.72,15.55,3.42,23.31,5.14"/>
  <path class="cls-1" d="M215.36,144.51s.02,0,.03,0"/>
  <path class="cls-1" d="M238.87,150.11c-7.82-1.86-15.65-3.75-23.48-5.6"/>
  <path class="cls-1" d="M219.74,142.77c-1.46,0-2.92-.03-4.38-.03"/>
  <path class="cls-1" d="M215.33,142.75s.02,0,.03,0"/>
  <path class="cls-4" d="M432.32,192.19c-1.34-.28-2.68-.56-4.01-.84h0s.01.02.02.02c10.7,2.21,21.37,4.62,32.34,5.24-9.61-.56-18.98-2.47-28.35-4.42Z"/>
  <path class="cls-1" d="M401.49,186.04c-.81-.05-1.6-.12-2.41-.17-.37-.22-.74-.44-1.11-.65"/>
  <path class="cls-14" d="M490.5,101.9c-1.19-.01-2.38-.03-3.57-.03-2.98-.03-5.95-.07-8.92-.25-10.63-.65-21.28-1.06-31.93-1.46-3.55-.13-7.1-.27-10.65-.41-15.37-.62-30.74-1.16-46.09-1.78,0,0-.01,0-.02,0-13.61-.56-27.21-1.18-40.81-1.76-13.76-.59-27.51-1.2-41.26-1.76-14.2-.57-28.39-1.35-42.59-1.69-12.61-.3-25.22-.81-37.82-1.26-.15,0-.29,0-.44-.01-8-.27-16.04-.23-24.03-1.41-.02,0-.04,0-.06,0-.87-.13-1.91-.46-2.89-.44-.98.03-1.9.42-2.52,1.74h0c.79.05,1.57.16,2.33.3,2.29.44,4.45,1.3,6.5,2.5h0c4.8.18,9.42,1.11,13.98,2.29,2.74.71,5.46,1.51,8.19,2.28,2.42.69,4.86,1.36,7.3,1.93,31.49,7.35,63.12,14.13,94.41,22.19,2.89.74,5.81,1.36,8.73,1.93,0,0,0,0,.01,0,8.8,1.7,17.69,3.01,26.06,6.42,16.05,3.54,32.1,7.02,48.13,10.59,5.34,1.19,10.69,2.38,16.03,3.59.06.01.13.03.19.04,17.17,3.9,34.28,8.07,51.41,12.13.19.04.38.09.57.13h0c1.71.41,3.45.7,4.92,1.76,0,0,0,0,0,0,0,0,0,0,0,0,.77.03,1.54.07,2.31.09.49-.03.99,0,1.46-.09.48-.09.91-.28,1.28-.7,0,0,0-.01,0-.02,0,0,0,0,0,0,4.51-15.87,9.02-31.75,13.52-47.62h0c.75-2.67,1.49-5.35,2.23-8.01-3.53-.67-7.07-.98-10.64-1.12-1.79-.07-3.57-.11-5.34-.12Z"/>
  <path class="cls-7" d="M486.93,101.86c1.19,0,2.38.01,3.57.03"/>
  <path class="cls-14" d="M506.49,103.13h0c-3.53-.69-7.09-.98-10.65-1.12,3.56.15,7.12.45,10.65,1.12Z"/>
  <path class="cls-2" d="M122.65,72.35c19,4.77,38,9.52,56.98,14.33-18.99-4.82-37.98-9.56-56.98-14.33Z"/>
  <path class="cls-20" d="M551.9,105.88c-4.31-.45-8.63-.82-12.95-1.14"/>
  <path class="cls-22" d="M656.56,92.58c-1.2,1.1-2.51,2.02-3.87,2.87"/>
  <path class="cls-22" d="M656.56,92.58s0,0,0,0"/>
  <path class="cls-22" d="M650.62,96.68c.7-.4,1.39-.81,2.08-1.23"/>
  <path class="cls-22" d="M697.3,96.58c.09.07.17.15.25.22"/>
  <path class="cls-11" d="M632.1,119.09c.53.09,1.02.32,1.46.79h0c-.44-.47-.94-.7-1.46-.79Z"/>
  <path class="cls-3" d="M631.13,119.01c.21,0,.44,0,.65.03"/>
  <path class="cls-3" d="M630.15,119.04c.21,0,.44-.01.65-.01"/>
  <path class="cls-15" d="M651.24,81c1.48.07,2.95.12,4.42.19-1.47-.07-2.94-.12-4.42-.19h0Z"/>
  <path class="cls-20" d="M649.43,80.65c-2.96-.15-5.93-.28-8.89-.42"/>
  <path class="cls-20" d="M651.24,81c1.48.07,2.95.12,4.42.19"/>
  <path class="cls-10" d="M582.94,108.39c-4.58.11-9.17-.29-13.73.13,4.56-.41,9.16-.01,13.73-.13Z"/>
  <path class="cls-5" d="M582.95,108.39c.83-.03,1.67-.05,2.5-.12"/>
  <path class="cls-20" d="M794.34,92.23c1.07-.36,2.14-.73,3.21-1.08"/>
  <path class="cls-20" d="M804.71,91.12c1.26.08,2.5.2,3.76.33"/>
  <path class="cls-15" d="M812.02,91.88c2.35.3,4.72.63,7.09.89-2.37-.25-4.72-.58-7.09-.89Z"/>
  <path class="cls-4" d="M658.86,81.86c.36-.12.73-.29,1.09-.51-1.43-.05-2.86-.11-4.29-.16,1.04.85,2.11,1.02,3.2.67Z"/>
  <path class="cls-1" d="M659.95,81.35c-1.43-.05-2.86-.11-4.29-.16"/>
  <path class="cls-4" d="M651.24,81.01s0,0,0,0c0,0-.01,0-.02-.01-.13-.14-.26-.25-.4-.33-.42-.24-.88-.25-1.39-.02h0c.4,1.13.95,1.5,1.8.37Z"/>
  <path class="cls-4" d="M651.24,81h0c-.23-.25-.48-.4-.74-.47-.33-.1-.69-.07-1.07.1.51-.23.98-.22,1.39.03.14.08.28.19.4.33,0,0,.01,0,.02.01Z"/>
  <path class="cls-11" d="M769.35,94.57c.05-.02.11-.03.16-.05-21.53-2.7-102.12-12.87-102.35-12.88,0,0,81.37,10.29,102.19,12.93Z"/>
  <path class="cls-8" d="M736.48,101.41c.09-.11.2-.22.29-.33"/>
  <path class="cls-3" d="M736.58,101.63c.37.85.74,1.69,1.11,2.54"/>
  <path class="cls-17" d="M698.41,105.62c-.16.22-.29.53-.37.91.09-.38.21-.69.37-.91Z"/>
  <path class="cls-8" d="M713.45,108.96c.21-.16.42-.3.65-.44"/>
  <path class="cls-8" d="M711.98,110.79c.11-.27.24-.51.38-.73"/>
  <path class="cls-17" d="M712.37,110.06c.3-.44.67-.79,1.09-1.11-.41.31-.79.67-1.09,1.11Z"/>
  <path class="cls-8" d="M714.1,108.52c.36-.22.71-.44,1.07-.65"/>
  <path class="cls-11" d="M881.04,229.7c1.55.11,3.08.2,4.63.3h0c-1.55-.11-3.08-.21-4.63-.3Z"/>
  <path class="cls-16" d="M904.67,100.22c.82-1.45,1.55-2.95,2.24-4.45"/>
  <path class="cls-16" d="M904.68,100.22c-.41.73-.83,1.44-1.3,2.14"/>
  <line class="cls-16" x1="902.49" y1="102.45" x2="903.37" y2="102.36"/>
  <path class="cls-14" d="M1162.28,139.05c.86-.09,1.77-.29,2.53-.7,3.47-1.84,7.49-2.56,10.5-5.29,0,0,0,0-.01,0-3.03-1.6-6.36-.63-9.53-1.04-14.05-1.86-28.17-3.2-42.3-4.28-7.44-.57-14.86-1.22-22.28-1.94-13.81-1.36-27.61-2.8-41.41-4.22-10.17-1.06-20.33-2.15-30.51-3.2-12.2-1.26-24.41-2.48-36.61-3.73-.28,1.44-.55,2.87-.84,4.31,0,0,0,0,0,0h0s0,0,0,0c7.16,2.05,14.34,4.03,21.47,6.17,12.55,3.78,25.06,7.65,37.59,11.48.85-1.52,2.07-1.97,3.34-2,.99-.03,2.02.19,2.94.35,12.41,2.19,24.76,4.64,37.15,6.96v-.02c1.16.21,1.65,1.15,2.47,1.7,0,0,0,.02,0,.03,7.22.36,14.31,1.7,21.4,2.96,4.26.75,8.52,1.47,12.83,1.92,2.06.21,4.11.53,6.17.91,1.36.25,2.73.53,4.07.82,1.86.4,3.72.82,5.58,1.21,2.48.53,4.96,1.01,7.46,1.37.32.05.65.1.97.15.36.05.73.08,1.09.12.59.07,1.17.14,1.76.19.27.02.54.03.81.04.68.05,1.37.09,2.05.11.95.02,1.91.01,2.88-.03,0,0,.02,0,.03,0-.17-1.22-.99-1.48-2.08-1.86-3.35-1.18-5.82-4.44-6.06-7.08-.01-.16-.02-.32,0-.47.18-2.36,3.28-4.57,6.51-4.93Z"/>
  <path class="cls-14" d="M1096.8,143.64h0c7.22.36,14.29,1.7,21.38,2.96-7.08-1.25-14.17-2.6-21.38-2.96Z"/>
  <path class="cls-20" d="M929.05,117.31c25.61.55,57.65,1.1,62.78,1.65"/>
  <path class="cls-4" d="M1061.58,161.75h0c-2.2-.37-4.42-.54-6.64-.61-1.1-.03-2.2-.03-3.29,0h-.13c-1.08.03-2.16.07-3.24.12.02.01.04.02.06.04,4.81,3.43,10.75,2.8,16.1,4.13,9,2.25,18.32,3.3,27.58,4.24,4.85.49,9.92,2.25,15.55-.47.01,0,.02,0,.03-.02-11.84-6.41-24.34-8.71-36.41-12.24,0,0,0,.02-.01.03,0,0,0,.02,0,.03-1,3.78-4.77,5.6-9.59,4.76Z"/>
  <path class="cls-4" d="M1045.59,161.25s.01,0,.02,0c-.01-.28-.07-.53-.16-.73-.25-.63-.81-.95-1.64-.96,0,.01,0,.02,0,.03.13,1.03.69,1.63,1.77,1.66Z"/>
  <path class="cls-4" d="M1043.82,159.56s0,0,0,0c0,0,0,0,0-.01h0Z"/>
  <path class="cls-4" d="M1045.46,160.51c-.25-.63-.81-.95-1.64-.96.83.01,1.39.34,1.64.96Z"/>
  <path class="cls-2" d="M501.94,162.7c.54.05,1.1.12,1.64.2,2.46.37,4.86,1,7.33.96.19-.7.51-1.18.92-1.5-.4.32-.72.8-.9,1.5,0,0,0,.02,0,.03,3.47,1.14,6.93,2.27,10.4,3.4,6.61,1.12,13.31,1.94,19.84,3.44,33.95,7.72,68.21,13.96,102.08,22.12,20.85,5.04,42.1,8.47,63.2,12.49,1.3.25,2.59.5,3.88.75,9.05,1.8,18.07,3.73,27.28,4.6,0,0,0,0,.01-.01.35-.25.68-.64,1.06-.72,9.26-1.64,18.42-3.81,27.56-6.01,5.48-1.32,10.97-2.66,16.47-3.89.32-.05.65-.09.98-.13.98-.12,1.96-.22,2.91-.45,14.94-3.49,29.82-7.19,44.81-10.44,15.41-3.34,30.64-7.48,46.13-10.56,10.98-2.18,22.2-4.08,31.77-10.76.33-.24.67-.45.99-.66.3-.2.58-.4.85-.61.11-.09.22-.19.32-.28.75-.71,1.18-1.6.83-3.06,0,0,0,0,0,0-1.75-.16-3.51-.22-5.23-.52-9.51-1.59-19.01-3.25-28.52-4.84-20.61-3.44-41.22-6.85-61.84-10.27-3.15-.52-6.3-1.07-9.45-1.61-13.38-2.31-26.75-4.58-40.38-4.78-.33,0-.66-.02-.99-.02-10.28-.07-20.56-.08-30.84-.09h-30.84c-6.09.03-12.16-.21-18.24-.45-6.07-.24-12.16-.49-18.24-.48-21.11,0-42.24-.49-63.36-.83-1.73-.03-3.47-.48-5.21-.73-7.04,1.7-14.06,3.42-21.1,5.13-.85,1.16-1.47,2.45-2.02,3.77-.17.41-.33.82-.49,1.23-.11.29-.22.58-.33.87-.29.77-.57,1.52-.89,2.27-.29.7-.6,1.39-.94,2.05-.58,1.1-1.27,2.14-2.17,3.08-2.02,2.48-3.55,1.33-4.38-.9v.03c-.75-1.97-.91-4.15-1.34-6.24-2.08-.08-4.05.28-6.05.78-.29.07-.57.15-.86.22-4.69,1.26-9.38,2.57-14.07,3.86-9.54,2.62-19.11,5.12-28.88,6.83-.5.09-1.08.11-1.68.17-.24.03-.46.05-.7.11-.1.02-.19.04-.28.07.09-.02.18-.05.27-.07.22-.04.46-.08.7-.11.58-.07,1.16-.08,1.68-.17,9.78-1.71,19.35-4.21,28.89-6.83,4.68-1.29,9.36-2.6,14.05-3.86.29-.08.57-.16.86-.22,2-.5,3.98-.86,6.05-.78-.21-6.16,2.02-12.4.3-18.5-.25-.87-.57-1.74-1.01-2.6-.56-.59-1.11-1.19-1.67-1.8-7.02,3.12-14.03,6.25-21.05,9.37-3.95,1.76-7.89,3.51-11.84,5.26-13.14,5.79-26.31,11.51-39.47,17.26-.37.42-.82.62-1.28.7-.47.09-.96.08-1.46.09,0,0,0,0,0,0-.77-.03-1.54-.07-2.31-.09,0,0,0,0,0,0-.02,0-.04,0-.06,0-1.46-1.02-3.17-1.33-4.86-1.72v-.04s-.01,0-.01,0c-.19-.04-.38-.09-.57-.13-17.13-4.05-34.24-8.22-51.41-12.13-.06-.01-.13-.03-.19-.04-5.34-1.22-10.69-2.41-16.03-3.59-16.03-3.57-32.1-7.04-48.13-10.59-8.37-3.41-17.27-4.72-26.06-6.42,0,0,0,0-.01,0-2.93-.57-5.85-1.18-8.73-1.93-31.3-8.06-62.92-14.84-94.41-22.19-2.45-.57-4.88-1.24-7.3-1.93-2.73-.77-5.45-1.57-8.19-2.28-4.57-1.18-9.19-2.12-13.98-2.28h0c-2.05-1.2-4.21-2.06-6.5-2.5-.77-.15-1.53-.25-2.33-.3-5.75-1.59-11.48-3.26-17.26-4.72-18.99-4.81-37.98-9.56-56.98-14.33-.19,2.11-1.6,2.51-3.4,2.59-2.25.09-4.29-.44-6.38-1.27-2.92-1.18-4.55.12-3.88,2.88.18.72.38,1.43.6,2.13,1.56,4.93,4.22,9.26,8.25,12.64,1.14.95,1.65,1.91,1.98,3.08.11.41.21.84.29,1.31.65,3.47,1.43,6.86,2.59,10.18.7,2.01,1.54,3.99,2.59,5.93,1.39,2.59,2.85,5.26,3.92,8.08.64,1.7,1.14,3.45,1.39,5.27.06.44.16.87.29,1.3.92,3.01,3.48,5.52,6.66,5.69,9.92.56,19.79,1.63,29.74,1.94,5.98.19,11.99.46,17.95.98,10.03.87,20.04,2.02,30.11,2.41,1.12.28,2.25.63,3.39.83,1.25.21,2.83-.07,3.24,1.54,0,.01,0,.02.01.03.25,1.06-.45,1.49-1.16,1.94-.12.08-.24.16-.36.24-.09.07-.2.13-.28.21-.18.14-.31.3-.41.49,0,.01-.02.02-.02.03.65.29,1.28.78,1.94.83,10.16.93,20.31,2.05,30.48,2.62,19.41,1.08,38.83,1.69,58.24,2.8,9.18.53,18.34,1.33,27.53,1.78,3.24.16,6.48.34,9.72.54,9.72.59,19.43,1.31,29.16,1.94,2.7.16,5.38.29,8.08.42,8.08.4,16.18.75,24.21,1.59,5.4.56,10.8.38,16.17.86,9.71.86,19.42,1.65,29.13,2.47,0,0,0,0,0,0,.15,1.71.51,3.42.58,5.11.01.42,0,.86-.01,1.28-.09,1.27-.44,2.52-1.26,3.74-.14.21-.27.42-.39.63-2.31,3.94-1.84,8.34-1.35,12.53,0,.01,0,.02,0,.03.02.14.03.29.05.43.49,4.47.57,9.49,6.62,10.97.28.07.54.21.78.41,0,0,0,0,0,0,.35.3.63.72.84,1.2,0,0,0,0,0,0,0,0,0,0,0,0,.1.24.19.5.25.76.06.26.1.54.11.81,2.59.71,5.21,1.3,7.85,1.8,7.88,1.52,15.89,2.29,23.85,3.32,0,0,0,0,0,.01,0,0,0,0,.01,0,0,0,0,0-.01,0h0c8.59,1.61,17.17,3.23,25.81,4.47,5.19.74,10.4,1.35,15.64,1.72-6.52-4.72-4.45-11.06-3.12-17.18.22-1.02.38-2.03.44-3.03-.06,1-.22,2.01-.44,3.03-1.31,6.12-3.39,12.46,3.12,17.18,10.83,2.62,21.73,4.69,32.95,4.73,0,0,0,0,0,0-1.45-1.07-2.84-2.11-3.7-3.36-.87-1.26-1.2-2.73-.49-4.67.77-2.1,1.15-4.19,1.47-6.36.45-3.11,1.57-5.71,5.53-5.31,1.16.12,2.01-.37,2.02-1.72-5.86-.9-10.88-4.08-16.33-6.09-6.02-2.22-11.96-4.65-17.93-6.99,0,0,0,0,0,0h0c-13.22-5.05-26.43-10.1-39.65-15.13.02,0,.04,0,.06-.01-.01,0-.02,0-.04-.01,1.44-.36,2.84-.4,4.22-.29ZM512.83,161.87s.01,0,.02,0c0,0-.01,0-.02,0ZM530.61,182.98c.08.5.2,1.06.32,1.7.01.06.01.11.02.17-.01-.06-.01-.11-.02-.17-.13-.64-.24-1.2-.32-1.7ZM531.13,186.2c.03.48.03.95,0,1.43.02-.47.03-.95,0-1.43ZM537.34,178.16c-.07.03-.13.06-.2.08.07-.03.13-.06.2-.08h0ZM536.16,178.65c.13-.05.27-.1.4-.16-.13.06-.27.11-.4.16ZM530.47,180.73c.04-.22.12-.4.22-.56-.1.16-.18.35-.22.56-.05.27-.06.58-.03.95-.02-.37-.02-.69.03-.95ZM376.83,153.29c2.7.16,5.38.29,8.08.42-2.7-.13-5.38-.26-8.08-.42Z"/>
  <path class="cls-21" d="M492.37,201.73s0,0,.01,0c0,0,0,0-.01,0-3.98-.51-7.97-.96-11.95-1.47,3.98.51,7.97.96,11.95,1.47Z"/>
  <path class="cls-21" d="M480.42,200.26c-3.99-.51-7.96-1.08-11.9-1.84,3.94.76,7.92,1.33,11.9,1.84Z"/>
  <path class="cls-21" d="M460.31,195.03c.1.24.18.5.24.77.06.26.1.54.11.81-.01-.27-.05-.54-.11-.81-.06-.26-.14-.51-.24-.75,0,0,0,0,0-.01Z"/>
  <path class="cls-22" d="M574.42,192.04c-.57-.26-1.14-.54-1.71-.81"/>
  <path class="cls-19" d="M576.72,192.96c-.87-.01-1.71-.11-2.3-.91.6.82,1.43.9,2.3.91Z"/>
  <path class="cls-22" d="M523.52,169.72c-.52-.17-.98-.42-1.35-.79"/>
  <path class="cls-19" d="M583.27,195.57c-1.35-.37-2.75-.65-4.03-1.2,1.27.56,2.67.83,4.03,1.2Z"/>
  <path class="cls-20" d="M783.29,89.32c.1-.04.19-.07.29-.11"/>
  <path class="cls-20" d="M783.29,89.32c-4.23,1.55-8.39,3.33-12.63,4.81"/>
  <path class="cls-20" d="M756.42,97.92c1.18-.29,2.34-.57,3.51-.85"/>
  <path class="cls-20" d="M716.56,111.65c2.37.44,4.72.87,7.09,1.32"/>
  <path class="cls-19" d="M881.04,229.7c-6.44-.15-12.89-.33-19.33-.4,6.44.07,12.89.26,19.33.4Z"/>
  <path class="cls-22" d="M927.37,171.84c.53-2.22,1.32-4.33,2.22-6.41"/>
  <path class="cls-15" d="M1052.43,138.1c18.83,9.19,37.59,18.49,56.56,27.38,6.59,3.09,12.85,7.27,20.08,8.66,16.93,3.26,33.95,6.13,50.94,9.15,22.6,4,45.21,8.01,67.82,11.96,12.82,2.25,25.65,4.36,38.47,6.62,9.5,1.67,18.96,3.48,28.44,5.22.19.02.37.03.56.03.57,0,1.16-.06,1.73-.04.76.03,1.5.21,2.13.9,1.76.29,3.53.58,5.29.87.22.03.44.04.66.04,1.14,0,2.31-.25,3.39.1.43.13.85.36,1.24.73h1.73c4.72.73,9.42,1.72,14.17,2.1,1.31.11,2.61.46,3.92.78,2.15.51,4.34.9,6.57-.19.02,0,.03-.01.05-.02-5.54-1.76-11.03-3.73-16.64-5.25-17.65-4.8-35.32-9.53-53.04-14.13-19.28-5.01-38.59-9.87-57.89-14.75-25.56-6.46-51.11-12.97-76.71-19.32-16.31-4.06-32.7-7.82-49.02-11.87-.98-.24-2.09-.34-3.12-.63-.83-.24-1.6-.62-2.18-1.31-.13-.15-.25-.3-.36-.49h0c-.17-.3-.31-.63-.41-1,0,0,0,0,0,0h0s0-.02,0-.03c-.82-.56-1.31-1.49-2.46-1.7v.02s-.01,0-.01,0c-12.38-2.31-24.75-4.77-37.16-6.96-.92-.16-1.94-.38-2.92-.35-1.28.04-2.49.48-3.34,2,0,0,0,0,0,0,.52.5.94,1.18,1.55,1.48ZM1097.57,145.15c-.13-.15-.25-.3-.36-.49.11.19.23.34.36.49Z"/>
  <path class="cls-20" d="M1324.44,208.84c-1.76-.29-3.53-.58-5.29-.87"/>
  <path class="cls-20" d="M1097.21,144.66c.11.19.23.34.36.49"/>
  <path class="cls-4" d="M1324.44,208.84h0c.21.77.46,1.33.73,1.73.28.41.57.66.89.78.11.04.21.07.33.09.11.01.22.03.34,0,.34-.03.7-.15,1.07-.34.21-.11.42-.24.64-.38.08-.05.16-.11.22-.16.36-.25.71-.54,1.07-.85-.39-.37-.8-.6-1.22-.73-1.08-.34-2.26-.09-3.39-.1-.23,0-.45-.01-.67-.04Z"/>
  <path class="cls-1" d="M1328.66,210.57c-.08.05-.16.11-.23.16"/>
  <path class="cls-4" d="M1316.48,209.74c.09.01.19.03.28.03,0,0,0,0,0,0-.09,0-.18,0-.27-.03.09.03.18.03.27.03.09,0,.2-.03.29-.05.16-.04.33-.12.5-.22.16-.09.33-.21.5-.36.33-.29.69-.67,1.07-1.16h.01c-.63-.69-1.36-.87-2.11-.9-.57-.02-1.15.04-1.73.04-.19,0-.39,0-.58-.03,0,0,0,.02,0,.03.11.4.23.76.36,1.07.38.93.85,1.45,1.4,1.56Z"/>
  <path class="cls-1" d="M1318.07,209.13c-.17.15-.34.26-.5.36"/>
  <path class="cls-1" d="M1316.77,209.77s0,0,0,0"/>
  <path class="cls-1" d="M1316.77,209.77c-.09,0-.18,0-.27-.03"/>
  <path class="cls-18" d="M384.91,153.72c-2.7-.13-5.38-.26-8.08-.42"/>
  <path class="cls-4" d="M578.02,143.63s0,0,0,0c0,0-.01,0-.02,0h.01Z"/>
  <path class="cls-4" d="M663.92,116.75c-.09-.11-.2-.21-.3-.32-.16-.16-.33-.33-.49-.49-.15-.15-.26-.29-.38-.44-.01-.03-.04-.05-.05-.07-.07-.08-.12-.17-.16-.25,0,0,0,0-.01,0,.04.08.09.17.16.25-.07-.08-.12-.17-.16-.25-6.64,1.02-13.43,1.12-20.04,2.27-3.02.53-5.98,1.27-8.89,2.41,0,0-.01,0-.02,0h0c-.63.3-1.23.72-1.9.88-10.37,2.39-20.74,4.77-31.13,7.12-4.22.96-8.15,2.34-11.63,4.36-.99.58-1.96,1.2-2.87,1.89-.1.07-.19.16-.29.23-.73.55-1.43,1.14-2.1,1.77-.04.04-.08.07-.12.11-.04.04-.08.07-.12.11-.02.02-.04.04-.06.06.02-.02.03-.03.05-.05-.66.63-1.28,1.32-1.89,2.05.11-.13.23-.26.34-.38-.11.12-.22.24-.32.37-.34.41-.67.83-1.01,1.27-.9,1.21-1.74,2.52-2.49,3.96,7.03-1.7,14.05-3.42,21.09-5.12.12-.58.32-1,.57-1.31.17-.2.36-.36.56-.46.21-.12.42-.18.66-.24,1.06-.21,2.34.09,3.32-.2,19.33-5.83,38.7-11.58,58.08-17.25,1.3-.38,1.87-.77,2.02-1.16.11-.28,0-.56-.17-.83-.07-.09-.15-.2-.23-.3ZM663.9,116.75c-.09-.11-.2-.21-.3-.32.11.11.21.21.3.32ZM663.11,115.95c-.15-.15-.28-.29-.38-.44.11.15.24.29.38.44Z"/>
  <path class="cls-1" d="M580.49,139.67c-.9,1.22-1.75,2.52-2.49,3.96"/>
  <path class="cls-1" d="M599.1,138.51c.12-.58.32-1,.57-1.31"/>
  <path class="cls-1" d="M663.9,116.75c-.09-.11-.2-.21-.3-.32"/>
  <path class="cls-1" d="M662.52,115.19h0"/>
  <path class="cls-1" d="M662.52,115.19c.04.08.09.17.16.25"/>
  <path class="cls-1" d="M663.11,115.95c-.15-.15-.28-.29-.38-.44"/>
  <path class="cls-1" d="M599.1,138.51c-7.03,1.7-14.05,3.42-21.09,5.12"/>
  <path class="cls-1" d="M578,143.63s.01,0,.02,0"/>
  <line class="cls-22" x1="577.09" y1="120.73" x2="577.08" y2="120.74"/>
  <path class="cls-14" d="M791.19,85.1c-.57.31-1.16.51-1.85.5.69,0,1.29-.2,1.85-.5Z"/>
  <path class="cls-14" d="M789.34,85.6c-.23,0-.47-.03-.72-.08.25.05.49.08.72.08Z"/>
  <path class="cls-4" d="M723.64,112.96c3.55-3.09,7.62-5.19,11.99-6.74-4.38,1.53-8.44,3.65-11.99,6.74Z"/>
  <path class="cls-23" d="M929.23,174.44s-.02-.05-.03-.08c-.23-.7-.6-1.37-1.24-1.99.64.64,1.01,1.3,1.24,1.99,0,.03.02.05.03.08Z"/>
  <path class="cls-4" d="M787.26,92.98c-.62.38-1.52.12-2.5-.14-2.47-.66-4.83-.33-7.65,1.92,0,0,0,0,0,0,.29.09.58.18.86.27.51.16,1,.32,1.49.48.54.18,1.06.36,1.58.53,2.22.75,4.29,1.43,6.42,1.68,14.49,1.69,28.87,4,43.26,6.3,12.81,2.04,25.71,3.45,38.45,6,9.27,1.86,18.76,4.03,28.15,3.41.26-.02.52-.03.78-.05,2.06-.14,4.13-.26,6.2-.39,3.12-.19,6.25-.39,9.37-.65,5.45-.45,10.89-1.08,16.26-2.18.05-.89.11-1.77.15-2.66-9.16-1.06-18.31-2.11-27.47-3.2h.03c-11.05-1.3-22.07-2.71-33.13-3.91-12.21-1.33-24.5-2.1-36.66-3.78-12.81-1.77-25.68-2.9-38.52-4.39-.01,0-.02,0-.03,0-2.09-.24-4.17-.49-6.26-.76-.14.83-.42,1.29-.8,1.51Z"/>
  <path class="cls-1" d="M913.7,112.35c5.45-.45,10.89-1.08,16.26-2.18"/>
  <path class="cls-4" d="M913.05,118.1h0c2.63.67,5.27,1.36,7.91,1.88,2.65.52,5.33.85,8.08.77.05-.89.11-1.76.16-2.64-.01,0-.03,0-.04,0-5.36.61-10.71-2.09-16.11,0Z"/>
  <path class="cls-12" d="M677.23,231.96c-.79-.95-1.94-1.27-3.1-1.57,1.15.3,2.29.62,3.1,1.57Z"/>
</svg>