<?xml version="1.0" encoding="UTF-8"?>
<svg id="Layer_1" data-name="Layer 1" xmlns="http://www.w3.org/2000/svg" viewBox="0 0 320.75 62.71">
  <defs>
    <style>
      .cls-1 {
        fill: #fff;
      }

      .cls-1, .cls-2, .cls-3, .cls-4 {
        stroke-width: 0px;
      }

      .cls-2 {
        fill: #f6ee11;
      }

      .cls-3 {
        fill: #e20673;
      }

      .cls-4 {
        fill: #4194d8;
      }
    </style>
  </defs>
  <g>
    <path class="cls-1" d="M172.38,24.84c1.1-2.12,3.64-3.23,5.76-3.15,2.1-.1,4.53-.03,5.68,1.7,1.23,1.99.1,4.69-.22,7.02-.97.01-1.93-.04-2.84-.26.23-1.44.67-2.91.58-4.32-.41-1.9-2.87-1.74-4.56-1.42-2.34.75-2.91,3.83-1.75,5.34,1.81,2.5,4.1,4.59,6,7.02.81,1.15,1.45,2.57,1.11,4.16-.22,1.23-.27,2.56-1.05,3.69-1.07,1.76-3.24,2.64-5.07,2.66-2.23.05-4.85.25-6.24-1.49-1.59-1.82-.19-4.69,0-7.02.91-.01,1.82-.01,2.72,0-.17,1.58-.9,3.31-.34,4.76.63,1.25,2.28,1.29,3.65,1.2,1.07.04,2.31-.53,2.92-1.55.54-1.39.73-2.99-.12-4.08-1.48-2.14-3.4-3.9-5-5.93-1.07-1.32-2.4-2.79-2.02-4.79.17-1.18.29-2.39.76-3.55Z"/>
    <path class="cls-1" d="M311.4,22.34c1.7-.84,3.48-.64,5.18-.63,1.85,0,3.6,1.03,4.02,2.79.49,1.79-.3,3.79-.48,5.68-1,.25-2.01.29-2.96.1.12-1.66,1.03-3.55.26-5.01-.65-1.2-2.28-1.05-3.59-.98-1.28,0-2.64,1.16-2.82,2.45-.3,1.11-.26,2.3.43,3.11,1.88,2.34,3.89,4.56,5.82,6.87,1.12,1.36,1.67,3.25,1.17,5.2-.15,1.91-1.48,3.9-3.36,4.76-1.92.9-3.92.63-5.82.6-2.22-.05-4.1-1.75-3.95-4.03.15-1.47.47-2.96.7-4.43.98-.04,1.97-.04,2.94.02-.13,1.67-1.2,3.73-.15,5.1.75,1.03,2.27.83,3.52.81,1.46.06,3.07-1.32,3.18-2.8.31-1.25-.16-2.39-.85-3.25-1.91-2.32-3.91-4.56-5.78-6.92-1.08-1.32-1.24-3.2-.78-5.01.19-1.82,1.57-3.59,3.32-4.41Z"/>
    <path class="cls-1" d="M122.5,22.14c2.22-.02,4.44,0,6.66,0-.12.84-.26,1.69-.41,2.53-.64.02-1.27.03-1.9.04-1.14,6.54-2.27,13.07-3.36,19.61.63,0,1.25.02,1.88.04-.14.85-.29,1.69-.45,2.54-2.22,0-4.45,0-6.67-.01.13-.84.27-1.67.42-2.51.63-.02,1.26-.04,1.89-.05,1.16-6.54,2.26-13.08,3.38-19.61-.63-.02-1.26-.03-1.88-.05.13-.84.28-1.68.44-2.52Z"/>
    <path class="cls-1" d="M239.18,22.13c.92,0,1.83,0,2.75,0,1.69,5.96,3.11,12.04,4.82,17.99,1.15-5.86,2.01-11.73,3.09-17.59.85-.81,2.01-.32,2.9-.19-1.44,8.17-2.77,16.35-4.25,24.53-.93,0-1.86,0-2.79,0-1.63-5.99-3.18-12.01-4.76-18.02-.88,4.35-1.52,8.71-2.3,13.06-.32,1.65-.45,3.32-1,4.96-.91,0-1.81,0-2.72,0,1.36-8.25,2.77-16.5,4.25-24.75Z"/>
    <path class="cls-1" d="M135.34,22.15c.94-.02,1.88-.02,2.81-.02,1.6,5.97,3.15,11.97,4.72,17.95,1.19-5.83,1.99-11.67,3.11-17.5.8-.85,1.97-.31,2.92-.43-1.35,8.25-2.78,16.49-4.24,24.74-.94.02-1.87,0-2.8,0-1.63-5.96-3.08-11.99-4.78-17.92-1.12,5.97-2.05,11.95-3.13,17.92-.96,0-1.91,0-2.87,0,1.37-8.24,2.79-16.49,4.24-24.73Z"/>
    <path class="cls-1" d="M156.28,22.14c.87-.02,1.74-.02,2.6-.02.03,3.22-1.04,6.52-1.36,9.77,2.69-3.22,5.22-6.56,7.94-9.75,1,0,2-.02,2.99.03-1.36,2.37-3.38,4.35-5.02,6.55-1.02,1.42-2.37,2.66-3.21,4.18,1.34,4.73,3.27,9.2,4.56,13.96-1.05-.1-2.46.42-3.23-.3-1.32-3.55-2.38-7.23-3.73-10.76-.41.46-.84.91-1.18,1.42-.87,3.21-.87,6.49-2,9.68-.87,0-1.74,0-2.62-.03,1.37-8.24,2.78-16.49,4.25-24.73Z"/>
    <path class="cls-1" d="M226.26,22.32c2.15-.38,4.25-.14,6.37-.17.58.64-.02,1.68-.05,2.5-.64.02-1.28.03-1.92.04-1.12,6.55-2.26,13.09-3.36,19.63.63,0,1.27.02,1.9.03-.13.85-.29,1.69-.56,2.53-2.18,0-4.37,0-6.55,0,.12-.84.26-1.68.42-2.52.62-.01,1.25-.03,1.88-.04,1.16-6.54,2.27-13.09,3.38-19.63-.62,0-1.25-.01-1.86-.02.12-.78.25-1.56.37-2.35Z"/>
    <path class="cls-1" d="M256.92,24.66c.12-.85.33-1.71.65-2.55,4.03.05,8.1-.05,12.13.05.63.61,0,1.67-.03,2.5-1.64.04-3.27,0-4.91.04-.51,1.76-.61,3.53-.84,5.29-.79,3.22-1.31,6.46-1.67,9.68-.63,2.4-.94,4.81-1.41,7.21-.9.02-1.79.02-2.68,0,.05-.79.07-1.57.21-2.36,1.13-6.61,2.28-13.22,3.4-19.82-1.62,0-3.24,0-4.85-.02Z"/>
    <path class="cls-1" d="M274.72,22.15c2.96-.04,5.91,0,8.87-.03.71-.02,1.39.08,2.04.26-.25.73-.05,1.67-.63,2.27-2.63.12-5.22,0-7.84.05-.5,2.78-.97,5.57-1.44,8.36,2.16.02,4.34,0,6.5,0-.13.85-.27,1.69-.44,2.54-2.18.04-4.35,0-6.52.02-.48,2.9-1.02,5.8-1.47,8.71,2.79.03,5.6-.03,8.39.03-.13.84-.28,1.68-.43,2.53-3.77.02-7.52,0-11.28,0,1.37-8.24,2.8-16.49,4.25-24.73Z"/>
    <path class="cls-1" d="M191.48,22.34c2.53-.06,5.05-.09,7.55,0,2.28.09,3.9,2.1,3.57,4.39-.36,2.48-.83,4.96-1.25,7.44-.23,1.69-1.34,3.49-3.01,4.31-2.16,1.16-4.44.64-6.61.75-.99,2.49-.97,5.09-1.59,7.63-.91-.15-2.28.43-2.77-.43,1.32-8.03,2.75-16.07,4.11-24.1ZM193.98,24.7c-.7,4-1.37,8-2.07,12.01,1.5.24,3.14.31,4.72-.25.97-.33,1.64-1.32,1.81-2.25.43-1.94.67-3.89,1.04-5.83.2-1.07.34-2.36-.52-3.03-1.34-1.01-3.3-.58-4.99-.65Z"/>
    <path class="cls-1" d="M209.2,22.33c2.32-.05,4.62-.05,6.93,0,1.79-.05,3.47.9,3.97,2.54.55,1.58-.07,3.41-.3,5.13-.42,1.96-.39,4.07-1.72,5.86-.68.97-1.78,1.48-2.76,2.05.91,3.02,2.11,5.91,2.92,8.97-1.05.03-2.09.02-3.13.01-.96-2.9-1.98-5.77-2.94-8.67-.94,0-1.87,0-2.8,0-.53,2.89-.98,5.77-1.53,8.66-.94.02-1.87.03-2.79-.04,1.27-8.17,2.78-16.34,4.15-24.51ZM211.68,24.69c-.63,3.66-1.27,7.31-1.88,10.97,1.74-.13,3.63.42,5.31-.66,1.52-1.17,1.38-3.12,1.74-4.68.17-1.59,1-3.52-.02-4.8-1.29-1.19-3.4-.75-5.15-.82Z"/>
    <path class="cls-1" d="M291.39,22.32c2.45,0,4.91-.06,7.34.04,2.27.08,4.08,2.06,3.64,4.41-.44,2.56-.77,5.12-1.39,7.67-.49,1.67-2.11,2.64-3.54,3.48.87,3.02,2.14,5.87,2.86,8.95-1.01.04-2.01.04-3.01.05-1.19-2.82-1.95-5.85-3.08-8.7-.88.01-1.75.01-2.62.02-.79,2.88-1.14,5.77-1.71,8.66-.9.02-1.79.01-2.67,0,1.33-8.19,2.79-16.38,4.19-24.56ZM293.66,25.18c-.49,1.71-.47,3.42-.76,5.13-.49,1.78-.9,3.59-.87,5.36,1.15-.02,2.3.03,3.46-.06,1.23-.09,2.65-1.07,2.83-2.37.4-2.26.93-4.55,1.07-6.8-.62-2.14-3.4-1.77-5.34-1.75-.1.12-.29.37-.39.49Z"/>
  </g>
  <g>
    <path class="cls-4" d="M41.24.14c.6-.37,1.28.07,1.76.43.83.79,1.11,1.97,1.91,2.79.36.51,1.12,1.03.83,1.75-.26.75-1.22.59-1.81.39-1.24-.53-2.39-1.37-3.12-2.51-.47-.87-.53-2.29.42-2.85Z"/>
    <path class="cls-4" d="M50.08,3.35c.37-.63,1.11-1,1.83-.85.46-.02.69.49.71.88.02.61-.33,1.14-.64,1.63-.59.85-.97,1.82-1.62,2.63-.32-.32-.85-.52-.91-1.03-.18-1.11.06-2.3.63-3.27Z"/>
    <path class="cls-4" d="M31.37,9.34c.38-.41.91-.05,1.28.16,1.03.7,1.89,1.71,2.33,2.89.19.4.08.84-.16,1.19-1.26.38-2.37-.59-3.22-1.39-.77-.69-1.18-2.15-.23-2.86Z"/>
    <path class="cls-4" d="M45.75,11.75c.97-.74,2.13-1.47,3.4-1.38,1.54.28,2.51,1.61,3.59,2.61,1.48,1.36,2.71,3.07,4.56,3.95-.21.81-.33,1.65-.49,2.47-2.55.6-4.9,1.9-6.85,3.65-.36.27-.69.7-1.18.7-1.46.01-2.94-.2-4.38.13-2.45.57-4.78,2.12-5.88,4.44-.41.82.56,1.32,1.07,1.77-.86.83-1.83,1.64-2.27,2.78-.23.59.21,1.26.78,1.44.83,0,1.61-.33,2.41-.52-.41,1.07-.83,2.14-1.07,3.27-.58,2.49-.43,5.11.13,7.59-1.02-.38-1.73-1.3-2.07-2.31-.25-.84.04-1.71-.06-2.56-.46-.55-1.19-.72-1.81-1.03-.69-.28-1.25-.78-1.92-1.1-.89-.22-1.83.09-2.72-.16-.33-.8.23-1.65.16-2.48-.75-1.13-2.37-1.17-3.18-2.24-.52-.67-.57-1.6-.33-2.38.33-.85,1.02-1.47,1.52-2.21,1.19-1.7,2.63-3.42,4.7-4.03,2.1-.71,4.37-.49,6.47-1.17-.35-1.1-1.03-2.24-.66-3.43.41-1.07,1.54-1.59,2.2-2.48,1.33-1.74,2.09-3.94,3.86-5.34Z"/>
    <path class="cls-4" d="M38.15,13.35c.63.05,1.17.42,1.74.68.01.15.04.45.05.59-.55-.04-1.11-.02-1.64-.18-.32-.23-.61-.86-.15-1.09Z"/>
    <path class="cls-4" d="M13.44,15.52c.97-.74,2.27-.75,3.43-.69,1.85.2,3.66.89,5.16,2,.49.34.76.89,1.01,1.42-2.09.26-4.17-.18-6.2-.64-1.12-.28-2.32-.56-3.21-1.36-.28-.16-.25-.47-.2-.74Z"/>
    <path class="cls-4" d="M27.75,19.97c1.36-.37,2.77.17,3.94.86.57.33,1.19,1.3.33,1.68-1.33.29-2.95.12-3.86-1-.39-.42-.36-1.02-.41-1.54Z"/>
    <path class="cls-4" d="M1.92,27.09c1.91-.72,4.02-.61,5.99-.22,1.56.31,3.31.52,4.47,1.73-1.12.78-2.51.9-3.82,1.11-2.42.33-4.91.64-7.32.06-.55-.15-1.31-.48-1.24-1.17.34-.79,1.15-1.22,1.92-1.51Z"/>
    <path class="cls-4" d="M20.03,27.03c1-.25,1.88.36,2.63.95.73.6,1.71.84,2.33,1.57,0,.5-.33,1.04-.88,1.05-1.44.17-3.02-.14-4.13-1.11-.64-.61-.95-2.06.05-2.45Z"/>
    <path class="cls-4" d="M12.4,41.85c.49-1.9,2.49-2.79,4.25-3.1,1.64-.2,3.42-.37,4.95.4-1.33,1.23-3.1,1.76-4.76,2.38-1.42.45-3,.98-4.45.32Z"/>
    <path class="cls-4" d="M23.98,40.61c-.05-.61.62-.93,1.13-1,.96-.07,1.93-.06,2.89,0-.26,1.19-1.55,1.48-2.55,1.82-.59.25-1.53-.07-1.48-.81Z"/>
    <path class="cls-1" d="M57.3,16.93c1.47-5.56,7.17-9.4,12.83-9.26,3.28-.18,6.63.91,9.12,3.08.31.23.61.55,1.03.49,3.41-.1,6.79.35,10.13.99,4.8.98,9.6,2.46,13.71,5.21.59.43,1.23.82,1.69,1.41.35.93-.43,1.97-1.44,1.63-2.61-.93-5.35-1.46-8.11-1.75-4.97-.62-10.02-.5-14.95.4-.05.32-.1.64-.14.97-.2,1.92-.86,3.8-1.95,5.39-1.07,1.61-2.54,2.9-4.2,3.87,2.01,4.3,2.2,9.39.5,13.82-.99,2.67-2.74,4.99-4.87,6.86-.89.79-1.85,1.49-2.84,2.14,2.2,2.6,4.42,5.18,6.62,7.77,1.64-1.16,3.22-2.41,4.88-3.55.71-.51,1.89.04,1.81.95.08.64-.53.99-.96,1.33-1.74,1.24-3.43,2.55-5.17,3.78-.53.44-1.33.3-1.71-.25-2.53-2.92-5.01-5.88-7.54-8.8-4.61,2.35-9.99,3.4-15.09,2.24-2.21-.45-4.31-1.4-6.05-2.83-3.13,1.74-6.24,3.52-9.36,5.26-.46.28-1.15.31-1.53-.12-1.62-1.63-3.28-3.21-4.89-4.84-2.14.76-4.22,1.65-6.35,2.41-.73.3-1.66-.41-1.54-1.2,0-.62.61-.96,1.12-1.15,2.17-.82,4.32-1.69,6.49-2.5.52-.23,1.13-.1,1.51.33,1.57,1.54,3.11,3.11,4.68,4.66,2.71-1.51,5.4-3.05,8.11-4.56-1.55-1.86-2.63-4.08-3.26-6.42-.56-2.48-.71-5.1-.13-7.59.24-1.12.67-2.2,1.07-3.27-.8.19-1.58.51-2.41.52-.57-.19-1.02-.86-.78-1.44.44-1.15,1.42-1.95,2.27-2.78-.51-.45-1.48-.95-1.07-1.77,1.09-2.32,3.43-3.87,5.88-4.44,1.44-.33,2.92-.12,4.38-.13.49,0,.81-.44,1.18-.7,1.94-1.75,4.3-3.05,6.85-3.65.15-.82.28-1.66.49-2.47ZM66.12,10.73c-2.79,1.01-5.17,3.17-6.26,5.95-1.15,2.88-.62,6.28,1.12,8.81.54.81,1.44,1.28,1.99,2.09-.18.45-.37.9-.55,1.35-.63-.04-1.31-.06-1.82-.48-1.65-1.26-2.57-3.2-3.24-5.11-.11-.53-.22-1.05-.34-1.58-2.51.71-4.82,2.16-6.57,4.1-.16.19-.35.33-.57.43-.59.14-1.16-.05-1.73-.17-1.93-.47-3.99.1-5.65,1.11.88.16,1.77.56,2.66.5.31.57.46,1.2.41,1.85-1.16.65-2.53.85-3.62,1.66.79.12,1.58.25,2.37.4-.07.57-.23,1.12-.48,1.64-1.31,1.32-1.9,3.22-2.24,5.02-.61,4.17.59,8.68,3.53,11.76,1.58,1.68,3.7,2.8,5.96,3.26,5.29,1.17,10.91-.23,15.42-3.13,2.51-1.67,4.87-3.76,6.22-6.51,1.76-3.4,2.05-7.48.99-11.14-.37-1.17-.84-2.37-1.76-3.23.13-.41.16-.83.24-1.25.46-.24.93-.46,1.4-.69,2.46-1.15,4.33-3.47,5-6.1.27-.99.13-2.03.21-3.05.04-.42.24-.86.67-1,2.28-.77,4.72-.79,7.07-1.25,2.34.14,4.69-.14,7.02.19.93.08,1.85.08,2.78.06-3.87-1.18-7.83-2.12-11.86-2.43-1.82-.29-3.68-.09-5.51-.21-.43-.25-.77-.62-1.15-.93-1.48-1.35-3.39-2.17-5.35-2.52-2.13-.17-4.34-.19-6.36.62Z"/>
    <path class="cls-1" d="M67.83,17.53c0-1.17,1.15-2.14,2.3-2,.77.1,1.3.71,1.83,1.21-.01.79.14,1.73-.52,2.32-.68.8-1.84.82-2.74.4-.52-.49-.93-1.17-.86-1.92Z"/>
    <path class="cls-3" d="M62.15,16.37c1.58-2.48,4.38-3.97,7.25-4.36,2.65-.27,5.44.32,7.61,1.91.79.53,1.53,1.33,2.55,1.34,2.34.06,4.69.22,6.99.7-2.34.46-4.79.48-7.07,1.25-.43.14-.63.58-.67,1-.08,1.01.06,2.05-.21,3.05-.67,2.63-2.54,4.95-5,6.1-.47.23-.94.45-1.4.69-.07.42-.11.85-.24,1.25-.16.54-.54,1.11-.21,1.67.65,1.41,1.17,2.89,1.28,4.44.37,4.33-1.64,8.64-4.78,11.56-2.83,2.71-6.49,4.63-10.41,5.06-3.24.26-6.66-.18-9.45-1.95-2.6-1.66-4.17-4.62-4.56-7.63-.21-2.03-.07-4.13.65-6.06.4-1.12,1.05-2.13,1.57-3.2-.74-.02-1.48-.01-2.22.08.25-.52.41-1.07.48-1.64.86-.62,1.8-1.13,2.71-1.68-.48-.14-.97-.26-1.46-.38.04-.65-.1-1.28-.41-1.85,1.13-.54,2.26-1.18,3.52-1.33,1.26-.08,2.63.27,3.78-.4,1.65-.86,3.24-1.83,4.9-2.66.67,1.91,1.59,3.86,3.24,5.11.51.42,1.19.43,1.82.48.56.03,1.13.12,1.68-.03.15-.24.25-.49.3-.77-.41-.72-1.05-1.26-1.59-1.88-.99-1.09-1.65-2.46-1.96-3.88-.5-2.07.2-4.24,1.32-5.99ZM67.83,17.53c-.06.74.34,1.42.86,1.92.78,1.02,2.42,1.12,3.25.11.76-.78.53-1.98.01-2.83-.53-.5-1.06-1.11-1.83-1.21-1.15-.13-2.3.83-2.3,2Z"/>
    <path class="cls-3" d="M81.31,19.11c4.93-.89,9.98-1.01,14.95-.4,1.28.31,2.52.96,3.42,1.94-1.31.3-2.55-.33-3.83-.49-3.51-.51-7.09-.86-10.64-.47-1.36.02-2.69.28-4.04.39.04-.32.09-.65.14-.97Z"/>
    <path class="cls-2" d="M86.65,26.92c.04-1.35,1.53-2.41,2.81-1.86-.07.32-.03.68-.21.98-.77.52-1.7.72-2.6.88Z"/>
    <path class="cls-2" d="M79.22,25.47c1.23.64,2.37,1.55,3,2.8.34.66.27,1.42.45,2.11,1.29.66,2.93.62,3.99,1.71.39.31.56,1.01.12,1.35-.87.83-2.11,1.15-2.95,2.01-.71.83-1.03,1.95-1.07,3.03-.05,1.01.32,1.98.28,2.99-.5.54-1.23.78-1.85,1.16.12.55.31,1.1.74,1.49.36.38.94.93.48,1.46-.84.78-2.13.59-3.08,1.17-.63.27-.5,1.06-.67,1.6-.21,1.2-1.23,2.17-2.44,2.34-1.87.26-3.78-.1-5.56-.67,2.13-1.87,3.88-4.19,4.87-6.86,1.7-4.43,1.5-9.52-.5-13.82,1.66-.97,3.13-2.26,4.2-3.87Z"/>
    <path class="cls-2" d="M95.06,29.71c.86-.33,1.93-.39,2.65.28.57.43.57,1.48-.15,1.77-1.46.69-3.29,1.04-4.8.29-.11-1.35,1.23-1.97,2.3-2.34Z"/>
    <path class="cls-2" d="M86.37,38.96c.31-1.09,1.53-.83,2.39-.74.64.05,1.41.22,1.7.88.08.38.08.77.1,1.16-1.56.45-2.83-.77-4.19-1.3Z"/>
    <path class="cls-2" d="M94.54,39.02c.44.01.9-.04,1.32.1.2.24.36.5.54.77-.75.01-1.52-.12-1.86-.87Z"/>
    <path class="cls-2" d="M89.06,43.74c1.11-.29,2.4-.2,3.33.51.49.43,1,1.24.44,1.82-1.11.41-2.34.1-3.42-.25-.54-.22-1.3-.53-1.32-1.21-.07-.54.55-.74.96-.87Z"/>
    <path class="cls-2" d="M84.47,47.91c1.22-.05,2.01.99,2.74,1.8.44.46.35,1.48-.37,1.61-.6.15-1.13-.33-1.37-.83-.41-.83-.78-1.68-1-2.58Z"/>
  </g>
</svg>